<svg width="40" height="40" viewBox="0 0 40 40" fill="none" xmlns="http://www.w3.org/2000/svg">
<path d="M3.3335 11.6663H8.10855C9.31973 11.6663 10.4813 11.0669 11.3377 9.99976C12.5609 8.47576 14.3701 7.94361 16.0111 8.62516L18.3335 9.58971M3.3335 26.611H6.03463C7.96711 26.611 8.93335 26.611 9.84703 26.8685C9.89145 26.881 9.93573 26.894 9.97986 26.9073C10.8878 27.1832 11.6918 27.7012 13.2997 28.7375C16.4466 30.7657 18.0202 31.7798 19.7347 31.6563C19.8155 31.6505 19.8962 31.6427 19.9767 31.6332C21.6828 31.4292 23.02 30.1365 25.6945 27.551L28.3335 24.9997" stroke="white" stroke-width="1.5" stroke-linecap="round"/>
<path d="M36.6667 12.0561H32.472C30.6957 12.0561 29.4415 11.0908 28.1672 9.80398C27.3418 8.97046 26.2885 8.47921 25.1813 8.41156C23.9433 8.33593 22.5088 8.22943 21.3067 8.5597C19.9685 8.92728 19.085 9.93406 18.1503 10.9863L15.7385 13.7015C14.7538 14.81 14.7538 16.6073 15.7385 17.7158C16.5883 18.6725 17.9198 18.821 18.9198 18.0703C19.6395 17.5303 20.4572 16.6581 21.3052 16.3834C22.2595 16.0743 22.8515 16.7688 23.3923 17.4995L27.2593 22.7237C28.6945 24.6623 29.412 25.6318 30.393 26.149C31.374 26.6663 32.4948 26.6663 34.7367 26.6663H36.6667" stroke="white" stroke-width="1.5" stroke-linecap="round"/>
</svg>
