<svg width="107" height="108" viewBox="0 0 107 108" fill="none" xmlns="http://www.w3.org/2000/svg">
<circle cx="53.5" cy="54.0005" r="53.0737" fill="#1B2351"/>
<path d="M35.6124 31.2023C35.7297 31.2017 35.847 31.2012 35.9679 31.2006C36.2906 31.199 36.6134 31.1998 36.9362 31.2009C37.2853 31.2018 37.6345 31.2005 37.9837 31.1994C38.6667 31.1978 39.3496 31.1981 40.0325 31.1992C40.5878 31.2001 41.1431 31.2002 41.6984 31.1998C41.8172 31.1997 41.8172 31.1997 41.9383 31.1996C42.0992 31.1995 42.2601 31.1994 42.421 31.1992C43.9278 31.1982 45.4346 31.1994 46.9414 31.2014C48.2329 31.2031 49.5245 31.2028 50.816 31.2011C52.3176 31.1991 53.8192 31.1983 55.3208 31.1994C55.481 31.1995 55.6413 31.1997 55.8016 31.1998C55.8804 31.1998 55.9593 31.1999 56.0405 31.1999C56.5948 31.2003 57.1491 31.1997 57.7034 31.1988C58.3794 31.1978 59.0554 31.1981 59.7313 31.2001C60.0759 31.2011 60.4204 31.2014 60.765 31.2002C61.1392 31.1989 61.5134 31.2005 61.8876 31.2023C61.9955 31.2015 62.1034 31.2007 62.2146 31.1998C63.3043 31.2103 64.1757 31.5241 64.9688 32.2812C65.804 33.1562 66.0575 34.1041 66.0485 35.2914C66.0495 35.454 66.0495 35.454 66.0505 35.6198C66.0522 35.9746 66.0511 36.3293 66.0498 36.6842C66.0501 36.9319 66.0504 37.1797 66.0509 37.4274C66.0516 37.9449 66.0507 38.4624 66.0489 38.9799C66.0468 39.5777 66.0475 40.1754 66.0496 40.7732C66.0515 41.35 66.0513 41.9268 66.0502 42.5036C66.0499 42.7485 66.0502 42.9934 66.0511 43.2382C66.0521 43.5796 66.0506 43.9208 66.0485 44.2621C66.0493 44.3635 66.05 44.4648 66.0508 44.5693C66.043 45.2523 66.043 45.2523 65.8212 45.5625C65.61 45.697 65.4986 45.7382 65.25 45.7343C65.1572 45.7358 65.1572 45.7358 65.0625 45.7373C64.7702 45.6596 64.6798 45.5592 64.5 45.3125C64.4425 44.9878 64.4491 44.6655 64.4518 44.3366C64.4508 44.1877 64.4508 44.1877 64.4498 44.0358C64.448 43.707 64.4487 43.3784 64.4495 43.0496C64.4485 42.821 64.4474 42.5923 64.4461 42.3637C64.4431 41.7609 64.4421 41.1582 64.4417 40.5554C64.4409 39.5923 64.4376 38.6292 64.4331 37.666C64.4319 37.3301 64.432 36.9942 64.4322 36.6582C64.4315 36.451 64.4309 36.2437 64.4302 36.0364C64.4306 35.9436 64.431 35.8508 64.4314 35.7552C64.4264 34.8882 64.3561 34.1019 63.7108 33.4619C62.9593 32.7973 62.1142 32.8298 61.163 32.8312C61.0529 32.831 60.9427 32.8307 60.8292 32.8305C60.5243 32.83 60.2194 32.83 59.9144 32.8301C59.5852 32.8301 59.256 32.8296 58.9269 32.8291C58.2822 32.8284 57.6375 32.8281 56.9929 32.828C56.4688 32.828 55.9447 32.8278 55.4206 32.8275C53.9341 32.8267 52.4475 32.8262 50.961 32.8263C50.8809 32.8263 50.8008 32.8263 50.7183 32.8263C50.598 32.8263 50.598 32.8263 50.4752 32.8263C49.1754 32.8264 47.8757 32.8255 46.5759 32.8242C45.2407 32.8228 43.9056 32.8222 42.5704 32.8222C41.821 32.8223 41.0717 32.822 40.3223 32.821C39.6843 32.8202 39.0462 32.82 38.4082 32.8206C38.0828 32.8209 37.7575 32.8209 37.4321 32.8201C37.079 32.8194 36.7259 32.8198 36.3727 32.8205C36.2705 32.82 36.1683 32.8196 36.063 32.8191C35.175 32.8231 34.3691 32.8765 33.7119 33.5391C33.054 34.2831 33.0798 35.1163 33.0812 36.0585C33.081 36.1655 33.0808 36.2726 33.0806 36.383C33.08 36.742 33.0801 37.101 33.0801 37.4601C33.0799 37.7174 33.0795 37.9748 33.0792 38.2321C33.0784 38.8587 33.0781 39.4853 33.0781 40.1119C33.078 40.6214 33.0778 41.1308 33.0776 41.6402C33.0767 43.0853 33.0763 44.5303 33.0764 45.9753C33.0764 46.0921 33.0764 46.0921 33.0764 46.2112C33.0764 46.2892 33.0764 46.3672 33.0764 46.4475C33.0764 47.7109 33.0755 48.9743 33.0742 50.2377C33.0729 51.5356 33.0722 52.8335 33.0723 54.1313C33.0723 54.8597 33.0721 55.5881 33.0711 56.3165C33.0702 56.9367 33.07 57.5569 33.0706 58.1771C33.0709 58.4934 33.0708 58.8096 33.0701 59.1258C33.0694 59.4691 33.0698 59.8124 33.0706 60.1557C33.0701 60.255 33.0696 60.3543 33.0691 60.4566C33.0732 61.3375 33.1323 62.1366 33.7892 62.788C34.3777 63.3085 34.9995 63.4175 35.7671 63.4185C35.8675 63.4189 35.9679 63.4193 36.0714 63.4197C36.1801 63.4196 36.2888 63.4196 36.4009 63.4195C36.5165 63.4198 36.6321 63.4202 36.7512 63.4205C37.0018 63.4212 37.2524 63.4217 37.503 63.422C37.8993 63.4226 38.2956 63.4241 38.692 63.4259C38.8278 63.4265 38.9637 63.4271 39.0996 63.4277C39.1676 63.428 39.2356 63.4283 39.3057 63.4286C40.2278 63.4325 41.1499 63.4356 42.072 63.4368C42.6949 63.4375 43.3178 63.4397 43.9407 63.4433C44.2701 63.4451 44.5994 63.4463 44.9288 63.4458C45.2958 63.4453 45.6627 63.4477 46.0296 63.4503C46.1387 63.4496 46.2478 63.449 46.3603 63.4484C46.4601 63.4496 46.56 63.4507 46.6629 63.4519C46.793 63.4523 46.793 63.4523 46.9257 63.4526C47.2268 63.5145 47.3398 63.6399 47.5312 63.875C47.5811 64.0625 47.5811 64.0625 47.5781 64.25C47.5791 64.3118 47.5801 64.3737 47.5811 64.4375C47.5083 64.7113 47.3732 64.8213 47.1562 65C46.9139 65.0471 46.9139 65.0471 46.6341 65.0476C46.4746 65.0492 46.4746 65.0492 46.3119 65.0508C46.1375 65.0496 46.1375 65.0496 45.9596 65.0485C45.7755 65.0495 45.7755 65.0495 45.5876 65.0505C45.2509 65.0522 44.9143 65.0515 44.5776 65.0503C44.2245 65.0494 43.8714 65.0503 43.5183 65.0508C42.9246 65.0515 42.3309 65.0506 41.7372 65.0488C41.0529 65.0468 40.3686 65.0475 39.6843 65.0495C39.0956 65.0512 38.5069 65.0515 37.9182 65.0505C37.5671 65.0499 37.2161 65.0498 36.8651 65.0511C36.5342 65.0522 36.2035 65.0514 35.8726 65.0492C35.6949 65.0485 35.5172 65.0496 35.3395 65.0508C34.2246 65.0399 33.3447 64.7452 32.5312 63.9687C31.6815 63.0785 31.4428 62.1218 31.4524 60.916C31.4515 60.7447 31.4515 60.7447 31.4506 60.5698C31.4494 60.2556 31.4498 59.9414 31.451 59.6272C31.4518 59.2872 31.4505 58.9472 31.4495 58.6073C31.4478 57.9424 31.4482 57.2775 31.4493 56.6126C31.4501 56.0719 31.4502 55.5313 31.4498 54.9907C31.4498 54.9136 31.4497 54.8365 31.4496 54.757C31.4495 54.6004 31.4494 54.4437 31.4493 54.2871C31.4482 52.82 31.4494 51.3529 31.4515 49.8858C31.4531 48.6284 31.4528 47.371 31.4511 46.1135C31.4491 44.6515 31.4483 43.1894 31.4495 41.7274C31.4496 41.5713 31.4497 41.4153 31.4498 41.2592C31.4499 41.1825 31.4499 41.1057 31.45 41.0266C31.4503 40.4869 31.4498 39.9473 31.4489 39.4076C31.4478 38.7495 31.4481 38.0914 31.4501 37.4333C31.4511 37.0978 31.4515 36.7624 31.4502 36.4269C31.4489 36.0626 31.4505 35.6983 31.4524 35.3339C31.4515 35.2289 31.4507 35.1239 31.4498 35.0157C31.4605 33.9352 31.7813 33.0667 32.5312 32.2812C33.4313 31.422 34.3944 31.1929 35.6124 31.2023Z" fill="white"/>
<path d="M62.9766 47.7209C63.0469 47.7211 63.1173 47.7212 63.1899 47.7214C64.2164 47.7256 65.1901 47.7684 66.1875 48.0314C66.3116 48.0604 66.4358 48.0893 66.5599 48.1182C68.9414 48.7114 71.032 50.0593 72.75 51.7814C72.8707 51.9005 72.8707 51.9005 72.9939 52.022C75.3707 54.4931 76.5464 57.8386 76.5293 61.2267C76.529 61.3323 76.529 61.3323 76.5288 61.44C76.5246 62.4666 76.4818 63.4403 76.2188 64.4377C76.1898 64.5618 76.1609 64.686 76.132 64.8101C75.5388 67.1915 74.1909 69.2822 72.4688 71.0002C72.3894 71.0807 72.31 71.1612 72.2281 71.2441C69.7732 73.6054 66.4216 74.771 63.0586 74.7736C62.9868 74.7737 62.9151 74.7737 62.8411 74.7738C61.8052 74.7724 60.818 74.7424 59.8125 74.4689C59.7496 74.4518 59.6867 74.4348 59.6219 74.4172C57.1553 73.7319 55.061 72.5143 53.25 70.7189C53.1287 70.5995 53.1287 70.5995 53.005 70.4776C50.6455 68.0203 49.4792 64.6731 49.4766 61.3088C49.4765 61.2011 49.4765 61.2011 49.4764 61.0912C49.4778 60.0531 49.5152 59.0716 49.7813 58.0627C49.8102 57.9385 49.8391 57.8144 49.868 57.6902C50.4612 55.3088 51.8091 53.2182 53.5313 51.5002C53.6106 51.4197 53.69 51.3392 53.7719 51.2563C56.2429 48.8795 59.5884 47.7038 62.9766 47.7209ZM54.2402 53.094C52.8175 54.5658 51.9264 56.3887 51.375 58.3439C51.343 58.4566 51.311 58.5692 51.278 58.6852C50.5909 61.6381 51.1891 64.8889 52.7476 67.4662C54.5156 70.2785 57.2496 72.2195 60.4812 72.9689C63.5923 73.6321 66.8459 73.0203 69.5237 71.3093C72.0971 69.6051 73.795 67.0996 74.625 64.1564C74.657 64.0438 74.6891 63.9312 74.722 63.8151C75.4091 60.8623 74.8109 57.6115 73.2524 55.0341C71.4726 52.2031 68.7682 50.3361 65.543 49.5314C61.331 48.6034 57.232 50.1015 54.2402 53.094Z" fill="white"/>
<path d="M58.5 51.4531C58.5619 51.4522 58.6238 51.4512 58.6875 51.4502C58.9831 51.5287 59.0771 51.6195 59.25 51.875C59.2959 52.1968 59.2852 52.5117 59.2734 52.8359C59.2657 53.1376 59.258 53.4392 59.25 53.75C60.24 53.75 61.23 53.75 62.25 53.75C62.2352 53.1498 62.2352 53.1498 62.2162 52.5497C62.2086 51.9362 62.2086 51.9362 62.4155 51.6304C62.634 51.4944 62.7453 51.4491 63 51.4531C63.0619 51.4522 63.1237 51.4512 63.1875 51.4502C63.4831 51.5287 63.5771 51.6195 63.75 51.875C63.7959 52.1968 63.7852 52.5117 63.7734 52.8359C63.7657 53.1376 63.758 53.4392 63.75 53.75C64.74 53.75 65.73 53.75 66.75 53.75C66.7352 53.1498 66.7352 53.1498 66.7162 52.5497C66.7086 51.9362 66.7086 51.9362 66.9155 51.6304C67.134 51.4944 67.2453 51.4491 67.5 51.4531C67.5619 51.4522 67.6237 51.4512 67.6875 51.4502C67.9831 51.5287 68.0771 51.6195 68.25 51.875C68.2959 52.1965 68.2852 52.512 68.2734 52.8359C68.2717 52.9237 68.2701 53.0114 68.2683 53.1018C68.2639 53.318 68.2577 53.5339 68.25 53.75C68.3048 53.748 68.3597 53.7461 68.4162 53.744C68.6655 53.7362 68.9147 53.7314 69.1641 53.7266C69.2503 53.7234 69.3366 53.7203 69.4255 53.717C69.7871 53.7118 70.0475 53.7094 70.3711 53.8789C70.5763 54.2707 70.5393 54.6515 70.5234 55.0859C70.5217 55.1737 70.5201 55.2614 70.5183 55.3518C70.5139 55.568 70.5077 55.7839 70.5 56C70.5548 55.998 70.6097 55.9961 70.6662 55.994C70.9154 55.9862 71.1647 55.9814 71.4141 55.9766C71.5003 55.9734 71.5866 55.9703 71.6755 55.967C72.3126 55.9578 72.3126 55.9578 72.6196 56.1655C72.7556 56.384 72.8009 56.4953 72.7969 56.75C72.7983 56.8428 72.7983 56.8428 72.7998 56.9375C72.7213 57.2331 72.6305 57.3271 72.375 57.5C72.0532 57.5459 71.7383 57.5352 71.4141 57.5234C71.1124 57.5157 70.8108 57.508 70.5 57.5C70.5 58.49 70.5 59.48 70.5 60.5C71.1002 60.4852 71.1002 60.4852 71.7003 60.4662C72.3138 60.4586 72.3138 60.4586 72.6196 60.6655C72.7556 60.884 72.8009 60.9953 72.7969 61.25C72.7983 61.3428 72.7983 61.3428 72.7998 61.4375C72.7213 61.7331 72.6305 61.8271 72.375 62C72.0532 62.0459 71.7383 62.0352 71.4141 62.0234C71.1124 62.0157 70.8108 62.008 70.5 62C70.5 62.99 70.5 63.98 70.5 65C71.1002 64.9852 71.1002 64.9852 71.7003 64.9662C72.3138 64.9586 72.3138 64.9586 72.6196 65.1655C72.7556 65.384 72.8009 65.4953 72.7969 65.75C72.7983 65.8428 72.7983 65.8428 72.7998 65.9375C72.7213 66.2331 72.6305 66.3271 72.375 66.5C72.0535 66.5459 71.738 66.5352 71.4141 66.5234C71.3263 66.5217 71.2386 66.5201 71.1482 66.5183C70.932 66.5139 70.7161 66.5077 70.5 66.5C70.502 66.5548 70.5039 66.6097 70.506 66.6662C70.5138 66.9155 70.5186 67.1647 70.5234 67.4141C70.5282 67.5435 70.5282 67.5435 70.533 67.6755C70.5382 68.0371 70.5406 68.2975 70.3711 68.6211C69.9793 68.8263 69.5985 68.7893 69.1641 68.7734C69.0763 68.7717 68.9886 68.7701 68.8982 68.7683C68.682 68.7639 68.4661 68.7577 68.25 68.75C68.252 68.8048 68.2539 68.8597 68.256 68.9162C68.2638 69.1654 68.2686 69.4147 68.2734 69.6641C68.2782 69.7935 68.2782 69.7935 68.283 69.9255C68.2922 70.5626 68.2922 70.5626 68.0845 70.8696C67.866 71.0056 67.7547 71.0509 67.5 71.0469C67.4072 71.0483 67.4072 71.0483 67.3125 71.0498C67.0169 70.9713 66.9229 70.8805 66.75 70.625C66.7041 70.3032 66.7148 69.9883 66.7266 69.6641C66.7343 69.3624 66.742 69.0608 66.75 68.75C65.76 68.75 64.77 68.75 63.75 68.75C63.7648 69.3502 63.7648 69.3502 63.7838 69.9503C63.7914 70.5638 63.7914 70.5638 63.5845 70.8696C63.366 71.0056 63.2547 71.0509 63 71.0469C62.9072 71.0483 62.9072 71.0483 62.8125 71.0498C62.5169 70.9713 62.4229 70.8805 62.25 70.625C62.2041 70.3032 62.2148 69.9883 62.2266 69.6641C62.2343 69.3624 62.242 69.0608 62.25 68.75C61.26 68.75 60.27 68.75 59.25 68.75C59.2648 69.3502 59.2648 69.3502 59.2838 69.9503C59.2914 70.5638 59.2914 70.5638 59.0845 70.8696C58.866 71.0056 58.7547 71.0509 58.5 71.0469C58.4072 71.0483 58.4072 71.0483 58.3125 71.0498C58.0169 70.9713 57.9229 70.8805 57.75 70.625C57.7041 70.3035 57.7148 69.988 57.7266 69.6641C57.7283 69.5763 57.7299 69.4886 57.7317 69.3982C57.7361 69.182 57.7423 68.9661 57.75 68.75C57.6952 68.752 57.6403 68.7539 57.5838 68.756C57.3346 68.7638 57.0853 68.7686 56.8359 68.7734C56.7497 68.7766 56.6634 68.7797 56.5745 68.783C56.2129 68.7882 55.9525 68.7906 55.6289 68.6211C55.4237 68.2293 55.4607 67.8485 55.4766 67.4141C55.4783 67.3263 55.4799 67.2386 55.4817 67.1482C55.4861 66.932 55.4923 66.7161 55.5 66.5C55.4452 66.502 55.3903 66.5039 55.3338 66.506C55.0846 66.5138 54.8353 66.5186 54.5859 66.5234C54.4997 66.5266 54.4134 66.5297 54.3245 66.533C53.6874 66.5422 53.6874 66.5422 53.3804 66.3345C53.2444 66.116 53.1991 66.0047 53.2031 65.75C53.2017 65.6572 53.2017 65.6572 53.2002 65.5625C53.2787 65.2669 53.3695 65.1729 53.625 65C53.9468 64.9541 54.2617 64.9648 54.5859 64.9766C54.8876 64.9843 55.1892 64.992 55.5 65C55.5 64.01 55.5 63.02 55.5 62C54.8998 62.0148 54.8998 62.0148 54.2997 62.0338C53.6862 62.0414 53.6862 62.0414 53.3804 61.8345C53.2444 61.616 53.1991 61.5047 53.2031 61.25C53.2017 61.1572 53.2017 61.1572 53.2002 61.0625C53.2787 60.7669 53.3695 60.6729 53.625 60.5C53.9468 60.4541 54.2617 60.4648 54.5859 60.4766C55.0384 60.4882 55.0384 60.4882 55.5 60.5C55.5 59.51 55.5 58.52 55.5 57.5C54.8998 57.5148 54.8998 57.5148 54.2997 57.5338C53.6862 57.5414 53.6862 57.5414 53.3804 57.3345C53.2444 57.116 53.1991 57.0047 53.2031 56.75C53.2022 56.6881 53.2012 56.6262 53.2002 56.5625C53.2787 56.2669 53.3695 56.1729 53.625 56C53.9465 55.9541 54.262 55.9648 54.5859 55.9766C54.7175 55.9791 54.7175 55.9791 54.8518 55.9817C55.068 55.9861 55.2839 55.9923 55.5 56C55.498 55.9452 55.4961 55.8903 55.494 55.8338C55.4862 55.5846 55.4814 55.3353 55.4766 55.0859C55.4734 54.9997 55.4703 54.9134 55.467 54.8245C55.4618 54.4629 55.4594 54.2025 55.6289 53.8789C56.0207 53.6737 56.4015 53.7107 56.8359 53.7266C56.9237 53.7283 57.0114 53.7299 57.1018 53.7317C57.318 53.7361 57.5339 53.7423 57.75 53.75C57.748 53.6952 57.7461 53.6403 57.744 53.5838C57.7362 53.3346 57.7314 53.0853 57.7266 52.8359C57.7234 52.7497 57.7203 52.6634 57.717 52.5745C57.7078 51.9374 57.7078 51.9374 57.9155 51.6304C58.134 51.4944 58.2453 51.4491 58.5 51.4531ZM57 55.25C57 59.21 57 63.17 57 67.25C60.96 67.25 64.92 67.25 69 67.25C69 63.29 69 59.33 69 55.25C65.04 55.25 61.08 55.25 57 55.25Z" fill="white"/>
<path d="M43.5 36.2188C43.9394 36.6543 44.2623 37.0417 44.2676 37.6778C44.3108 38.1914 44.5155 38.4835 44.8035 38.9002C45.024 39.2576 45.1911 39.6169 45.3527 40.0036C45.4009 40.1188 45.4009 40.1188 45.4502 40.2364C45.8539 41.2242 46.1624 42.2428 46.4766 43.2618C46.5676 43.5555 46.6589 43.8492 46.7508 44.1427C46.8073 44.3232 46.8632 44.5038 46.9186 44.6846C47.0692 45.1674 47.2433 45.6246 47.4604 46.0817C47.5312 46.25 47.5312 46.25 47.5312 46.4375C47.6005 46.4151 47.6697 46.3926 47.7411 46.3694C48.5614 46.1297 49.1647 46.1695 49.9687 46.4375C50.004 46.3317 50.0393 46.2258 50.0757 46.1167C50.3681 45.2395 50.3681 45.2395 50.4329 45.0452C50.4786 44.908 50.5243 44.7709 50.57 44.6337C50.6937 44.2625 50.8175 43.8914 50.9415 43.5202C51.2608 42.5638 51.2608 42.5638 51.5749 41.6057C51.8454 40.776 52.1314 39.9734 52.5029 39.1829C52.6247 38.9326 52.6247 38.9326 52.5 38.6563C52.4426 37.9156 52.39 37.1977 52.875 36.5938C53.4001 36.0424 53.8697 35.7395 54.6394 35.6596C55.2568 35.6496 55.7727 35.8263 56.25 36.2188C56.6218 36.5932 56.9834 36.9715 57.0081 37.524C57.0354 38.118 57.2431 38.4527 57.5728 38.9405C58.3031 40.0873 58.6515 41.4967 59.0625 42.7813C59.0947 42.8809 59.1268 42.9805 59.16 43.0831C59.2537 43.3747 59.3459 43.6668 59.4375 43.959C59.4801 44.0919 59.4801 44.0919 59.5235 44.2274C59.6688 44.6993 59.7658 45.0995 59.7187 45.5938C59.5167 45.9008 59.3752 45.9596 59.0215 46.0625C58.6875 46.0625 58.6875 46.0625 58.4539 45.9358C58.1123 45.5751 58.0151 45.1844 57.873 44.7149C57.8089 44.5132 57.7447 44.3115 57.6804 44.1099C57.6466 44.002 57.6128 43.8942 57.578 43.7831C57.4014 43.2245 57.2174 42.6686 57.0326 42.1127C56.9717 41.9288 56.9114 41.7447 56.8512 41.5606C56.8137 41.4469 56.7761 41.3332 56.7374 41.2161C56.7044 41.1155 56.6714 41.015 56.6373 40.9114C56.5342 40.617 56.5342 40.617 56.3777 40.3186C56.25 40.0625 56.25 40.0625 56.25 39.875C56.2043 39.9021 56.1586 39.9292 56.1116 39.9571C55.4512 40.3029 54.8281 40.3076 54.0937 40.25C54.0009 40.2191 53.9081 40.1882 53.8125 40.1563C53.8018 40.2191 53.791 40.2819 53.7799 40.3466C53.7061 40.6827 53.6 41.0045 53.4899 41.33C53.4671 41.3982 53.4443 41.4664 53.4208 41.5366C53.3466 41.7582 53.2719 41.9797 53.1973 42.2012C53.094 42.5079 52.9909 42.8147 52.8878 43.1215C52.8495 43.2352 52.8495 43.2352 52.8105 43.3512C52.6631 43.79 52.5191 44.2295 52.3788 44.6706C52.0882 45.5787 51.7792 46.4193 51.3232 47.2576C51.0872 47.71 51.0444 48.0497 51.0835 48.5513C51.1092 49.1288 50.8691 49.5895 50.5137 50.0293C49.9738 50.5905 49.5323 50.7702 48.75 50.7969C47.9568 50.7698 47.5201 50.5878 46.9805 50.0118C46.6565 49.6395 46.4989 49.2755 46.5015 48.7773C46.5087 48.68 46.516 48.5827 46.5234 48.4825C46.5325 47.9066 46.4047 47.5809 46.1031 47.0988C45.3927 45.8709 45.0496 44.4119 44.6348 43.0654C44.3076 42.0064 43.9683 40.9749 43.5 39.9688C43.212 39.9459 43.212 39.9459 42.969 40.1083C42.582 40.2837 42.2881 40.2822 41.8711 40.2676C41.7436 40.2644 41.6161 40.2612 41.4885 40.2582C41.3241 40.2542 41.3241 40.2542 41.1562 40.25C40.8223 41.0342 40.5313 41.8228 40.2781 42.6366C40.2512 42.7229 40.2243 42.8092 40.1967 42.8982C40.0862 43.2548 39.9765 43.6117 39.8677 43.9688C38.6281 48.0251 38.6281 48.0251 37.125 49.0625C36.6337 49.3014 36.1619 49.3145 35.625 49.25C35.373 49.1094 35.373 49.1094 35.25 48.875C35.18 48.5075 35.1851 48.2294 35.3848 47.9082C35.6176 47.7549 35.7644 47.711 36.0293 47.6446C36.5023 47.4931 36.7049 47.2635 36.9635 46.8459C37.4873 45.8256 37.8253 44.7304 38.1672 43.6389C38.1932 43.5561 38.2192 43.4733 38.246 43.388C38.3767 42.9706 38.5058 42.5528 38.6326 42.1342C38.9044 41.2476 39.2087 40.4019 39.6163 39.5673C39.7853 39.2126 39.8645 39.0302 39.75 38.6563C39.6404 37.1972 39.6404 37.1972 40.125 36.5938C41.072 35.5993 42.3842 35.3003 43.5 36.2188ZM41.4961 37.4961C41.2981 37.7855 41.2864 37.9371 41.3437 38.2813C41.4844 38.5157 41.4844 38.5157 41.7187 38.6563C42.063 38.7137 42.2145 38.7019 42.5039 38.5039C42.7019 38.2145 42.7136 38.063 42.6562 37.7188C42.5156 37.4844 42.5156 37.4844 42.2812 37.3438C41.937 37.2864 41.7855 37.2981 41.4961 37.4961ZM54.2461 37.4961C54.0481 37.7855 54.0364 37.9371 54.0937 38.2813C54.2344 38.5157 54.2344 38.5157 54.4687 38.6563C54.813 38.7137 54.9645 38.7019 55.2539 38.5039C55.4519 38.2145 55.4636 38.063 55.4062 37.7188C55.2656 37.4844 55.2656 37.4844 55.0312 37.3438C54.687 37.2864 54.5355 37.2981 54.2461 37.4961ZM48.2461 47.9961C48.0481 48.2855 48.0364 48.4371 48.0937 48.7813C48.2344 49.0157 48.2344 49.0157 48.4687 49.1563C48.813 49.2137 48.9645 49.2019 49.2539 49.0039C49.4519 48.7145 49.4636 48.563 49.4062 48.2188C49.2656 47.9844 49.2656 47.9844 49.0312 47.8438C48.687 47.7864 48.5355 47.7981 48.2461 47.9961Z" fill="white"/>
<path d="M61.5 57.4531C61.5619 57.4522 61.6238 57.4512 61.6875 57.4502C61.9617 57.523 62.0657 57.6603 62.25 57.875C62.3881 58.167 62.3881 58.167 62.517 58.5133C62.5407 58.5762 62.5645 58.6391 62.5889 58.7039C62.6664 58.9097 62.7424 59.116 62.8184 59.3223C62.8718 59.4652 62.9253 59.608 62.9789 59.7508C63.0886 60.0435 63.1978 60.3364 63.3067 60.6294C63.4599 61.0401 63.6166 61.4494 63.7745 61.8583C63.8454 62.0423 63.9162 62.2263 63.987 62.4103C64.0534 62.5825 64.1201 62.7546 64.1869 62.9267C64.2469 63.0836 64.2469 63.0836 64.3081 63.2437C64.3431 63.3343 64.378 63.425 64.414 63.5184C64.5538 63.9457 64.6393 64.2289 64.4707 64.6543C64.3125 64.9062 64.3125 64.9062 64.125 65C63.4624 65.0534 63.4624 65.0534 63.1641 64.8711C62.9067 64.4851 62.625 63.9737 62.625 63.5C61.8825 63.5 61.14 63.5 60.375 63.5C60.2822 63.8094 60.1894 64.1188 60.0938 64.4375C59.869 64.878 59.869 64.878 59.625 65C58.9639 65.0533 58.9639 65.0533 58.6406 64.8594C58.4403 64.5256 58.4471 64.2502 58.5 63.875C58.6344 63.4079 58.806 62.9562 58.979 62.5024C59.0286 62.3699 59.0782 62.2374 59.1276 62.1048C59.2312 61.8281 59.3356 61.5517 59.4407 61.2755C59.5751 60.9222 59.7074 60.5682 59.8391 60.2138C59.941 59.9404 60.0438 59.6674 60.147 59.3945C60.1962 59.2641 60.2451 59.1335 60.2937 59.0029C60.3617 58.8204 60.4311 58.6384 60.5009 58.4565C60.54 58.353 60.5792 58.2495 60.6195 58.1428C60.8153 57.741 61.0292 57.4458 61.5 57.4531ZM61.4063 60.6875C61.2516 61.1206 61.0969 61.5538 60.9375 62C61.3088 62 61.68 62 62.0625 62C61.9078 61.5669 61.7531 61.1337 61.5938 60.6875C61.5319 60.6875 61.47 60.6875 61.4063 60.6875Z" fill="white"/>
<path d="M36.5566 58.9512C36.6512 58.9506 36.7457 58.9499 36.8432 58.9492C37.1559 58.9476 37.4685 58.9487 37.7812 58.95C37.9984 58.9497 38.2156 58.9493 38.4327 58.9489C38.8879 58.9483 39.3431 58.9491 39.7983 58.9509C40.3822 58.953 40.966 58.9518 41.5499 58.9495C41.9984 58.9482 42.4468 58.9486 42.8952 58.9496C43.1105 58.9498 43.3259 58.9495 43.5412 58.9486C43.8419 58.9477 44.1426 58.9491 44.4434 58.9512C44.5772 58.9501 44.5772 58.9501 44.7138 58.9489C45.3166 58.9567 45.3166 58.9567 45.6176 59.1786C45.7606 59.3905 45.8008 59.4965 45.7969 59.7498C45.7983 59.8426 45.7983 59.8426 45.7998 59.9373C45.7227 60.2275 45.6185 60.3203 45.375 60.4998C45.065 60.557 44.7578 60.551 44.4434 60.5483C44.3488 60.5489 44.2543 60.5496 44.1568 60.5503C43.8441 60.5519 43.5315 60.5508 43.2188 60.5496C43.0016 60.5498 42.7844 60.5502 42.5673 60.5507C42.1121 60.5512 41.6569 60.5504 41.2017 60.5486C40.6178 60.5465 40.034 60.5477 39.4501 60.55C39.0016 60.5513 38.5532 60.5509 38.1048 60.5499C37.8895 60.5497 37.6741 60.55 37.4588 60.5509C37.1581 60.5518 36.8574 60.5504 36.5566 60.5483C36.4674 60.549 36.3782 60.5498 36.2862 60.5506C35.6834 60.5428 35.6834 60.5428 35.3824 60.3209C35.2394 60.109 35.1992 60.0031 35.2031 59.7498C35.2017 59.6569 35.2017 59.6569 35.2002 59.5623C35.3816 58.8793 35.9765 58.9463 36.5566 58.9512Z" fill="white"/>
<path d="M36.5566 55.2012C36.6512 55.2006 36.7457 55.1999 36.8432 55.1992C37.1559 55.1976 37.4685 55.1987 37.7812 55.2C37.9984 55.1997 38.2156 55.1993 38.4327 55.1989C38.8879 55.1983 39.3431 55.1991 39.7983 55.2009C40.3822 55.203 40.966 55.2018 41.5499 55.1995C41.9984 55.1982 42.4468 55.1986 42.8952 55.1996C43.1105 55.1998 43.3259 55.1995 43.5412 55.1986C43.8419 55.1977 44.1426 55.1991 44.4434 55.2012C44.5772 55.2001 44.5772 55.2001 44.7138 55.1989C45.3166 55.2067 45.3166 55.2067 45.6176 55.4286C45.7606 55.6405 45.8008 55.7465 45.7969 55.9998C45.7983 56.0926 45.7983 56.0926 45.7998 56.1873C45.7227 56.4775 45.6185 56.5703 45.375 56.7498C45.065 56.807 44.7578 56.801 44.4434 56.7983C44.3488 56.7989 44.2543 56.7996 44.1568 56.8003C43.8441 56.8019 43.5315 56.8008 43.2188 56.7996C43.0016 56.7998 42.7844 56.8002 42.5673 56.8007C42.1121 56.8012 41.6569 56.8004 41.2017 56.7986C40.6178 56.7965 40.034 56.7977 39.4501 56.8C39.0016 56.8013 38.5532 56.8009 38.1048 56.7999C37.8895 56.7997 37.6741 56.8 37.4588 56.8009C37.1581 56.8018 36.8574 56.8004 36.5566 56.7983C36.4674 56.799 36.3782 56.7998 36.2862 56.8006C35.6834 56.7928 35.6834 56.7928 35.3824 56.5709C35.2394 56.359 35.1992 56.2531 35.2031 55.9998C35.2017 55.9069 35.2017 55.9069 35.2002 55.8123C35.3816 55.1293 35.9765 55.1963 36.5566 55.2012Z" fill="white"/>
<path d="M36.5566 51.4512C36.6512 51.4506 36.7457 51.4499 36.8432 51.4492C37.1559 51.4476 37.4685 51.4487 37.7812 51.45C37.9984 51.4497 38.2156 51.4493 38.4327 51.4489C38.8879 51.4483 39.3431 51.4491 39.7983 51.4509C40.3822 51.453 40.966 51.4518 41.5499 51.4495C41.9984 51.4482 42.4468 51.4486 42.8952 51.4496C43.1105 51.4498 43.3259 51.4495 43.5412 51.4486C43.8419 51.4477 44.1426 51.4491 44.4434 51.4512C44.5772 51.4501 44.5772 51.4501 44.7138 51.4489C45.3166 51.4567 45.3166 51.4567 45.6176 51.6786C45.7606 51.8905 45.8008 51.9965 45.7969 52.2498C45.7983 52.3426 45.7983 52.3426 45.7998 52.4373C45.7227 52.7275 45.6185 52.8203 45.375 52.9998C45.065 53.057 44.7578 53.051 44.4434 53.0483C44.3488 53.0489 44.2543 53.0496 44.1568 53.0503C43.8441 53.0519 43.5315 53.0508 43.2188 53.0496C43.0016 53.0498 42.7844 53.0502 42.5673 53.0507C42.1121 53.0512 41.6569 53.0504 41.2017 53.0486C40.6178 53.0465 40.034 53.0477 39.4501 53.05C39.0016 53.0513 38.5532 53.0509 38.1048 53.0499C37.8895 53.0497 37.6741 53.05 37.4588 53.0509C37.1581 53.0518 36.8574 53.0504 36.5566 53.0483C36.4674 53.049 36.3782 53.0498 36.2862 53.0506C35.6834 53.0428 35.6834 53.0428 35.3824 52.8209C35.2394 52.609 35.1992 52.5031 35.2031 52.2498C35.2017 52.1569 35.2017 52.1569 35.2002 52.0623C35.3816 51.3793 35.9765 51.4463 36.5566 51.4512Z" fill="white"/>
<path d="M66 57.4531C66.0619 57.4522 66.1238 57.4512 66.1875 57.4502C66.4661 57.5242 66.5716 57.6501 66.75 57.875C66.7976 58.1738 66.7976 58.1738 66.7985 58.5312C66.7992 58.5965 66.7998 58.6618 66.8005 58.7291C66.8022 58.9444 66.8011 59.1597 66.7998 59.375C66.8001 59.5249 66.8004 59.6748 66.8009 59.8247C66.8014 60.1387 66.8006 60.4526 66.7989 60.7666C66.7968 61.1689 66.798 61.5711 66.8002 61.9734C66.8016 62.2828 66.8012 62.5923 66.8002 62.9018C66.7999 63.0501 66.8002 63.1984 66.8011 63.3467C66.8021 63.5541 66.8006 63.7614 66.7985 63.9688C66.7981 64.1457 66.7981 64.1457 66.7976 64.3262C66.7417 64.6771 66.6539 64.7873 66.375 65C66.1875 65.0498 66.1875 65.0498 66 65.0469C65.9381 65.0478 65.8763 65.0488 65.8125 65.0498C65.5339 64.9758 65.4284 64.8499 65.25 64.625C65.2024 64.3262 65.2024 64.3262 65.2015 63.9688C65.2008 63.9035 65.2002 63.8382 65.1995 63.7709C65.1978 63.5556 65.1989 63.3403 65.2002 63.125C65.1999 62.9751 65.1996 62.8252 65.1991 62.6753C65.1986 62.3613 65.1994 62.0474 65.2011 61.7334C65.2033 61.3311 65.202 60.9289 65.1998 60.5266C65.1984 60.2172 65.1989 59.9077 65.1998 59.5982C65.2001 59.4499 65.1998 59.3016 65.1989 59.1533C65.1979 58.9459 65.1994 58.7386 65.2015 58.5312C65.2018 58.4133 65.2021 58.2954 65.2024 58.1738C65.2759 57.7127 65.522 57.4457 66 57.4531Z" fill="white"/>
</svg>
