<svg width="32" height="30" viewBox="0 0 32 30" fill="none" xmlns="http://www.w3.org/2000/svg">
<g filter="url(#filter0_d_530_4849)">
<path fill-rule="evenodd" clip-rule="evenodd" d="M17.2071 0.292893C16.8166 -0.0976311 16.1834 -0.0976311 15.7929 0.292893C15.4024 0.683417 15.4024 1.31658 15.7929 1.70711L28.0858 14H2.5C1.94772 14 1.5 14.4477 1.5 15C1.5 15.5523 1.94772 16 2.5 16H28.0858L15.7929 28.2929C15.4024 28.6834 15.4024 29.3166 15.7929 29.7071C16.1834 30.0976 16.8166 30.0976 17.2071 29.7071L31.2071 15.7071C31.3902 15.524 31.4874 15.2877 31.4989 15.048C31.4996 15.032 31.5 15.016 31.5 15M31.5 14.9908C31.4976 14.7379 31.4 14.4858 31.2071 14.2929L17.2071 0.292893" fill="white"/>
</g>
<defs>
<filter id="filter0_d_530_4849" x="0.5" y="0" width="31" height="30" filterUnits="userSpaceOnUse" color-interpolation-filters="sRGB">
<feFlood flood-opacity="0" result="BackgroundImageFix"/>
<feColorMatrix in="SourceAlpha" type="matrix" values="0 0 0 0 0 0 0 0 0 0 0 0 0 0 0 0 0 0 127 0" result="hardAlpha"/>
<feOffset dx="-1"/>
<feComposite in2="hardAlpha" operator="out"/>
<feColorMatrix type="matrix" values="0 0 0 0 0.933333 0 0 0 0 0.635294 0 0 0 0 0.054902 0 0 0 1 0"/>
<feBlend mode="normal" in2="BackgroundImageFix" result="effect1_dropShadow_530_4849"/>
<feBlend mode="normal" in="SourceGraphic" in2="effect1_dropShadow_530_4849" result="shape"/>
</filter>
</defs>
</svg>
