<svg width="40" height="40" viewBox="0 0 40 40" fill="none" xmlns="http://www.w3.org/2000/svg">
<path d="M13.3335 35C13.3335 32.643 13.3335 31.4645 14.0657 30.7322C14.798 30 15.9765 30 18.3335 30H21.6668C24.0238 30 25.2023 30 25.9347 30.7322C26.6668 31.4645 26.6668 32.643 26.6668 35V36.6667H13.3335V35Z" stroke="white" stroke-width="2.5" stroke-linecap="round" stroke-linejoin="round"/>
<path d="M20 21.667V30.0003" stroke="white" stroke-width="2.5" stroke-linecap="round" stroke-linejoin="round"/>
<path d="M10 36.667H30" stroke="white" stroke-width="2.5" stroke-linecap="round" stroke-linejoin="round"/>
<path d="M21.7277 4.7772L23.4875 8.3259C23.7273 8.81988 24.3673 9.29371 24.9073 9.38445L28.097 9.91876C30.1367 10.2615 30.6167 11.7536 29.1468 13.2255L26.6672 15.7257C26.2472 16.1491 26.0172 16.9657 26.1472 17.5505L26.857 20.6455C27.417 23.0953 26.1272 24.043 23.9773 22.7627L20.9877 20.9782C20.4478 20.6555 19.5578 20.6555 19.008 20.9782L16.0183 22.7627C13.8785 24.043 12.5787 23.0852 13.1386 20.6455L13.8485 17.5505C13.9785 16.9657 13.7485 16.1491 13.3286 15.7257L10.8488 13.2255C9.389 11.7536 9.85895 10.2615 11.8987 9.91876L15.0884 9.38445C15.6183 9.29371 16.2582 8.81988 16.4982 8.3259L18.258 4.7772C19.2178 2.85161 20.7777 2.85161 21.7277 4.7772Z" stroke="white" stroke-width="2.5" stroke-linecap="round" stroke-linejoin="round"/>
</svg>
