<svg width="40" height="40" viewBox="0 0 40 40" fill="none" xmlns="http://www.w3.org/2000/svg">
<path d="M26.6665 21.667C26.6665 23.0477 27.7858 24.167 29.1665 24.167C30.5472 24.167 31.6665 23.0477 31.6665 21.667C31.6665 20.2863 30.5472 19.167 29.1665 19.167C27.7858 19.167 26.6665 20.2863 26.6665 21.667Z" stroke="white" stroke-width="1.5"/>
<path d="M18.3335 31.6667H26.6668C31.3808 31.6667 33.7378 31.6667 35.2023 30.2022C36.6668 28.7377 36.6668 26.3807 36.6668 21.6667V20C36.6668 15.2859 36.6668 12.9289 35.2023 11.4645C34.1335 10.3956 32.5892 10.1069 30.0002 10.0289M30.0002 10.0289C29.0418 10 27.9403 10 26.6668 10H16.6668M30.0002 10.0289C30.0002 8.44862 30.0002 7.6585 29.7377 7.0368C29.4 6.23683 28.7633 5.60023 27.9633 5.26248C27.3417 5 26.5515 5 24.9713 5H16.6668C10.3814 5 7.23875 5 5.28611 6.95262C3.3335 8.90525 3.3335 10.3813 3.3335 16.6667" stroke="white" stroke-width="1.5" stroke-linecap="round"/>
<path d="M5.2085 32.5V22.5M8.3335 22.5V20M8.3335 35V32.5M5.2085 27.5H11.4585M11.4585 27.5C12.494 27.5 13.3335 28.3395 13.3335 29.375V30.625C13.3335 31.6605 12.494 32.5 11.4585 32.5H3.3335M11.4585 27.5C12.494 27.5 13.3335 26.6605 13.3335 25.625V24.375C13.3335 23.3395 12.494 22.5 11.4585 22.5H3.3335" stroke="white" stroke-width="1.5" stroke-linecap="round" stroke-linejoin="round"/>
</svg>
