<svg width="108" height="107" viewBox="0 0 108 107" fill="none" xmlns="http://www.w3.org/2000/svg">
<circle cx="54" cy="53.5005" r="53.0737" fill="#1B2351"/>
<g clip-path="url(#clip0_530_5975)">
<path d="M32.438 28.9268C32.8402 28.9268 33.2424 28.9268 33.6568 28.9268C33.6877 31.4327 33.7186 33.9386 33.7505 36.5205C34.5224 36.5137 35.2943 36.507 36.0895 36.5C36.6499 36.4952 37.2103 36.4903 37.7706 36.4856C38.4912 36.4794 39.2118 36.4732 39.9323 36.4668C42.778 36.4417 45.6235 36.4174 48.4693 36.4268C48.4662 36.3517 48.4631 36.2767 48.4599 36.1994C48.3612 33.7751 48.3659 31.3527 48.3755 28.9268C48.7777 28.9268 49.1799 28.9268 49.5943 28.9268C49.6221 30.4237 49.6484 31.9206 49.6715 33.4176C49.6808 34.0193 49.6909 34.621 49.7033 35.2227C49.7095 35.5439 49.7133 35.8652 49.7173 36.1865C49.7201 36.2959 49.7229 36.4053 49.7257 36.518C49.7265 36.6154 49.7272 36.7128 49.7279 36.8131C49.73 36.9341 49.73 36.9341 49.7321 37.0575C49.6707 37.3544 49.5527 37.4649 49.313 37.6455C49.0918 37.6821 49.0918 37.6821 48.8677 37.6689C48.7928 37.6656 48.7179 37.6622 48.6407 37.6587C48.5841 37.6543 48.5275 37.65 48.4693 37.6455C48.4721 37.6988 48.475 37.752 48.4779 37.8069C48.5095 38.4092 48.5377 39.0116 48.563 39.6143C48.5675 39.7151 48.5675 39.7151 48.572 39.8181C48.6156 40.9076 48.6156 40.9076 48.2818 41.3955C48.2199 41.4883 48.158 41.5811 48.0943 41.6768C48.3108 42.1099 48.5274 42.543 48.7505 42.9893C50.3483 42.364 51.9288 41.7024 53.5058 41.0268C54.416 40.6372 55.3291 40.2579 56.2505 39.8955C56.1405 39.7855 56.1405 39.7855 56.0282 39.6733C54.9583 38.6031 54.4423 37.6699 54.4396 36.1452C54.4582 35.0008 54.9435 34.1094 55.6997 33.2686C56.5573 32.4509 57.6834 32.1574 58.8341 32.1787C59.7346 32.2605 60.5194 32.5777 61.2193 33.1455C61.3072 33.216 61.3072 33.216 61.3969 33.288C62.1986 34.0058 62.5394 35.0028 62.6255 36.0518C62.6665 36.8663 62.6665 36.8663 62.5318 37.2705C62.6372 37.2263 62.7426 37.182 62.8512 37.1364C63.8128 36.733 64.7747 36.3303 65.737 35.9284C66.2583 35.7106 66.7794 35.4921 67.3 35.2725C67.5945 35.1485 67.8893 35.0252 68.1843 34.9021C68.3219 34.8444 68.4595 34.7864 68.5969 34.7282C68.7868 34.6477 68.9771 34.5683 69.1675 34.4891C69.3271 34.422 69.3271 34.422 69.49 34.3536C69.7505 34.2705 69.7505 34.2705 70.0318 34.3643C70.1219 34.5121 70.1219 34.5121 70.2004 34.7068C70.2458 34.817 70.2458 34.817 70.2921 34.9295C70.3243 35.0105 70.3564 35.0916 70.3896 35.175C70.4414 35.3019 70.4414 35.3019 70.4942 35.4313C70.6086 35.712 70.7215 35.9932 70.8345 36.2744C70.9145 36.4711 70.9945 36.6677 71.0747 36.8643C71.1986 37.1679 71.3223 37.4716 71.4457 37.7754C71.8108 38.6739 72.1834 39.5691 72.559 40.4632C72.6636 40.7123 72.7681 40.9615 72.8725 41.2106C73.0123 41.544 73.1521 41.8774 73.2919 42.2107C73.6392 43.0384 73.9859 43.8664 74.3326 44.6943C74.3667 44.7759 74.4009 44.8575 74.4361 44.9416C75.022 46.3411 75.6063 47.7412 76.19 49.1416C76.2292 49.2356 76.2684 49.3297 76.3088 49.4266C76.347 49.5182 76.3851 49.6098 76.4245 49.7042C76.4805 49.8386 76.4805 49.8386 76.5377 49.9757C76.6105 50.1506 76.6831 50.3255 76.7556 50.5005C76.9217 50.9011 77.089 51.301 77.2609 51.6991C77.2916 51.771 77.3222 51.8428 77.3538 51.9169C77.41 52.0486 77.4669 52.1799 77.5247 52.3109C77.8099 52.9842 77.8621 53.6704 77.6497 54.377C77.3517 55.0369 76.8493 55.4185 76.2193 55.7393C76.095 55.7734 75.9701 55.8055 75.8443 55.833C75.886 55.9461 75.9277 56.0592 75.9706 56.1758C76.0243 56.3271 76.0779 56.4785 76.1314 56.6299C76.159 56.7041 76.1866 56.7783 76.2151 56.8547C76.2536 56.9653 76.2536 56.9653 76.2929 57.0781C76.3169 57.1449 76.341 57.2117 76.3658 57.2805C76.4926 58.023 76.1818 58.8153 75.9889 59.524C75.9563 59.645 75.9237 59.7659 75.8911 59.8868C75.823 60.1393 75.7545 60.3916 75.6857 60.6439C75.5982 60.965 75.5118 61.2863 75.4257 61.6078C75.3587 61.8573 75.291 62.1067 75.2232 62.356C75.1757 62.5313 75.1287 62.7067 75.0818 62.8821C74.8861 63.5955 74.6822 64.2874 74.2622 64.9033C74.1267 65.1154 74.1267 65.1154 74.2271 65.3662C74.2658 65.4378 74.3044 65.5093 74.3443 65.583C74.493 65.8805 74.4493 66.2007 74.4472 66.5271C74.447 66.6391 74.447 66.6391 74.4468 66.7533C74.4462 66.9921 74.4451 67.2309 74.4439 67.4697C74.4434 67.6315 74.443 67.7932 74.4426 67.955C74.4416 68.3518 74.4399 68.7487 74.438 69.1455C74.5024 69.1422 74.5668 69.139 74.6332 69.1356C74.7177 69.1331 74.8022 69.1305 74.8892 69.1279C74.9729 69.1247 75.0567 69.1214 75.143 69.118C75.3755 69.1455 75.3755 69.1455 75.5277 69.2627C75.6869 69.465 75.6959 69.5735 75.7045 69.8289C75.7078 69.911 75.7111 69.9931 75.7145 70.0777C75.7177 70.2125 75.7177 70.2125 75.7209 70.35C75.724 70.4447 75.7271 70.5394 75.7303 70.637C75.7663 71.8719 75.7606 73.1075 75.7564 74.3428C75.7559 74.5859 75.7555 74.829 75.7551 75.0721C75.7541 75.6591 75.7525 76.246 75.7505 76.833C75.3483 76.833 74.9461 76.833 74.5318 76.833C74.4854 73.631 74.4854 73.631 74.438 70.3643C73.6112 70.371 72.7843 70.3778 71.9324 70.3848C71.335 70.3896 70.7376 70.3944 70.1402 70.3992C69.3704 70.4054 68.6006 70.4116 67.8308 70.418C67.2204 70.423 66.61 70.4279 65.9996 70.4328C65.6778 70.4353 65.3559 70.4379 65.0341 70.4406C63.2624 70.4554 61.491 70.4607 59.7193 70.458C59.7225 70.5315 59.7257 70.605 59.729 70.6808C59.7332 70.7775 59.7374 70.8742 59.7418 70.9738C59.746 71.0696 59.7502 71.1653 59.7545 71.264C59.8341 73.1198 59.8222 74.9759 59.813 76.833C59.4108 76.833 59.0086 76.833 58.5943 76.833C58.5806 76.1666 58.5673 75.5002 58.5542 74.8337C58.5498 74.6081 58.5452 74.3825 58.5406 74.1569C58.5271 73.5009 58.5153 72.845 58.5056 72.189C58.5022 71.9712 58.4983 71.7533 58.494 71.5354C58.4879 71.2232 58.4837 70.9109 58.48 70.5986C58.4778 70.5046 58.4757 70.4106 58.4734 70.3137C58.4728 70.2269 58.4721 70.1402 58.4714 70.0508C58.4696 69.9374 58.4696 69.9374 58.4678 69.8217C58.5091 69.5595 58.6009 69.431 58.7818 69.2393C59.0143 69.2026 59.0143 69.2026 59.2681 69.2158C59.3526 69.2192 59.437 69.2226 59.5241 69.2261C59.5885 69.2304 59.6529 69.2348 59.7193 69.2393C59.7125 69.1595 59.7057 69.0797 59.6988 68.9976C59.6436 68.2776 59.6111 67.559 59.6021 66.8369C59.6001 66.757 59.5981 66.6771 59.596 66.5948C59.5935 66.1427 59.6223 65.8608 59.9068 65.4893C59.9686 65.3964 60.0305 65.3036 60.0943 65.208C60.0265 65.0838 60.0265 65.0838 59.9573 64.9572C59.5909 64.2675 59.3294 63.6529 59.2505 62.8643C59.1035 62.9154 58.9571 62.9685 58.8111 63.0225C58.7295 63.0518 58.6479 63.0812 58.5639 63.1115C58.299 63.2297 58.299 63.2297 58.0918 63.4648C57.8022 63.7493 57.5003 63.9016 57.1353 64.0654C57.0614 64.0996 56.9874 64.1337 56.9112 64.1688C56.6292 64.2981 56.3462 64.425 56.063 64.5518C55.9699 64.5935 55.9699 64.5935 55.8749 64.6361C55.0186 65.0199 54.1621 65.4034 53.3027 65.7802C52.9587 65.9311 52.6163 66.0845 52.2762 66.2439C52.2096 66.2745 52.1431 66.3052 52.0745 66.3367C51.9499 66.3941 51.8258 66.4525 51.7023 66.5122C51.2541 66.7164 50.9203 66.7458 50.438 66.708C50.1592 66.5221 50.0827 66.3906 49.9751 66.0752C49.9685 65.7325 50.05 65.5312 50.1773 65.2194C50.4495 64.4804 50.3358 63.7773 50.063 63.0518C49.6527 62.3205 49.0695 61.8382 48.2818 61.5518C47.5655 61.3548 46.8951 61.4558 46.2193 61.7393C45.4343 62.2078 44.9562 62.8229 44.7193 63.708C44.5951 64.6377 44.783 65.2777 45.3081 66.0382C45.6619 66.4876 46.1118 66.8306 46.5577 67.1844C46.7818 67.3643 46.7818 67.3643 46.9693 67.5518C47.0332 68.2012 47.0332 68.2012 46.8274 68.5251C46.526 68.8423 46.219 68.9782 45.8216 69.1499C45.7443 69.1845 45.667 69.2191 45.5874 69.2547C45.3337 69.368 45.0792 69.4794 44.8247 69.5908C44.6485 69.669 44.4724 69.7473 44.2962 69.8257C43.9324 69.9875 43.5682 70.1487 43.2038 70.3094C42.6746 70.5433 42.1471 70.781 41.62 71.0198C41.3773 71.1295 41.1346 71.2391 40.8919 71.3487C40.7371 71.4187 40.5823 71.4888 40.4276 71.559C40.2123 71.6566 39.9966 71.7535 39.7809 71.8503C39.7179 71.8791 39.6549 71.9078 39.59 71.9374C39.2706 72.08 38.9721 72.1878 38.6255 72.2393C38.5865 72.1513 38.5474 72.0633 38.5072 71.9726C37.7242 70.2086 36.939 68.4456 36.1487 66.6849C35.8096 65.9292 35.4715 65.1731 35.1333 64.417C35.0657 64.2659 34.9982 64.1148 34.9306 63.9637C34.6902 63.4263 34.4499 62.889 34.2095 62.3516C34.0382 61.9685 33.8668 61.5853 33.6954 61.2022C33.5607 60.9011 33.4261 60.6001 33.2915 60.299C32.9662 59.5717 32.6405 58.8447 32.3132 58.1183C32.14 57.7339 31.9682 57.3488 31.7968 56.9635C31.6153 56.5558 31.4306 56.1497 31.2424 55.7451C31.1262 55.494 31.012 55.242 30.8981 54.9898C30.8438 54.8709 30.7888 54.7524 30.7328 54.6344C30.3211 53.7656 30.0778 52.8975 30.3482 51.9419C30.6029 51.3197 31.1761 50.8518 31.7818 50.5889C31.8746 50.556 31.9674 50.5231 32.063 50.4893C32.0506 50.436 32.0381 50.3827 32.0253 50.3278C32.0087 50.2554 31.9922 50.183 31.9751 50.1084C31.9588 50.0377 31.9425 49.967 31.9257 49.8942C31.8162 49.3515 31.7627 48.9343 31.907 48.3934C31.9368 48.2794 31.9666 48.1655 31.9973 48.0481C32.0309 47.9251 32.0645 47.8022 32.0982 47.6793C32.1325 47.551 32.1668 47.4227 32.2011 47.2943C32.2731 47.0254 32.346 46.7569 32.4196 46.4884C32.5127 46.1484 32.6034 45.8079 32.6934 45.467C32.7638 45.2016 32.8355 44.9365 32.9077 44.6714C32.9416 44.5462 32.9751 44.421 33.0081 44.2955C33.2237 43.4807 33.505 42.7821 33.9212 42.0543C34.0612 41.7777 34.0612 41.7777 33.962 41.5105C33.9232 41.4416 33.8843 41.3727 33.8443 41.3018C33.6955 41.0043 33.7392 40.6841 33.7414 40.3577C33.7415 40.283 33.7416 40.2084 33.7418 40.1315C33.7423 39.8927 33.7435 39.6538 33.7447 39.415C33.7451 39.2533 33.7456 39.0916 33.7459 38.9298C33.747 38.533 33.7486 38.1361 33.7505 37.7393C33.6539 37.7442 33.6539 37.7442 33.5553 37.7491C33.4709 37.7517 33.3864 37.7542 33.2994 37.7568C33.1737 37.7617 33.1737 37.7617 33.0456 37.7667C32.813 37.7393 32.813 37.7393 32.6608 37.6222C32.5012 37.4191 32.4926 37.3101 32.484 37.0537C32.4791 36.9283 32.4791 36.9283 32.474 36.8003C32.4709 36.6618 32.4709 36.6618 32.4677 36.5205C32.4646 36.4224 32.4615 36.3242 32.4582 36.2231C32.4205 34.8632 32.4275 33.5021 32.4316 32.1418C32.4326 31.7777 32.433 31.4137 32.4334 31.0497C32.4344 30.342 32.4361 29.6344 32.438 28.9268ZM56.2505 34.458C55.693 35.2811 55.6117 36.0009 55.688 36.9893C55.8807 37.7729 56.4291 38.4169 57.1001 38.8467C57.3274 38.9804 57.5397 39.0805 57.7857 39.1807C58.0318 39.333 58.0318 39.333 58.1724 39.6494C58.2247 40.0283 58.2342 40.1385 58.0318 40.458C57.7569 40.6322 57.4599 40.747 57.1587 40.8682C57.0196 40.9264 57.0196 40.9264 56.8776 40.9859C56.6067 41.0985 56.3351 41.2095 56.0631 41.3195C55.8628 41.4007 55.6626 41.4822 55.4625 41.5638C54.7891 41.8382 54.1153 42.1115 53.441 42.3833C52.4984 42.7634 51.5598 43.1517 50.6255 43.5518C50.6255 43.9471 50.7994 44.2523 50.9617 44.605C50.9967 44.6821 51.0316 44.7592 51.0677 44.8387C51.1427 45.004 51.2179 45.1691 51.2934 45.3342C51.4883 45.7606 51.6816 46.1877 51.875 46.6147C51.9131 46.6986 51.9511 46.7825 51.9904 46.8689C52.4218 47.8207 52.8386 48.7788 53.2505 49.7393C53.5051 49.423 53.5051 49.423 53.7522 49.101C54.3439 48.3442 55.2245 47.9262 56.1451 47.7061C57.4759 47.573 58.5884 47.8423 59.6431 48.6842C60.4875 49.4535 60.8395 50.4162 60.927 51.53C60.9631 52.7286 60.6054 53.77 59.8324 54.6835C58.989 55.5478 57.9546 55.8219 56.7837 55.8857C56.7143 55.8898 56.6449 55.8938 56.5733 55.898C56.4032 55.9079 56.2331 55.9174 56.063 55.9268C56.64 57.2871 57.2331 58.6402 57.8309 59.9915C57.8607 60.0587 57.8904 60.1259 57.921 60.1952C57.9767 60.3211 58.0325 60.4471 58.0883 60.573C58.2598 60.9606 58.428 61.3494 58.5943 61.7393C59.185 61.5521 59.7551 61.3341 60.3246 61.0903C60.4079 61.055 60.4912 61.0197 60.577 60.9833C60.7553 60.9077 60.9335 60.8319 61.1117 60.7559C61.5856 60.554 62.06 60.3531 62.5343 60.1521C62.6298 60.1116 62.7252 60.0711 62.8236 60.0294C63.6212 59.6912 64.4203 59.3567 65.2203 59.0241C65.4252 58.9389 65.6301 58.8536 65.8349 58.7682C66.4432 58.5147 67.0517 58.262 67.6612 58.0118C67.9322 57.9003 68.203 57.7883 68.4738 57.6762C68.6005 57.6239 68.7272 57.572 68.8541 57.5203C69.0281 57.4494 69.2016 57.3775 69.3752 57.3055C69.473 57.2654 69.5708 57.2253 69.6716 57.1839C69.9606 57.0406 70.1802 56.9075 70.4068 56.6768C70.4522 56.4391 70.4522 56.4391 70.4042 56.1802C70.3914 56.0805 70.3786 55.9809 70.3654 55.8782C70.3481 55.7705 70.3308 55.6628 70.313 55.5518C70.2954 55.4397 70.2777 55.3276 70.2595 55.2121C70.2099 54.9112 70.1582 54.6107 70.1055 54.3104C69.5295 50.9924 69.5295 50.9924 70.4394 49.629C70.9439 49.0721 71.5827 48.8412 72.3111 48.7725C72.8237 48.8159 73.2133 48.9868 73.5817 49.3485C73.8792 49.7901 74.0059 50.2685 74.1604 50.7749C74.212 50.939 74.212 50.939 74.2647 51.1064C74.3742 51.4551 74.4824 51.8042 74.5904 52.1533C74.6991 52.5038 74.8081 52.8541 74.9181 53.2042C74.9864 53.422 75.054 53.6399 75.1209 53.8581C75.1516 53.9561 75.1823 54.054 75.2139 54.1549C75.254 54.2849 75.254 54.2849 75.295 54.4175C75.3571 54.6307 75.3571 54.6307 75.563 54.708C75.7471 54.6251 75.7471 54.6251 75.938 54.4971C76.0038 54.456 76.0695 54.4149 76.1372 54.3726C76.3576 54.2055 76.4863 54.0513 76.5288 53.7729C76.5317 53.2381 76.4328 52.8359 76.2178 52.3492C76.1724 52.2415 76.1724 52.2415 76.1262 52.1316C76.0258 51.8941 75.9233 51.6575 75.8208 51.4209C75.7487 51.2512 75.6767 51.0815 75.6049 50.9116C75.4521 50.5507 75.2986 50.19 75.1446 49.8296C74.7882 48.9939 74.441 48.1544 74.0928 47.3154C73.8952 46.8398 73.697 46.3645 73.4987 45.8893C73.4596 45.7955 73.4205 45.7018 73.3802 45.6052C72.8087 44.2355 72.2354 42.8664 71.6618 41.4975C71.4393 40.9664 71.2171 40.4351 70.9951 39.9038C70.8402 39.5332 70.6853 39.1627 70.5304 38.7921C70.4567 38.6159 70.3831 38.4398 70.3096 38.2636C70.2075 38.0192 70.1054 37.7748 70.0032 37.5305C69.9736 37.4595 69.944 37.3885 69.9135 37.3153C69.7097 36.8285 69.4978 36.3457 69.2818 35.8643C68.664 36.06 68.0662 36.2901 67.4683 36.5396C67.3775 36.5771 67.2868 36.6147 67.1933 36.6534C66.905 36.7729 66.6168 36.8928 66.3286 37.0127C66.1382 37.0917 65.9478 37.1707 65.7574 37.2496C65.6641 37.2883 65.5709 37.327 65.4748 37.3669C65.289 37.4439 65.1031 37.5208 64.9171 37.5976C64.4961 37.7716 64.0762 37.9473 63.659 38.1302C63.5873 38.1611 63.5157 38.192 63.4418 38.2238C63.3115 38.2802 63.1815 38.3375 63.0522 38.3962C62.6006 38.5896 62.2639 38.6379 61.7818 38.583C61.5493 38.4267 61.5493 38.4267 61.4068 38.208C61.3672 37.9723 61.3672 37.9723 61.3767 37.7089C61.3798 37.5641 61.3798 37.5641 61.383 37.4164C61.387 37.3161 61.3909 37.2157 61.3951 37.1123C61.4312 36.0216 61.4112 35.121 60.6568 34.2705C59.9371 33.648 59.2568 33.3756 58.3039 33.3978C57.4797 33.4855 56.7917 33.8297 56.2505 34.458ZM45.4807 37.6484C45.2867 37.6498 45.0927 37.6512 44.8986 37.6526C44.7381 37.6538 44.7381 37.6538 44.5744 37.6549C43.6009 37.662 42.6273 37.6695 41.6538 37.6773C40.9353 37.683 40.2168 37.6885 39.4984 37.6935C38.9303 37.6975 38.3623 37.702 37.7942 37.7067C37.5528 37.7086 37.3114 37.7104 37.0699 37.712C36.7342 37.7142 36.3984 37.717 36.0627 37.72C35.912 37.7208 35.912 37.7208 35.7583 37.7216C35.6221 37.723 35.6221 37.723 35.4831 37.7244C35.4038 37.725 35.3245 37.7256 35.2427 37.7263C35.0622 37.7196 35.0622 37.7196 34.9693 37.833C34.9599 38.0399 34.957 38.247 34.9568 38.4541C34.9567 38.5162 34.9566 38.5782 34.9566 38.6422C34.9565 38.7737 34.9567 38.9051 34.9571 39.0366C34.9576 39.2384 34.9571 39.4402 34.9565 39.6421C34.9565 39.7695 34.9566 39.897 34.9568 40.0244C34.9569 40.1412 34.957 40.2579 34.9571 40.3782C34.9387 40.636 34.9387 40.636 35.063 40.7393C35.2881 40.749 35.5103 40.7523 35.7354 40.7517C35.8094 40.7518 35.8834 40.752 35.9596 40.7521C36.2154 40.7523 36.4713 40.7517 36.7271 40.751C36.8606 40.7509 36.8606 40.7509 36.9969 40.7507C40.4461 40.7471 43.8954 40.6903 47.3443 40.6455C47.3443 39.6864 47.3443 38.7274 47.3443 37.7393C47.1008 37.6175 46.9256 37.6362 46.6534 37.6392C46.5518 37.6401 46.4502 37.6409 46.3456 37.6418C46.0573 37.6452 45.769 37.647 45.4807 37.6484ZM37.4856 41.8462C36.2071 41.7597 36.2071 41.7597 35.0359 42.1578C34.792 42.5211 34.7009 42.85 34.5943 43.2705C34.5312 43.476 34.4673 43.6813 34.4027 43.8864C34.2003 44.549 34.0219 45.2162 33.8474 45.8865C33.7804 46.1421 33.7113 46.3972 33.6421 46.6523C33.5592 46.9592 33.4776 47.2665 33.396 47.5739C33.3503 47.7441 33.3503 47.7441 33.3037 47.9177C33.2761 48.0242 33.2485 48.1307 33.2201 48.2403C33.1957 48.3332 33.1713 48.426 33.1462 48.5217C33.0376 49.1076 33.1037 49.5689 33.2877 50.1316C33.3083 50.1954 33.3289 50.2593 33.3501 50.325C33.4178 50.5342 33.4869 50.743 33.5561 50.9518C33.6038 51.0983 33.6515 51.2448 33.6991 51.3913C33.8243 51.7761 33.9508 52.1606 34.0774 52.5449C34.1802 52.8575 34.2821 53.1702 34.384 53.4831C34.5062 53.8581 34.6287 54.2331 34.7514 54.608C34.7745 54.6787 34.7976 54.7495 34.8215 54.8223C34.9627 55.2536 35.1058 55.6841 35.2505 56.1143C35.2922 56.241 35.2922 56.241 35.3347 56.3702C35.4084 56.5926 35.4084 56.5926 35.5318 56.8643C35.8769 57.01 36.0371 56.9786 36.3872 56.8525C36.8723 56.5362 37.0652 56.1944 37.2193 55.6455C37.3568 54.3397 37.0663 53.0356 36.8443 51.7549C36.808 51.5404 36.7719 51.3259 36.7359 51.1115C36.6483 50.5913 36.5593 50.0715 36.4693 49.5518C36.545 49.5094 36.6207 49.4671 36.6987 49.4234C36.8489 49.338 36.8489 49.338 37.0021 49.2507C37.101 49.1949 37.1999 49.139 37.3018 49.0814C37.7876 48.7726 38.2952 48.3592 38.542 47.8279C38.7936 47.4804 39.0902 47.373 39.4781 47.2076C39.554 47.1739 39.63 47.1402 39.7083 47.1054C39.9562 46.9957 40.2049 46.888 40.4536 46.7803C40.6256 46.7046 40.7975 46.6288 40.9693 46.5528C41.3116 46.4018 41.6541 46.2515 41.997 46.1019C42.5024 45.8813 43.0062 45.6572 43.5097 45.4324C43.8065 45.2999 44.1035 45.168 44.4007 45.0364C45.0178 44.7629 45.6346 44.4888 46.2513 44.2146C46.5232 44.0937 46.7951 43.9729 47.0671 43.8521C47.157 43.8121 47.2469 43.7721 47.3396 43.7309C47.4347 43.6886 47.4347 43.6886 47.5318 43.6455C47.4878 43.156 47.3847 42.845 47.1099 42.4385C47.0509 42.3498 46.9919 42.2611 46.9312 42.1697C46.7996 41.9705 46.7996 41.9705 46.688 41.8643C46.4375 41.8548 46.1894 41.8515 45.9389 41.8521C45.8602 41.852 45.7815 41.8518 45.7004 41.8516C45.4374 41.8512 45.1745 41.8515 44.9115 41.8518C44.7271 41.8517 44.5427 41.8517 44.3583 41.8515C43.9691 41.8514 43.5798 41.8516 43.1905 41.852C42.7966 41.8525 42.4027 41.8525 42.0087 41.852C40.9781 41.851 39.9477 41.8535 38.9171 41.8625C38.4394 41.8657 37.9631 41.8611 37.4856 41.8462ZM48.6709 44.3522C48.6008 44.384 48.5306 44.4157 48.4584 44.4485C48.3828 44.4836 48.3073 44.5187 48.2294 44.5548C48.1499 44.591 48.0704 44.6273 47.9885 44.6646C47.7286 44.7832 47.469 44.9029 47.2095 45.0225C47.0295 45.1048 46.8495 45.187 46.6695 45.2691C46.31 45.4332 45.9507 45.5975 45.5915 45.7621C44.9488 46.0561 44.304 46.3454 43.6587 46.6338C43.5003 46.705 43.5003 46.705 43.3387 46.7776C42.8314 47.0054 42.3235 47.2313 41.8136 47.4532C41.5614 47.5631 41.3095 47.6738 41.0577 47.7845C40.938 47.8369 40.8181 47.8889 40.6981 47.9405C40.5322 48.0117 40.3669 48.0844 40.2017 48.1572C40.1076 48.1981 40.0134 48.2389 39.9164 48.281C39.4821 48.5248 39.1878 48.8886 38.8775 49.2705C38.5569 49.6433 38.208 49.8771 37.7818 50.1143C37.839 51.1384 38 52.1342 38.1822 53.1421C38.4249 54.5598 38.5509 56.0335 37.7173 57.292C37.3054 57.7826 36.7597 57.9735 36.1411 58.0771C35.6901 58.1087 35.2661 58.0348 34.8755 57.8018C34.3407 57.2913 34.1858 56.6673 33.9713 55.9744C33.9322 55.8511 33.8929 55.7279 33.8536 55.6047C33.7508 55.2824 33.6497 54.9595 33.5489 54.6366C33.4455 54.3063 33.3406 53.9765 33.2358 53.6467C33.0309 53.0009 32.8277 52.3547 32.6255 51.708C32.1187 51.7753 32.1187 51.7753 31.7525 52.1064C31.6834 52.1884 31.6834 52.1884 31.6129 52.272C31.4759 52.4987 31.4366 52.6629 31.4068 52.9268C31.6594 53.9053 32.1886 54.8581 32.6077 55.7752C32.8086 56.2148 33.0083 56.6549 33.2082 57.095C33.2475 57.1815 33.2869 57.268 33.3274 57.3572C33.632 58.0273 33.933 58.699 34.231 59.3721C34.6683 60.3594 35.1082 61.3455 35.5494 62.3311C35.5829 62.4061 35.6165 62.4812 35.6512 62.5585C35.7884 62.8652 35.9257 63.1718 36.063 63.4785C36.3393 64.0957 36.6155 64.713 36.8915 65.3304C37.0592 65.7053 37.2269 66.0802 37.3948 66.455C37.679 67.0897 37.9631 67.7246 38.2449 68.3604C38.3586 68.617 38.4726 68.8734 38.5867 69.1297C38.6394 69.2484 38.6919 69.3672 38.7443 69.486C38.8155 69.6476 38.8873 69.8089 38.9591 69.9702C38.9991 70.0605 39.039 70.1507 39.0802 70.2437C39.1796 70.4692 39.1796 70.4692 39.3755 70.6455C40.8226 70.0036 42.2686 69.3594 43.7128 68.7111C44.2978 68.4485 44.883 68.1865 45.4693 67.9268C45.4074 67.8649 45.3455 67.803 45.2818 67.7393C45.2391 67.6961 45.1965 67.653 45.1525 67.6085C45.0443 67.5014 44.9339 67.3963 44.8222 67.2928C44.0671 66.5784 43.5582 65.7976 43.469 64.7411C43.4402 63.4139 43.7055 62.3717 44.6255 61.3643C45.6142 60.4821 46.6599 60.2498 47.95 60.2971C48.9541 60.3629 49.8778 60.8365 50.5552 61.5811C51.2304 62.4325 51.4833 63.2927 51.5279 64.3643C51.5315 64.4369 51.5351 64.5095 51.5389 64.5844C51.5476 64.761 51.5554 64.9376 51.563 65.1143C52.168 64.9261 52.7416 64.6957 53.3175 64.4324C53.4015 64.3943 53.4855 64.3563 53.572 64.3171C53.7485 64.2371 53.9249 64.1569 54.1012 64.0765C54.3684 63.9547 54.6359 63.8335 54.9034 63.7124C55.076 63.6341 55.2485 63.5557 55.4211 63.4773C55.4997 63.4416 55.5783 63.406 55.6594 63.3692C55.8883 63.2647 56.1165 63.1587 56.3443 63.0518C56.4299 63.0119 56.5154 62.972 56.6036 62.9309C56.6879 62.8904 56.7722 62.85 56.859 62.8084C56.9355 62.772 57.012 62.7356 57.0908 62.6981C57.3094 62.5848 57.3094 62.5848 57.4693 62.3018C57.4421 61.8028 57.2368 61.3861 57.0302 60.9398C56.9954 60.8631 56.9605 60.7865 56.9246 60.7074C56.8502 60.5438 56.7756 60.3803 56.7006 60.217C56.584 59.9627 56.4682 59.708 56.3527 59.4532C56.2007 59.1179 56.0485 58.7826 55.8961 58.4475C55.6346 57.8721 55.375 57.2959 55.1197 56.7178C55.0823 56.6351 55.045 56.5523 55.0065 56.4671C54.8177 56.0371 54.6826 55.6525 54.6568 55.1768C54.7633 54.954 54.8578 54.7882 55.0318 54.6143C55.2024 54.6028 55.3735 54.5974 55.5445 54.5945C55.6503 54.5918 55.7562 54.5892 55.8653 54.5864C56.0879 54.5816 56.3106 54.5774 56.5332 54.574C57.4808 54.5482 58.1936 54.4305 58.8953 53.7665C59.4456 53.1645 59.7744 52.4687 59.7486 51.6362C59.6342 50.8185 59.2547 50.0163 58.5987 49.502C57.8509 49.0111 57.1353 48.9042 56.2505 48.9893C55.9387 49.0729 55.682 49.1968 55.4068 49.3643C55.3085 49.4223 55.3085 49.4223 55.2083 49.4814C54.5803 49.8985 54.2191 50.4898 53.9829 51.1982C53.9452 51.3114 53.9452 51.3114 53.9068 51.4268C53.5726 51.5382 53.3203 51.5451 52.9693 51.5205C52.6194 51.3206 52.5032 51.0979 52.3504 50.7317C52.2826 50.5721 52.2826 50.5721 52.2136 50.4094C52.1897 50.3519 52.1659 50.2945 52.1414 50.2353C52.0657 50.0526 51.9886 49.8704 51.9112 49.6884C51.8265 49.4895 51.742 49.2906 51.6578 49.0915C51.3071 48.2623 50.9475 47.4369 50.5865 46.612C50.4743 46.355 50.3626 46.0977 50.251 45.8403C50.1813 45.6807 50.1116 45.5211 50.0418 45.3616C50.0102 45.2883 49.9786 45.2151 49.946 45.1397C49.7349 44.6362 49.7349 44.6362 49.4068 44.208C49.068 44.208 48.959 44.2199 48.6709 44.3522ZM71.2271 50.5361C70.7828 51.4248 70.8758 52.3188 71.0418 53.2681C71.0608 53.3851 71.0798 53.5021 71.0993 53.6227C71.1495 53.9299 71.2013 54.2368 71.2538 54.5437C71.3072 54.8584 71.3586 55.1734 71.4102 55.4884C71.5113 56.1036 71.6145 56.7184 71.7193 57.333C71.6144 57.3889 71.6144 57.3889 71.5075 57.446C71.4153 57.4956 71.3231 57.5452 71.2282 57.5963C71.137 57.6452 71.0459 57.6941 70.9519 57.7444C69.9224 58.3338 69.4147 59.2936 68.9068 60.333C68.5268 60.2181 68.2089 60.08 67.8755 59.8643C67.9219 59.7753 67.9683 59.6864 68.0161 59.5947C68.1703 59.3277 68.1703 59.3277 68.1568 59.1143C67.5931 59.2947 67.0444 59.4971 66.4986 59.7255C66.4227 59.7569 66.3469 59.7884 66.2688 59.8208C66.023 59.9229 65.7774 60.0254 65.5318 60.1279C65.3613 60.1989 65.1908 60.2698 65.0204 60.3407C63.4689 60.9867 61.9212 61.6419 60.3755 62.3018C60.4687 62.9294 60.5843 63.4613 60.8794 64.0244C60.9343 64.1315 60.9892 64.2386 61.0457 64.3489C61.103 64.4468 61.1603 64.5447 61.2193 64.6455C61.2631 64.7276 61.307 64.8096 61.3521 64.8942C61.7372 65.2442 62.1387 65.1834 62.6419 65.1824C62.7488 65.1839 62.8557 65.1855 62.9659 65.1871C63.3199 65.1916 63.6737 65.1925 64.0277 65.193C64.2737 65.1945 64.5196 65.1961 64.7655 65.1977C65.2813 65.2007 65.7971 65.2014 66.3129 65.2011C66.9083 65.2008 67.5034 65.2058 68.0987 65.2132C68.6723 65.2201 69.2457 65.2217 69.8193 65.2215C70.0629 65.222 70.3065 65.2241 70.5501 65.2277C70.8912 65.2323 71.2317 65.231 71.5727 65.2281C71.7235 65.2321 71.7235 65.2321 71.8772 65.2361C72.2991 65.2272 72.5534 65.216 72.8622 64.9122C73.0328 64.6734 73.1772 64.4368 73.313 64.1768C73.351 64.1042 73.389 64.0317 73.4282 63.9569C73.7154 63.3778 73.8669 62.7472 74.0323 62.1252C74.0629 62.0115 74.0936 61.8977 74.1252 61.7805C74.2059 61.4803 74.2859 61.18 74.3657 60.8796C74.4309 60.6351 74.4973 60.3909 74.5636 60.1467C74.6432 59.8533 74.7214 59.5596 74.7998 59.2659C74.8294 59.1571 74.859 59.0483 74.8895 58.9362C74.9164 58.8338 74.9434 58.7315 74.9711 58.6261C74.995 58.5368 75.0188 58.4475 75.0434 58.3556C75.1498 57.7852 75.0892 57.3294 74.9094 56.7819C74.8897 56.7212 74.8701 56.6604 74.8498 56.5978C74.7851 56.3986 74.7191 56.1999 74.653 56.0011C74.6073 55.8614 74.5618 55.7216 74.5163 55.5819C74.3966 55.2147 74.2757 54.8479 74.1546 54.4811C74.0083 54.0377 73.8634 53.5939 73.7183 53.1502C73.6053 52.8044 73.492 52.4586 73.3781 52.1131C73.3467 52.0176 73.3467 52.0176 73.3146 51.9201C73.2551 51.7393 73.1955 51.5586 73.1359 51.3778C73.0206 51.0166 72.9176 50.6532 72.8227 50.2862C72.7546 50.0795 72.7546 50.0795 72.4693 49.9268C71.919 49.8375 71.5795 50.1445 71.2271 50.5361ZM60.8443 66.333C60.7992 67.7484 60.7992 67.7484 60.938 69.1455C62.2885 69.1477 63.639 69.1494 64.9895 69.1504C65.6167 69.1508 66.244 69.1515 66.8713 69.1526C67.4779 69.1536 68.0846 69.1542 68.6912 69.1544C68.9213 69.1546 69.1514 69.1549 69.3815 69.1554C70.6963 69.1582 72.0007 69.1344 73.313 69.0518C73.2821 68.1546 73.2511 67.2574 73.2193 66.333C69.1355 66.333 65.0518 66.333 60.8443 66.333Z" fill="white"/>
<path d="M34.9692 72.4268C35.3478 72.5473 35.6661 72.6792 36.0005 72.8955C35.9102 73.4551 35.6547 73.9164 35.4028 74.4189C35.3564 74.5144 35.31 74.6099 35.2622 74.7083C35.1944 74.8442 35.1944 74.8442 35.1252 74.9829C35.0841 75.0658 35.043 75.1488 35.0006 75.2342C34.8755 75.4268 34.8755 75.4268 34.5942 75.5205C34.3617 75.4271 34.3617 75.4271 34.1079 75.292C34.0234 75.2476 33.939 75.2033 33.8519 75.1576C33.7875 75.1227 33.7231 75.0877 33.6567 75.0518C33.7746 74.6707 33.9157 74.332 34.1086 73.9832C34.1588 73.8919 34.2089 73.8007 34.2606 73.7067C34.3127 73.613 34.3648 73.5193 34.4185 73.4229C34.4713 73.327 34.5241 73.2312 34.5785 73.1324C34.7083 72.897 34.8386 72.6618 34.9692 72.4268Z" fill="white"/>
<path d="M74.438 30.5205C74.8877 30.6037 75.1735 30.7525 75.563 30.9893C75.404 31.5523 75.1312 32.0505 74.8599 32.5654C74.7897 32.7013 74.7897 32.7013 74.7181 32.8399C74.6731 32.9259 74.628 33.0119 74.5815 33.1005C74.5405 33.1789 74.4995 33.2573 74.4572 33.3381C74.3442 33.5205 74.3442 33.5205 74.1567 33.6143C73.9333 33.5004 73.9333 33.5004 73.6763 33.3389C73.5909 33.2858 73.5056 33.2328 73.4177 33.1781C73.3522 33.1364 73.2867 33.0947 73.2192 33.0518C73.3778 32.4845 73.6583 31.9864 73.9341 31.4697C73.9824 31.3784 74.0308 31.287 74.0806 31.1929C74.1993 30.9685 74.3185 30.7444 74.438 30.5205Z" fill="white"/>
<path d="M66.2817 30.4268C66.4657 30.7762 66.6492 31.1259 66.8325 31.4756C66.8846 31.5745 66.9367 31.6734 66.9904 31.7753C67.0656 31.919 67.0656 31.919 67.1423 32.0656C67.1885 32.1534 67.2346 32.2413 67.2822 32.3319C67.3994 32.5682 67.5001 32.8055 67.5942 33.0518C67.4445 33.133 67.2939 33.2128 67.1431 33.292C67.0593 33.3366 66.9756 33.3812 66.8893 33.4271C66.6567 33.5205 66.6567 33.5205 66.3755 33.4268C66.2317 33.201 66.2317 33.201 66.0814 32.9049C66.0273 32.7995 65.9733 32.694 65.9175 32.5854C65.8612 32.4733 65.8049 32.3612 65.7485 32.249C65.6912 32.1365 65.6338 32.024 65.5762 31.9116C65.4356 31.6358 65.2958 31.3596 65.1567 31.083C65.4498 30.7823 65.8423 30.4268 66.2817 30.4268Z" fill="white"/>
<path d="M42.8442 72.4268C43.0207 72.7548 43.1959 73.0834 43.37 73.4127C43.4294 73.5246 43.4892 73.6364 43.5493 73.7479C43.6356 73.9083 43.7205 74.0693 43.8055 74.2303C43.857 74.3271 43.9086 74.4238 43.9617 74.5234C44.0629 74.7705 44.0629 74.7705 43.9692 75.0518C43.8091 75.1646 43.8091 75.1646 43.6117 75.2627C43.5473 75.296 43.4829 75.3294 43.4165 75.3638C43.1719 75.4418 43.0804 75.4328 42.8442 75.333C42.6968 75.1203 42.6968 75.1203 42.5581 74.8416C42.4832 74.6916 42.4832 74.6916 42.4067 74.5387C42.3303 74.3808 42.3303 74.3808 42.2524 74.2197C42.1996 74.1152 42.1469 74.0107 42.0925 73.903C41.7068 73.1202 41.7068 73.1202 41.8129 72.8018C41.9762 72.6923 41.9762 72.6923 42.1762 72.5967C42.2417 72.5644 42.3072 72.5321 42.3747 72.4989C42.5629 72.4268 42.5629 72.4268 42.8442 72.4268Z" fill="white"/>
<path d="M38.2505 74.0205C38.6527 74.0205 39.0549 74.0205 39.4692 74.0205C39.4714 74.3892 39.4733 74.7579 39.4744 75.1266C39.4751 75.3136 39.4763 75.5006 39.4775 75.6877C39.4778 75.8052 39.4781 75.9227 39.4784 76.0438C39.4789 76.1523 39.4794 76.2608 39.4799 76.3726C39.4692 76.6455 39.4692 76.6455 39.3755 76.9268C39.0042 76.9268 38.633 76.9268 38.2505 76.9268C38.2505 75.9677 38.2505 75.0086 38.2505 74.0205Z" fill="white"/>
<path d="M69.7505 29.0205C70.1527 29.0205 70.5549 29.0205 70.9692 29.0205C70.9718 29.3643 70.9736 29.708 70.9751 30.0518C70.9759 30.1483 70.9767 30.2449 70.9775 30.3444C70.9792 30.8815 70.9566 31.3956 70.8755 31.9268C70.4733 31.9268 70.0711 31.9268 69.6567 31.9268C69.6877 30.9677 69.7186 30.0086 69.7505 29.0205Z" fill="white"/>
</g>
<defs>
<clipPath id="clip0_530_5975">
<rect width="48" height="48" fill="white" transform="translate(30.0005 28.9268)"/>
</clipPath>
</defs>
</svg>
