<svg width="107" height="108" viewBox="0 0 107 108" fill="none" xmlns="http://www.w3.org/2000/svg">
<circle cx="53.5" cy="54.0005" r="53.0737" fill="#1B2351"/>
<g clip-path="url(#clip0_530_4840)">
<path d="M32.7208 29.9513C32.8474 29.9508 32.9739 29.9501 33.1005 29.9493C33.4416 29.9476 33.7827 29.9483 34.1238 29.9495C34.4827 29.9504 34.8416 29.9495 35.2005 29.949C35.8033 29.9483 36.4061 29.9492 37.0088 29.951C37.7028 29.953 38.3968 29.9523 39.0908 29.9503C39.6893 29.9486 40.2879 29.9483 40.8864 29.9493C41.2427 29.9499 41.5989 29.95 41.9552 29.9487C42.2907 29.9476 42.6261 29.9484 42.9615 29.9506C43.1412 29.9513 43.3209 29.9502 43.5006 29.949C45.1086 29.9645 46.2628 30.5807 47.4197 31.6573C47.8262 32.0311 48.2555 32.3751 48.6875 32.7186C48.7818 32.7947 48.876 32.8709 48.9732 32.9493C49.116 33.0613 49.116 33.0613 49.2617 33.1756C49.347 33.2431 49.4324 33.3105 49.5203 33.38C50.2 33.8041 50.86 33.8848 51.6483 33.8791C51.7448 33.8795 51.8414 33.8799 51.9408 33.8804C52.2625 33.8815 52.5842 33.8806 52.9059 33.8797C53.1372 33.8801 53.3686 33.8806 53.5999 33.8812C54.0973 33.8823 54.5947 33.8826 55.0921 33.8821C55.8122 33.8815 56.5323 33.8826 57.2525 33.8843C58.4223 33.887 59.5922 33.8886 60.7621 33.8894C60.867 33.8895 60.867 33.8895 60.974 33.8896C61.4703 33.8899 61.9666 33.8902 62.4629 33.8905C63.0297 33.8908 63.5964 33.8911 64.1632 33.8915C64.233 33.8916 64.3028 33.8916 64.3748 33.8917C65.5403 33.8925 66.7059 33.8944 67.8715 33.8971C68.5895 33.8987 69.3075 33.8993 70.0255 33.8987C70.576 33.8982 71.1264 33.8992 71.6769 33.9007C71.9022 33.9011 72.1276 33.901 72.3529 33.9003C72.661 33.8996 72.9691 33.9005 73.2773 33.9019C73.3659 33.9012 73.4545 33.9006 73.5458 33.8999C74.4981 33.908 75.332 34.1577 76.0625 34.7811C76.9363 35.6973 77.0419 36.5394 77.0364 37.7649C77.0367 37.9068 77.0373 38.0487 77.0379 38.1906C77.0392 38.5794 77.0388 38.9682 77.0382 39.357C77.0377 39.7767 77.0389 40.1964 77.0398 40.6162C77.0415 41.4381 77.0415 42.2599 77.041 43.0818C77.0407 43.7499 77.0408 44.418 77.0413 45.0861C77.0414 45.1813 77.0414 45.2764 77.0415 45.3744C77.0417 45.5676 77.0418 45.7608 77.0419 45.9541C77.0432 47.7659 77.0427 49.5778 77.0416 51.3896C77.0407 53.0467 77.0419 54.7038 77.0442 56.3609C77.0465 58.0629 77.0474 59.7649 77.0467 61.467C77.0464 62.4223 77.0466 63.3777 77.0483 64.333C77.0496 65.1463 77.0497 65.9596 77.0481 66.7729C77.0473 67.1877 77.0471 67.6024 77.0485 68.0172C77.0498 68.3973 77.0493 68.7773 77.0475 69.1574C77.0472 69.2945 77.0475 69.4317 77.0484 69.5688C77.0564 70.7653 76.8502 71.5734 76.0167 72.4496C75.3771 73.0106 74.6946 73.2308 73.8582 73.2292C73.7676 73.2293 73.7676 73.2293 73.6752 73.2293C73.4763 73.2292 73.2775 73.2285 73.0786 73.2278C72.9404 73.2276 72.8022 73.2274 72.6641 73.2274C72.3009 73.227 71.9378 73.2261 71.5747 73.225C71.204 73.2241 70.8332 73.2236 70.4624 73.2232C69.7354 73.2222 69.0083 73.2206 68.2813 73.2186C68.2817 73.2889 68.2822 73.3592 68.2827 73.4317C68.2833 73.5705 68.2833 73.5705 68.2839 73.712C68.2844 73.8036 68.2848 73.8952 68.2853 73.9896C68.2686 75.0569 67.912 75.9645 67.209 76.7577C67.1297 76.8273 67.0504 76.8969 66.9688 76.9686C66.9251 77.0136 66.8815 77.0585 66.8366 77.1048C65.8158 78.098 64.5163 78.0676 63.1903 78.059C63.0006 78.0595 62.8109 78.0602 62.6212 78.061C62.1093 78.0628 61.5974 78.0616 61.0855 78.0597C60.5481 78.0582 60.0106 78.059 59.4732 78.0595C58.5712 78.0599 57.6692 78.0584 56.7672 78.0558C55.7262 78.0528 54.6851 78.0528 53.6441 78.0544C52.64 78.0559 51.6359 78.0553 50.6318 78.0537C50.2056 78.053 49.7794 78.0531 49.3533 78.0538C48.8511 78.0545 48.3489 78.0534 47.8467 78.0508C47.663 78.0502 47.4793 78.0502 47.2956 78.0509C45.7967 78.0557 44.7334 77.8786 43.6276 76.7859C43.2574 76.3858 42.9843 75.9747 42.7813 75.4686C42.749 75.3899 42.7167 75.3113 42.6834 75.2302C42.5701 74.8205 42.5733 74.4496 42.582 74.0272C42.5829 73.9492 42.5837 73.8713 42.5846 73.791C42.5868 73.6002 42.5902 73.4094 42.5938 73.2186C42.5377 73.2189 42.4816 73.2193 42.4239 73.2196C41.0559 73.2279 39.688 73.2341 38.3201 73.238C37.6585 73.24 36.997 73.2426 36.3355 73.2469C35.6966 73.251 35.0577 73.2532 34.4189 73.2542C34.1756 73.2549 33.9323 73.2562 33.689 73.2582C33.3473 73.261 33.0056 73.2613 32.6638 73.2612C32.5641 73.2625 32.4644 73.2639 32.3616 73.2653C31.3187 73.2596 30.519 72.9589 29.7658 72.2357C29.2368 71.6219 28.9886 70.9525 28.9874 70.1503C28.9872 70.0855 28.987 70.0207 28.9868 69.954C28.9861 69.7353 28.9862 69.5166 28.9862 69.2979C28.9859 69.1402 28.9856 68.9824 28.9852 68.8247C28.9842 68.39 28.9839 67.9552 28.9836 67.5205C28.9833 67.0521 28.9824 66.5837 28.9815 66.1153C28.9797 64.9835 28.9788 63.8517 28.9779 62.7198C28.9775 62.187 28.977 61.6541 28.9765 61.1213C28.9749 59.3503 28.9736 57.5793 28.9729 55.8084C28.9727 55.3486 28.9725 54.8889 28.9723 54.4292C28.9723 54.3149 28.9722 54.2006 28.9722 54.0829C28.9714 52.2318 28.969 50.3807 28.966 48.5296C28.9629 46.6297 28.9612 44.7298 28.9609 42.8298C28.9607 41.7629 28.9599 40.6959 28.9575 39.629C28.9555 38.7203 28.9547 37.8116 28.9556 36.9029C28.956 36.4393 28.9559 35.9758 28.954 35.5122C28.9524 35.0875 28.9525 34.6629 28.9539 34.2382C28.9542 34.0848 28.9538 33.9315 28.9526 33.7781C28.9449 32.6453 29.0611 31.7581 29.8709 30.9073C30.7108 30.0828 31.5739 29.9439 32.7208 29.9513ZM30.9395 32.3084C30.6476 32.7192 30.6748 33.059 30.6769 33.5488C30.6769 33.6348 30.6768 33.7208 30.6768 33.8094C30.6769 34.0945 30.6776 34.3796 30.6784 34.6646C30.6785 34.862 30.6787 35.0593 30.6788 35.2566C30.6791 35.7766 30.68 36.2966 30.6811 36.8166C30.682 37.347 30.6825 37.8773 30.6829 38.4077C30.6839 39.4488 30.6855 40.49 30.6875 41.5311C30.7508 41.5113 30.8141 41.4916 30.8793 41.4713C30.9629 41.4456 31.0465 41.4199 31.1326 41.3935C31.2152 41.3679 31.2978 41.3424 31.383 41.3161C31.7078 41.2272 32.0033 41.2019 32.3399 41.1854C32.4532 41.1792 32.5666 41.1731 32.6834 41.1667C32.8092 41.1615 32.8092 41.1615 32.9375 41.1561C32.9445 41.0473 32.9515 40.9386 32.9587 40.8265C33.0446 39.7296 33.209 38.7668 34.0391 37.9686C34.7387 37.418 35.5575 37.2073 36.4344 37.2063C36.5542 37.2059 36.6741 37.2056 36.7975 37.2052C36.9303 37.2053 37.0631 37.2053 37.1958 37.2054C37.337 37.2052 37.4782 37.2049 37.6194 37.2046C38.0076 37.2038 38.3958 37.2037 38.7839 37.2036C39.2025 37.2034 39.6211 37.2027 40.0397 37.2021C40.9552 37.2008 41.8706 37.2002 42.786 37.1998C43.3577 37.1996 43.9294 37.1992 44.5011 37.1987C46.0841 37.1976 47.6672 37.1966 49.2502 37.1963C49.3515 37.1963 49.4528 37.1963 49.5572 37.1963C49.6588 37.1962 49.7603 37.1962 49.865 37.1962C50.0708 37.1962 50.2766 37.1961 50.4824 37.1961C50.5844 37.1961 50.6865 37.196 50.7917 37.196C52.4454 37.1956 54.0991 37.194 55.7528 37.1918C57.4509 37.1896 59.149 37.1884 60.8471 37.1883C61.8004 37.1882 62.7537 37.1877 63.707 37.186C64.5189 37.1845 65.3307 37.1841 66.1426 37.1848C66.5566 37.1852 66.9706 37.1851 67.3847 37.1838C67.7642 37.1826 68.1437 37.1827 68.5232 37.1839C68.66 37.184 68.7968 37.1838 68.9337 37.1829C70.0905 37.1765 71.1275 37.2801 72.0313 38.0623C72.6646 38.7442 72.9064 39.4435 72.9863 40.3534C72.994 40.4309 73.0017 40.5084 73.0096 40.5883C73.0282 40.7775 73.0455 40.9668 73.0625 41.1561C73.1464 41.1596 73.2303 41.1631 73.3167 41.1667C73.43 41.1729 73.5434 41.179 73.6602 41.1854C73.7711 41.1908 73.882 41.1963 73.9963 41.2019C74.301 41.2291 74.5755 41.3032 74.8674 41.3935C74.951 41.4191 75.0346 41.4448 75.1207 41.4713C75.184 41.491 75.2473 41.5108 75.3125 41.5311C75.322 40.8622 75.3286 40.1933 75.3331 39.5244C75.335 39.297 75.3376 39.0695 75.3408 38.8421C75.3454 38.5147 75.3475 38.1873 75.3491 37.8598C75.352 37.708 75.352 37.708 75.355 37.5532C75.3552 36.9503 75.3011 36.5816 74.9375 36.0936C74.5304 35.7779 74.2082 35.6132 73.6939 35.6129C73.5708 35.6125 73.5708 35.6125 73.4452 35.612C73.3099 35.6123 73.3099 35.6123 73.1719 35.6125C73.0761 35.6123 72.9803 35.6121 72.8816 35.6119C72.5591 35.6114 72.2365 35.6115 71.914 35.6115C71.6833 35.6113 71.4526 35.6109 71.222 35.6106C70.7243 35.6098 70.2266 35.6093 69.7289 35.609C68.9413 35.6085 68.1537 35.6069 67.3661 35.6052C67.0965 35.6046 66.8269 35.604 66.5572 35.6034C66.4899 35.6032 66.4225 35.6031 66.353 35.6029C65.5857 35.6012 64.8183 35.5997 64.051 35.5983C63.9808 35.5982 63.9107 35.5981 63.8384 35.5979C62.7038 35.5959 61.5692 35.5949 60.4346 35.5942C59.2687 35.5934 58.1027 35.5912 56.9367 35.5878C56.2183 35.5857 55.4999 35.5848 54.7815 35.5854C54.2296 35.5857 53.6777 35.5841 53.1258 35.5818C52.9003 35.5811 52.6749 35.5811 52.4494 35.5818C50.041 35.5883 48.6812 35.0198 46.8853 33.4276C45.4978 32.1468 45.4978 32.1468 43.7405 31.6623C43.6348 31.6615 43.5292 31.6607 43.4203 31.6599C43.3057 31.6599 43.1912 31.66 43.0731 31.6601C42.9514 31.6595 42.8297 31.6588 42.7043 31.6582C42.3715 31.6565 42.0388 31.6561 41.706 31.656C41.4979 31.6559 41.2898 31.6555 41.0818 31.655C40.3553 31.6532 39.6289 31.6525 38.9024 31.6526C38.226 31.6527 37.5496 31.6507 36.8732 31.6478C36.2916 31.6453 35.7101 31.6443 35.1285 31.6444C34.7815 31.6445 34.4346 31.644 34.0876 31.642C33.7007 31.6398 33.3138 31.6407 32.9269 31.6418C32.8123 31.6407 32.6978 31.6397 32.5797 31.6386C31.8127 31.6443 31.455 31.7233 30.9395 32.3084ZM35.0117 39.3631C34.5698 40.0131 34.625 40.3077 34.625 41.1561C46.7525 41.1561 58.88 41.1561 71.375 41.1561C71.4034 40.1733 71.4034 40.1733 71 39.3748C70.531 38.9058 70.021 38.789 69.3716 38.7885C69.1933 38.7877 69.1933 38.7877 69.0114 38.7868C68.8802 38.7872 68.749 38.7875 68.6178 38.7879C68.4778 38.7876 68.3379 38.7873 68.198 38.7868C67.8137 38.7859 67.4295 38.7861 67.0453 38.7865C66.6308 38.7867 66.2163 38.7858 65.8018 38.7851C64.9898 38.7839 64.1779 38.7838 63.366 38.784C62.706 38.7842 62.0461 38.784 61.3862 38.7836C61.2923 38.7835 61.1984 38.7835 61.1016 38.7834C60.9109 38.7833 60.7201 38.7832 60.5294 38.7831C58.7402 38.7821 56.951 38.7823 55.1619 38.7828C53.525 38.7833 51.8881 38.7823 50.2512 38.7805C48.5705 38.7787 46.8899 38.7779 45.2093 38.7783C44.2657 38.7784 43.3221 38.7782 42.3785 38.7769C41.5751 38.7758 40.7718 38.7756 39.9685 38.7768C39.5587 38.7773 39.1489 38.7774 38.739 38.7763C38.3637 38.7753 37.9884 38.7756 37.6131 38.7769C37.4775 38.7771 37.3418 38.7769 37.2062 38.7762C35.9973 38.7461 35.9973 38.7461 35.0117 39.3631ZM30.9277 43.4647C30.7211 43.7788 30.6757 43.9396 30.6749 44.3122C30.6745 44.4049 30.6741 44.4977 30.6737 44.5933C30.6737 44.696 30.6737 44.7986 30.6737 44.9044C30.6734 45.0129 30.673 45.1214 30.6727 45.2331C30.6718 45.5352 30.6714 45.8373 30.6711 46.1393C30.6708 46.4647 30.6699 46.7902 30.669 47.1156C30.6672 47.9019 30.6663 48.6883 30.6654 49.4747C30.665 49.8448 30.6645 50.2149 30.664 50.5851C30.6624 51.8152 30.6611 53.0454 30.6604 54.2755C30.6602 54.5948 30.66 54.9142 30.6598 55.2335C30.6598 55.3129 30.6597 55.3923 30.6597 55.474C30.6589 56.7601 30.6565 58.0461 30.6535 59.3322C30.6504 60.652 30.6487 61.9717 30.6484 63.2915C30.6482 64.0328 30.6474 64.774 30.645 65.5153C30.643 66.1465 30.6422 66.7777 30.6431 67.4089C30.6435 67.731 30.6434 68.0531 30.6415 68.3752C30.6399 68.7244 30.6405 69.0735 30.6418 69.4227C30.6408 69.5245 30.6397 69.6263 30.6387 69.7313C30.6435 70.2999 30.6828 70.6297 31.0625 71.0623C31.5269 71.4815 31.8387 71.5428 32.4555 71.5417C32.5204 71.5418 32.5854 71.5418 32.6523 71.5418C32.8669 71.5417 33.0815 71.541 33.296 71.5403C33.4449 71.5401 33.5937 71.5399 33.7425 71.5399C34.1342 71.5395 34.5258 71.5386 34.9174 71.5375C35.3171 71.5366 35.7167 71.5361 36.1164 71.5357C36.9005 71.5347 37.6846 71.5331 38.4688 71.5311C38.4213 71.4374 38.4213 71.4374 38.3728 71.3418C38.331 71.2554 38.2892 71.1689 38.2461 71.0799C38.1841 70.9543 38.1841 70.9543 38.1209 70.8261C37.746 69.8141 37.7857 68.7699 37.7882 67.7069C37.788 67.5302 37.7877 67.3535 37.7873 67.1767C37.7864 66.6993 37.7867 66.2218 37.7873 65.7443C37.7878 65.2432 37.7874 64.7421 37.7871 64.241C37.7867 63.3996 37.7872 62.5583 37.7881 61.717C37.7891 60.7461 37.7888 59.7752 37.7877 58.8044C37.7869 57.9688 37.7868 57.1333 37.7872 56.2977C37.7875 55.7996 37.7876 55.3014 37.787 54.8032C37.7864 54.3348 37.7868 53.8663 37.7879 53.3978C37.7881 53.2265 37.7881 53.0552 37.7876 52.8839C37.7843 51.3571 37.8553 49.8911 38.9602 48.7052C39.8772 47.9104 40.9436 47.6103 42.1362 47.6117C42.2489 47.6113 42.2489 47.6113 42.3638 47.6108C42.6147 47.61 42.8655 47.6099 43.1164 47.6097C43.2966 47.6093 43.4768 47.6088 43.657 47.6083C44.1461 47.6071 44.6353 47.6065 45.1244 47.6061C45.4303 47.6058 45.7362 47.6054 46.0421 47.605C47 47.6037 47.958 47.6028 48.916 47.6024C50.0201 47.602 51.1243 47.6004 52.2284 47.5977C53.083 47.5956 53.9375 47.5947 54.7921 47.5946C55.302 47.5945 55.8118 47.5939 56.3217 47.5922C56.8017 47.5907 57.2817 47.5905 57.7617 47.5913C57.9372 47.5914 58.1127 47.591 58.2882 47.5901C59.7557 47.5827 61.0053 47.6905 62.1641 48.6913C62.2337 48.7725 62.3033 48.8537 62.375 48.9373C62.4211 48.99 62.4671 49.0427 62.5145 49.097C63.3086 50.0665 63.3781 51.1095 63.4063 52.3123C63.5161 52.3215 63.626 52.3307 63.7391 52.3402C65.0787 52.4628 66.3129 52.6896 67.2537 53.7457C67.9477 54.676 68.1962 55.6692 68.2023 56.8187C68.2028 56.8821 68.2033 56.9454 68.2037 57.0107C68.2052 57.2211 68.206 57.4315 68.2068 57.642C68.2077 57.7935 68.2086 57.9451 68.2096 58.0967C68.2121 58.5069 68.2141 58.9171 68.2159 59.3273C68.218 59.7565 68.2206 60.1856 68.2231 60.6148C68.2278 61.4269 68.232 62.239 68.236 63.0511C68.2407 63.9759 68.2458 64.9007 68.251 65.8255C68.2617 67.7274 68.2717 69.6292 68.2813 71.5311C69.0416 71.5376 69.802 71.5426 70.5624 71.5457C70.9155 71.5471 71.2686 71.5491 71.6217 71.5523C71.9627 71.5554 72.3037 71.5571 72.6447 71.5578C72.7745 71.5583 72.9044 71.5593 73.0342 71.5608C73.2166 71.5629 73.3991 71.563 73.5815 71.563C73.6852 71.5636 73.7888 71.5643 73.8956 71.5649C74.2937 71.5188 74.61 71.3805 74.9042 71.1059C75.1945 70.7262 75.3241 70.5364 75.3251 70.0625C75.3257 69.9234 75.3257 69.9234 75.3264 69.7814C75.3263 69.6787 75.3263 69.5761 75.3263 69.4703C75.3268 69.3076 75.3268 69.3076 75.3274 69.1415C75.3282 68.8395 75.3286 68.5374 75.3289 68.2354C75.3293 67.91 75.3302 67.5845 75.331 67.2591C75.3328 66.4728 75.3338 65.6864 75.3346 64.9C75.335 64.5299 75.3355 64.1598 75.336 63.7896C75.3376 62.5595 75.339 61.3293 75.3396 60.0992C75.3398 59.7798 75.34 59.4605 75.3402 59.1412C75.3402 59.0618 75.3403 58.9824 75.3403 58.9007C75.3411 57.6146 75.3435 56.3286 75.3465 55.0425C75.3496 53.7227 75.3513 52.4029 75.3516 51.0831C75.3518 50.3419 75.3526 49.6007 75.355 48.8594C75.3571 48.2282 75.3578 47.597 75.3569 46.9658C75.3565 46.6437 75.3567 46.3216 75.3585 45.9995C75.3601 45.6503 75.3595 45.3012 75.3582 44.952C75.3593 44.8502 75.3603 44.7484 75.3614 44.6434C75.3565 44.076 75.3202 43.742 74.9375 43.3123C74.4172 42.9194 74.0393 42.8297 73.4024 42.831C73.3311 42.8308 73.2597 42.8306 73.1862 42.8303C72.9453 42.8297 72.7043 42.8298 72.4634 42.8298C72.2897 42.8295 72.1159 42.8291 71.9422 42.8288C71.4633 42.8278 70.9844 42.8275 70.5055 42.8272C69.9895 42.8269 69.4736 42.826 68.9577 42.8251C67.711 42.8233 66.4643 42.8223 65.2176 42.8215C64.6308 42.8211 64.0441 42.8206 63.4574 42.8201C61.5075 42.8185 59.5577 42.8171 57.6078 42.8165C57.4817 42.8164 57.3556 42.8164 57.2295 42.8163C57.1356 42.8163 57.1356 42.8163 57.0399 42.8163C56.7231 42.8162 56.4062 42.816 56.0893 42.8159C56.0264 42.8159 55.9635 42.8159 55.8987 42.8159C53.8597 42.8151 51.8206 42.8129 49.7816 42.8099C47.6261 42.8067 45.4707 42.8048 43.3152 42.8045C42.1401 42.8043 40.965 42.8035 39.7899 42.8011C38.7893 42.799 37.7887 42.7983 36.7881 42.7992C36.2775 42.7996 35.7668 42.7994 35.2562 42.7976C34.7887 42.796 34.3213 42.7961 33.8539 42.7975C33.6847 42.7978 33.5156 42.7973 33.3464 42.7962C33.1164 42.7948 32.8866 42.7957 32.6566 42.7972C32.591 42.7962 32.5254 42.7953 32.4577 42.7943C31.8386 42.8029 31.346 43.0143 30.9277 43.4647ZM39.9688 50.0623C39.477 50.7433 39.3919 51.379 39.3937 52.2068C39.3935 52.2794 39.3933 52.352 39.3931 52.4269C39.3925 52.6693 39.3926 52.9117 39.3926 53.1542C39.3924 53.3284 39.392 53.5026 39.3917 53.6768C39.3909 54.1494 39.3906 54.6221 39.3906 55.0947C39.3905 55.3902 39.3903 55.6856 39.3901 55.9811C39.3892 57.0124 39.3888 58.0437 39.3889 59.075C39.3889 60.0355 39.388 60.996 39.3865 61.9564C39.3852 62.7818 39.3847 63.6071 39.3848 64.4324C39.3848 64.9251 39.3846 65.4177 39.3836 65.9103C39.3827 66.3737 39.3827 66.8372 39.3833 67.3007C39.3834 67.4704 39.3832 67.6401 39.3826 67.8098C39.3383 69.4676 39.3383 69.4676 40.1401 70.8609C40.7162 71.3952 41.1768 71.5578 41.9727 71.5428C42.0894 71.5411 42.2061 71.5394 42.3264 71.5377C42.4146 71.5355 42.5029 71.5333 42.5938 71.5311C42.5939 71.4494 42.594 71.3678 42.5942 71.2836C42.5977 69.2937 42.6032 67.3038 42.611 65.3139C42.6147 64.3516 42.6178 63.3893 42.6192 62.4269C42.6204 61.5879 42.6229 60.7488 42.627 59.9098C42.6291 59.4658 42.6306 59.0218 42.6305 58.5778C42.6304 58.1593 42.6321 57.7408 42.6351 57.3222C42.6359 57.1692 42.6361 57.0162 42.6356 56.8632C42.6315 55.5113 42.8754 54.532 43.8059 53.5223C44.9815 52.3683 46.4788 52.3927 48.0212 52.3868C48.171 52.3859 48.3207 52.385 48.4705 52.384C48.8748 52.3815 49.2792 52.3795 49.6836 52.3777C50.107 52.3756 50.5304 52.373 50.9538 52.3705C51.7546 52.3659 52.5555 52.3616 53.3563 52.3576C54.2684 52.353 55.1805 52.3478 56.0926 52.3426C57.968 52.332 59.8434 52.3219 61.7188 52.3123C61.7232 52.1025 61.7264 51.8927 61.729 51.6828C61.7309 51.566 61.7328 51.4491 61.7348 51.3287C61.7134 50.8896 61.5922 50.6047 61.3438 50.2498C61.2916 50.1667 61.2393 50.0836 61.1856 49.9979C60.6006 49.4129 59.9386 49.2098 59.1261 49.2052C59.0234 49.2053 59.0234 49.2053 58.9187 49.2054C58.845 49.2052 58.7713 49.2049 58.6954 49.2046C58.4487 49.2038 58.2021 49.2036 57.9555 49.2035C57.7785 49.2031 57.6016 49.2026 57.4246 49.2021C56.944 49.2008 56.4634 49.2002 55.9829 49.1998C55.6825 49.1996 55.3821 49.1992 55.0817 49.1987C54.1415 49.1975 53.2013 49.1966 52.2611 49.1962C51.1765 49.1958 50.0919 49.1941 49.0073 49.1914C48.1684 49.1894 47.3295 49.1884 46.4906 49.1883C45.9899 49.1882 45.4891 49.1877 44.9883 49.186C44.517 49.1844 44.0458 49.1842 43.5746 49.1851C43.402 49.1851 43.2294 49.1847 43.0568 49.1838C41.8974 49.1779 40.8395 49.186 39.9688 50.0623ZM44.7734 54.9315C44.329 55.435 44.2535 55.884 44.2562 56.5436C44.2558 56.62 44.2553 56.6964 44.2549 56.775C44.2537 57.0307 44.2539 57.2864 44.254 57.5421C44.2535 57.7255 44.2528 57.909 44.2521 58.0924C44.2505 58.5906 44.25 59.0888 44.2499 59.587C44.2498 59.8984 44.2494 60.2098 44.2489 60.5211C44.2471 61.6077 44.2464 62.6944 44.2465 63.781C44.2466 64.7933 44.2446 65.8055 44.2417 66.8178C44.2392 67.6874 44.2382 68.5569 44.2383 69.4264C44.2384 69.9455 44.2379 70.4647 44.2359 70.9838C44.2341 71.4723 44.2341 71.9607 44.2354 72.4492C44.2356 72.6282 44.2352 72.8071 44.234 72.986C44.2078 74.3993 44.2078 74.3993 44.861 75.6147C44.9307 75.6728 45.0004 75.731 45.0723 75.7909C45.1418 75.8507 45.2113 75.9105 45.2828 75.9721C45.7516 76.3018 46.1741 76.3397 46.7355 76.3374C46.8123 76.3378 46.8891 76.3383 46.9683 76.3387C47.2255 76.3399 47.4827 76.3397 47.7399 76.3396C47.9244 76.3401 48.1089 76.3408 48.2934 76.3415C48.7945 76.3431 49.2956 76.3436 49.7967 76.3437C50.1098 76.3438 50.423 76.3442 50.7361 76.3447C51.8287 76.3465 52.9213 76.3472 54.0138 76.3471C55.032 76.347 56.0501 76.349 57.0683 76.3519C57.9427 76.3544 58.817 76.3554 59.6914 76.3553C60.2135 76.3552 60.7356 76.3557 61.2578 76.3577C61.7489 76.3595 62.2401 76.3596 62.7313 76.3582C62.9113 76.358 63.0913 76.3584 63.2714 76.3596C63.5177 76.361 63.7638 76.3601 64.0101 76.3587C64.0809 76.3597 64.1517 76.3606 64.2247 76.3616C64.8642 76.3534 65.3388 76.1306 65.8203 75.7147C66.6933 74.6962 66.6212 73.623 66.618 72.3534C66.6183 72.1801 66.6186 72.0068 66.619 71.8335C66.6199 71.3645 66.6195 70.8956 66.6189 70.4267C66.6185 69.9349 66.6189 69.4432 66.6192 68.9515C66.6195 68.1259 66.6191 67.3004 66.6182 66.4748C66.6172 65.5215 66.6175 64.5682 66.6185 63.6149C66.6194 62.7951 66.6195 61.9754 66.619 61.1556C66.6187 60.6665 66.6187 60.1775 66.6193 59.6885C66.6199 59.2286 66.6195 58.7688 66.6184 58.3089C66.6182 58.1405 66.6182 57.9722 66.6186 57.8038C66.6371 56.1103 66.6371 56.1103 65.8438 54.6561C64.9203 53.8571 63.6965 53.9727 62.5512 53.9756C62.3789 53.9753 62.2067 53.975 62.0344 53.9746C61.5684 53.9737 61.1024 53.9741 60.6363 53.9747C60.1476 53.9751 59.6588 53.9747 59.17 53.9744C58.3492 53.9741 57.5284 53.9745 56.7076 53.9754C55.7602 53.9764 54.8128 53.9761 53.8654 53.9751C53.0504 53.9742 52.2355 53.9741 51.4206 53.9746C50.9345 53.9749 50.4485 53.9749 49.9624 53.9743C49.5053 53.9737 49.0481 53.9741 48.5909 53.9752C48.4237 53.9755 48.2564 53.9754 48.0892 53.975C46.2503 53.945 46.2503 53.945 44.7734 54.9315Z" fill="white"/>
<path d="M55.9063 58.0313C56.1771 58.2934 56.2753 58.5571 56.2925 58.935C56.2923 59.0343 56.2921 59.1336 56.2919 59.2359C56.2919 59.4048 56.2919 59.4048 56.2919 59.5771C56.2914 59.6987 56.2909 59.8202 56.2904 59.9455C56.2902 60.0712 56.2901 60.1969 56.29 60.3227C56.2897 60.6533 56.2887 60.9838 56.2877 61.3144C56.2867 61.6519 56.2863 61.9894 56.2858 62.3268C56.2848 62.9887 56.2832 63.6507 56.2813 64.3126C56.3505 64.312 56.4197 64.3113 56.491 64.3107C57.1448 64.305 57.7986 64.3008 58.4523 64.298C58.7884 64.2966 59.1245 64.2946 59.4606 64.2914C59.7852 64.2883 60.1098 64.2866 60.4344 64.2859C60.6179 64.2851 60.8014 64.2829 60.9849 64.2807C61.1538 64.2807 61.1538 64.2807 61.326 64.2807C61.4247 64.28 61.5234 64.2794 61.6251 64.2788C62.0122 64.3253 62.3465 64.4503 62.6035 64.752C62.6828 65.0781 62.676 65.4013 62.5625 65.7188C62.2541 66.017 62.0235 66.0345 61.6028 66.032C61.4845 66.032 61.3663 66.032 61.2445 66.032C61.116 66.0305 60.9874 66.029 60.8589 66.0276C60.727 66.027 60.5951 66.0266 60.4632 66.0263C60.1168 66.0253 59.7703 66.0225 59.4238 66.0194C59.07 66.0165 58.7162 66.0152 58.3624 66.0138C57.6687 66.0108 56.975 66.006 56.2813 66.0001C56.2822 66.1057 56.2822 66.1057 56.2832 66.2134C56.2888 66.8782 56.2931 67.543 56.2958 68.2078C56.2973 68.5496 56.2993 68.8913 56.3025 69.2331C56.3055 69.5632 56.3072 69.8932 56.3079 70.2233C56.3087 70.4099 56.3109 70.5966 56.3131 70.7832C56.3131 70.8976 56.3132 71.0121 56.3132 71.13C56.3141 71.2805 56.3141 71.2805 56.3151 71.4341C56.2686 71.8252 56.1458 72.1616 55.8359 72.4161C55.5184 72.4955 55.2846 72.454 54.9688 72.3751C54.6997 72.1713 54.6043 72.0638 54.5487 71.7272C54.5499 71.5686 54.5499 71.5686 54.5512 71.4067C54.5512 71.2866 54.5512 71.1665 54.5513 71.0428C54.5532 70.9122 54.5551 70.7816 54.5571 70.651C54.5578 70.517 54.5584 70.383 54.5587 70.249C54.5602 69.897 54.5639 69.545 54.568 69.193C54.5719 68.8335 54.5736 68.4741 54.5754 68.1146C54.5795 67.4097 54.5859 66.7049 54.5938 66.0001C54.5194 66.0009 54.4451 66.0018 54.3685 66.0026C53.6678 66.0101 52.967 66.0158 52.2663 66.0195C51.906 66.0215 51.5458 66.0241 51.1855 66.0284C50.8378 66.0325 50.4902 66.0347 50.1424 66.0357C50.0098 66.0364 49.8772 66.0377 49.7446 66.0397C49.5588 66.0425 49.3729 66.0426 49.1871 66.0427C49.0814 66.0435 48.9756 66.0443 48.8666 66.0452C48.5301 65.9896 48.423 65.8937 48.2188 65.6251C48.1205 65.265 48.092 65.0562 48.2246 64.7052C48.5068 64.3866 48.8332 64.3235 49.2499 64.29C49.3486 64.2905 49.4473 64.2909 49.549 64.2913C49.6615 64.2913 49.7741 64.2913 49.8901 64.2913C50.0703 64.2928 50.0703 64.2928 50.2542 64.2943C50.3795 64.2946 50.5048 64.2949 50.6301 64.2951C50.9584 64.2958 51.2866 64.2976 51.6149 64.2997C51.9505 64.3016 52.2861 64.3025 52.6217 64.3034C53.2791 64.3054 53.9364 64.3086 54.5938 64.3126C54.5929 64.2394 54.5921 64.1663 54.5912 64.0909C54.5837 63.4012 54.578 62.7115 54.5743 62.0218C54.5724 61.6672 54.5697 61.3126 54.5655 60.958C54.5614 60.6158 54.5592 60.2736 54.5582 59.9314C54.5575 59.8008 54.5561 59.6703 54.5541 59.5398C54.5514 59.3569 54.5512 59.174 54.5512 58.9911C54.5504 58.887 54.5495 58.7829 54.5487 58.6757C54.6042 58.3442 54.7097 58.238 54.9688 58.0313C55.2735 57.879 55.5875 57.9458 55.9063 58.0313Z" fill="white"/>
</g>
<defs>
<clipPath id="clip0_530_4840">
<rect width="48" height="48" fill="white" transform="translate(29 30)"/>
</clipPath>
</defs>
</svg>
