<svg width="107" height="108" viewBox="0 0 107 108" fill="none" xmlns="http://www.w3.org/2000/svg">
<circle cx="53.5" cy="53.9995" r="53.0737" fill="#1B2351"/>
<g clip-path="url(#clip0_530_4873)">
<path d="M52.371 28.9513C52.5808 28.9508 52.7905 28.9501 53.0002 28.9493C53.5668 28.9476 54.1333 28.9483 54.6999 28.9495C55.2945 28.9504 55.8891 28.9495 56.4837 28.949C57.5459 28.9482 58.608 28.9494 59.6702 28.9513C60.631 28.953 61.5918 28.9527 62.5526 28.951C63.6714 28.9489 64.7903 28.9482 65.9091 28.9493C66.5002 28.9499 67.0914 28.95 67.6825 28.9487C68.2384 28.9476 68.7943 28.9484 69.3502 28.9506C69.5534 28.9511 69.7567 28.9509 69.96 28.9501C71.9209 28.9428 73.3141 29.2759 74.75 30.6873C74.8314 30.7669 74.8314 30.7669 74.9144 30.8481C75.9832 31.9894 76.2005 33.5197 76.1969 35.0204C76.1974 35.1424 76.1979 35.2644 76.1984 35.3901C76.1992 35.6457 76.199 35.9012 76.1981 36.1568C76.197 36.4835 76.1989 36.8101 76.2016 37.1368C76.2038 37.4508 76.2031 37.7649 76.2028 38.0789C76.2038 38.1957 76.2049 38.3125 76.206 38.4329C76.2051 38.5415 76.2042 38.6502 76.2033 38.7621C76.2033 38.9049 76.2033 38.9049 76.2033 39.0506C76.1438 39.3821 76.0126 39.541 75.7813 39.7811C75.5938 39.8401 75.5938 39.8401 75.4063 39.8338C75.3444 39.8339 75.2825 39.8341 75.2188 39.8342C74.9464 39.7571 74.8348 39.6234 74.6563 39.4061C74.6095 39.158 74.6095 39.158 74.6096 38.8721C74.6086 38.7648 74.6077 38.6574 74.6067 38.5467C74.6075 38.4309 74.6082 38.3151 74.609 38.1958C74.6077 38.0127 74.6063 37.8296 74.6049 37.6465C74.6033 37.3898 74.6033 37.1331 74.6035 36.8764C74.6036 36.43 74.603 35.9836 74.5997 35.5372C74.5981 35.3 74.5979 35.0627 74.5991 34.8254C74.5916 33.5582 74.2837 32.5087 73.4258 31.5545C72.1707 30.3877 70.5095 30.472 68.9126 30.4756C68.7222 30.4753 68.5317 30.475 68.3412 30.4746C67.8268 30.4737 67.3123 30.4741 66.7979 30.4747C66.2579 30.4751 65.7179 30.4747 65.1779 30.4744C64.2713 30.4741 63.3647 30.4745 62.4581 30.4754C61.412 30.4764 60.3659 30.4761 59.3198 30.4751C58.4195 30.4742 57.5191 30.4741 56.6188 30.4746C56.082 30.4749 55.5452 30.4749 55.0084 30.4743C54.5036 30.4737 53.9988 30.4741 53.494 30.4752C53.3094 30.4755 53.1249 30.4754 52.9403 30.475C51.351 30.4717 49.7859 30.4925 48.5491 31.6479C47.6725 32.6572 47.5202 33.7052 47.5261 34.9998C47.5257 35.1407 47.5252 35.2815 47.5246 35.4223C47.5234 35.8028 47.5238 36.1832 47.5247 36.5636C47.5255 36.9631 47.5248 37.3625 47.5243 37.762C47.5238 38.4327 47.5245 39.1034 47.5258 39.7741C47.5274 40.5477 47.5269 41.3213 47.5253 42.095C47.5241 42.761 47.5239 43.427 47.5246 44.093C47.5251 44.49 47.5251 44.887 47.5242 45.284C47.5234 45.6574 47.5239 46.0309 47.5256 46.4043C47.5259 46.5407 47.5258 46.6772 47.5252 46.8136C47.5197 48.1419 47.7523 49.0524 48.6231 50.0643C49.822 51.096 50.9798 51.2326 52.5161 51.2319C52.6988 51.2324 52.8814 51.2329 53.0641 51.2334C53.2591 51.2339 53.4541 51.2342 53.6491 51.2344C54.0565 51.235 54.4639 51.2365 54.8713 51.2383C55.0111 51.2389 55.151 51.2395 55.2908 51.2401C55.3608 51.2404 55.4308 51.2407 55.5029 51.241C56.4504 51.2449 57.3979 51.248 58.3454 51.2492C58.986 51.2499 59.6267 51.252 60.2673 51.2557C60.6058 51.2575 60.9443 51.2587 61.2828 51.2582C61.66 51.2577 62.0372 51.2601 62.4144 51.2627C62.5261 51.262 62.6377 51.2614 62.7527 51.2608C63.3409 51.2675 63.712 51.2859 64.1563 51.6873C64.2932 51.8617 64.2932 51.8617 64.3789 52.0389C64.4087 52.0964 64.4384 52.154 64.469 52.2132C64.651 52.8683 64.485 53.4697 64.2969 54.1014C64.2724 54.1857 64.2479 54.2699 64.2227 54.3567C63.9481 55.2719 63.5908 56.1519 63.2188 57.0311C64.3634 56.4788 65.3671 55.6185 66.3125 54.7811C66.3909 54.7131 66.4694 54.645 66.5502 54.5749C67.4509 53.7826 68.3111 52.9329 69.0895 52.0199C69.5751 51.4751 70.0738 51.3121 70.7738 51.2246C71.9013 51.0817 72.8565 50.7955 73.6485 49.931C74.4762 48.8594 74.5893 47.8176 74.5914 46.5029C74.5925 46.3747 74.5937 46.2465 74.5949 46.1183C74.6001 45.5776 74.603 45.037 74.6053 44.4964C74.6068 44.1641 74.6096 43.8319 74.6132 43.4996C74.6149 43.3125 74.6149 43.1253 74.6149 42.9381C74.6162 42.8245 74.6174 42.7109 74.6187 42.5938C74.6192 42.494 74.6197 42.3941 74.6201 42.2912C74.6612 41.9956 74.7294 41.8673 74.9375 41.6561C75.2484 41.5615 75.4424 41.5479 75.7578 41.6268C76.0106 41.7742 76.053 41.8545 76.1563 42.1248C76.1807 42.386 76.1807 42.386 76.182 42.6903C76.1829 42.8045 76.1838 42.9188 76.1847 43.0366C76.1846 43.2217 76.1846 43.2217 76.1845 43.4106C76.1848 43.5396 76.1852 43.6685 76.1857 43.7975C76.1864 44.0682 76.1864 44.3389 76.1859 44.6096C76.1853 44.9532 76.1869 45.2967 76.1891 45.6402C76.1905 45.907 76.1905 46.1738 76.1903 46.4406C76.1903 46.6278 76.1916 46.815 76.1929 47.0021C76.185 48.589 75.7985 49.9425 74.6819 51.1018C74.6116 51.1713 74.5412 51.2408 74.4688 51.3123C74.41 51.3731 74.3513 51.4339 74.2908 51.4965C73.5714 52.1901 72.4765 52.7204 71.4622 52.7179C70.756 52.7447 70.4041 52.8746 69.92 53.3794C69.6805 53.6475 69.4466 53.9199 69.2146 54.1946C68.9114 54.5443 68.586 54.8708 68.2578 55.1971C68.1944 55.2603 68.131 55.3235 68.0656 55.3886C67.5695 55.8779 67.0546 56.3273 66.5 56.7498C66.3854 56.8391 66.2708 56.9283 66.1561 57.0175C63.6137 58.9774 63.6137 58.9774 62.5625 58.9061C62.0695 58.7286 61.8322 58.475 61.5313 58.0623C61.2829 57.3171 61.5056 56.787 61.8242 56.1112C62.1254 55.4432 62.3928 54.7782 62.6094 54.078C62.6435 53.968 62.6435 53.968 62.6783 53.8557C62.7836 53.5071 62.8657 53.1714 62.9375 52.8123C61.9785 52.7814 61.0194 52.7505 60.0313 52.7186C60.0327 53.1278 60.0342 53.5371 60.0357 53.9587C60.0404 55.3121 60.0435 56.6656 60.0458 58.019C60.0473 58.8395 60.0493 59.6599 60.0525 60.4804C60.0553 61.1958 60.0571 61.9112 60.0577 62.6267C60.0581 63.0052 60.0589 63.3837 60.061 63.7622C60.0629 64.1192 60.0635 64.4761 60.0631 64.8331C60.0632 64.9634 60.0637 65.0938 60.0648 65.2241C60.0772 66.7858 59.6443 68.2599 58.5313 69.4061C57.2643 70.5259 55.9402 70.9342 54.2814 70.9376C54.1732 70.9382 54.065 70.9388 53.9535 70.9395C53.7262 70.9404 53.4989 70.9409 53.2716 70.9408C52.9233 70.9412 52.5751 70.9447 52.2268 70.9482C52.0054 70.9488 51.784 70.9491 51.5626 70.9493C51.4585 70.9507 51.3544 70.952 51.2472 70.9534C51.1504 70.9528 51.0537 70.9522 50.9541 70.9516C50.8692 70.9519 50.7843 70.9522 50.6968 70.9524C50.3938 70.8909 50.2823 70.7717 50.0938 70.5311C50.0295 70.1386 50.0401 69.9535 50.2657 69.6229C50.7037 69.303 51.0854 69.3447 51.6146 69.353C51.7688 69.3522 51.7688 69.3522 51.9261 69.3514C52.2548 69.3498 52.5834 69.3513 52.9121 69.3534C53.2385 69.3549 53.5647 69.3558 53.8911 69.3543C54.0938 69.3535 54.2966 69.3543 54.4994 69.3571C55.6488 69.353 56.5812 69.0059 57.3971 68.1983C58.3147 67.209 58.4654 66.2156 58.4674 64.9048C58.4683 64.7717 58.4692 64.6386 58.4703 64.5055C58.4728 64.1457 58.4742 63.7859 58.4755 63.426C58.4769 63.0494 58.4794 62.6728 58.4818 62.2962C58.4862 61.5837 58.4897 60.8712 58.4928 60.1587C58.4964 59.3472 58.501 58.5358 58.5057 57.7243C58.5154 56.0558 58.5238 54.3872 58.5313 52.7186C58.431 52.7196 58.3308 52.7207 58.2275 52.7217C57.2774 52.7313 56.3273 52.7383 55.3771 52.7429C54.8888 52.7453 54.4005 52.7486 53.9121 52.754C53.4398 52.7591 52.9675 52.7619 52.4952 52.7631C52.3161 52.7639 52.1369 52.7656 51.9578 52.7682C50.1522 52.7928 48.8278 52.4327 47.4402 51.2168C46.7995 50.5648 46.2646 49.5803 46.0625 48.6873C44.6151 48.6808 43.1677 48.6758 41.7203 48.6728C41.0482 48.6713 40.3761 48.6694 39.7039 48.6661C39.1176 48.6633 38.5313 48.6615 37.945 48.6609C37.635 48.6605 37.3249 48.6595 37.0149 48.6576C36.6676 48.6556 36.3203 48.6553 35.9729 48.6554C35.8718 48.6544 35.7706 48.6534 35.6664 48.6524C34.4271 48.6573 33.3318 48.9482 32.4384 49.8431C31.7583 50.6427 31.4278 51.5035 31.4237 52.5506C31.423 52.6678 31.4224 52.785 31.4217 52.9058C31.4214 53.035 31.4212 53.1642 31.4209 53.2934C31.4203 53.43 31.4197 53.5666 31.4191 53.7033C31.4171 54.1514 31.4161 54.5996 31.4152 55.0477C31.4148 55.2024 31.4144 55.3572 31.414 55.5119C31.4122 56.2394 31.4109 56.9669 31.4101 57.6943C31.4092 58.5316 31.4067 59.3689 31.4029 60.2062C31.4001 60.8549 31.3987 61.5035 31.3984 62.1522C31.3982 62.5389 31.3974 62.9256 31.395 63.3122C31.3928 63.6767 31.3924 64.0411 31.3934 64.4055C31.3934 64.5384 31.3928 64.6712 31.3916 64.804C31.3794 66.1246 31.6298 67.2845 32.5416 68.2745C33.294 68.9914 34.0988 69.2268 35.1055 69.3534C36.3844 69.5225 36.9043 70.0627 37.7023 71.0247C38.458 71.9269 39.3206 72.7179 40.25 73.4373C40.3105 73.4847 40.371 73.5322 40.4333 73.581C41.2231 74.1997 42.0113 74.7993 42.875 75.3123C42.8285 75.2088 42.782 75.1052 42.734 74.9985C42.3582 74.1447 42.0272 73.2854 41.75 72.3944C41.7217 72.3057 41.6933 72.217 41.6641 72.1256C41.4691 71.4788 41.3 70.8044 41.6211 70.1737C41.9184 69.7747 42.2172 69.5629 42.6875 69.4061C42.8504 69.3965 43.0136 69.3922 43.1767 69.391C43.2765 69.3901 43.3764 69.3892 43.4792 69.3883C43.587 69.3879 43.6948 69.3875 43.8059 69.3871C43.9722 69.3862 43.9722 69.3862 44.1419 69.3854C44.3765 69.3845 44.6112 69.3839 44.8459 69.3836C45.205 69.3827 45.564 69.3798 45.923 69.3768C46.1509 69.3762 46.3788 69.3757 46.6067 69.3753C46.7141 69.3742 46.8216 69.373 46.9323 69.3718C47.0829 69.3722 47.0829 69.3722 47.2365 69.3727C47.3246 69.3723 47.4126 69.372 47.5033 69.3716C47.8 69.4131 47.9771 69.5133 48.2188 69.6873C48.3015 69.8624 48.3015 69.8624 48.3242 70.0506C48.3341 70.1123 48.3441 70.1739 48.3543 70.2374C48.3026 70.4849 48.1969 70.6317 48.0152 70.8056C47.6331 71.0295 47.1605 70.9618 46.7316 70.9519C46.624 70.9512 46.5165 70.9505 46.4057 70.9499C46.0627 70.9472 45.7199 70.9414 45.377 70.9354C45.1442 70.933 44.9115 70.9309 44.6788 70.929C44.1087 70.9238 43.5388 70.916 42.9688 70.9061C43.1101 71.344 43.2528 71.7814 43.3965 72.2186C43.4176 72.283 43.4388 72.3474 43.4606 72.4138C43.7435 73.2726 44.0477 74.1057 44.4519 74.9161C44.6075 75.3417 44.6354 75.7301 44.5003 76.1722C44.265 76.5586 44.0482 76.8075 43.625 76.9998C42.9015 77.1453 42.3973 76.9568 41.7903 76.5666C41.6829 76.4927 41.5757 76.4183 41.4688 76.3436C41.4045 76.2993 41.3402 76.2551 41.274 76.2095C40.3272 75.5539 39.422 74.86 38.5625 74.0936C38.515 74.0513 38.4674 74.0091 38.4184 73.9655C36.5794 72.3235 36.5794 72.3235 35.8939 71.354C35.5698 70.9787 35.2065 70.9695 34.7305 70.9237C33.5302 70.7818 32.5524 70.3755 31.625 69.5936C31.5646 69.5448 31.5042 69.4959 31.4419 69.4456C30.5444 68.6451 30.015 67.3871 29.8438 66.2186C29.835 66.018 29.8307 65.8172 29.83 65.6165C29.8293 65.4972 29.8286 65.3779 29.8279 65.255C29.8277 65.1239 29.8274 64.9929 29.8272 64.8618C29.8266 64.7229 29.826 64.5839 29.8253 64.4449C29.8233 63.9895 29.8224 63.5341 29.8214 63.0787C29.821 62.9213 29.8207 62.7638 29.8203 62.6064C29.8185 61.8661 29.8171 61.1257 29.8164 60.3854C29.8155 59.5342 29.813 58.6831 29.8092 57.832C29.8064 57.172 29.805 56.512 29.8047 55.852C29.8044 55.4589 29.8036 55.0658 29.8012 54.6726C29.799 54.3019 29.7987 53.9312 29.7996 53.5604C29.7997 53.4256 29.7991 53.2908 29.7978 53.1559C29.7817 51.3847 30.2106 49.8582 31.4533 48.554C32.6904 47.4278 34.1059 47.0777 35.7302 47.083C35.8963 47.0829 35.8963 47.0829 36.0657 47.0829C36.368 47.083 36.6704 47.0834 36.9727 47.0841C37.2891 47.0847 37.6055 47.0847 37.922 47.0848C38.5206 47.0851 39.1192 47.0859 39.7178 47.0868C40.3996 47.0879 41.0813 47.0884 41.7631 47.0889C43.165 47.0899 44.5669 47.0915 45.9688 47.0936C45.9685 47.0246 45.9682 46.9556 45.968 46.8844C45.9618 45.2012 45.9571 43.5179 45.9542 41.8347C45.9527 41.0206 45.9508 40.2066 45.9475 39.3926C45.9447 38.6827 45.9429 37.9728 45.9423 37.2629C45.9419 36.8873 45.9411 36.5118 45.939 36.1363C45.9371 35.782 45.9365 35.4278 45.937 35.0735C45.9368 34.8832 45.9353 34.6928 45.9338 34.5025C45.9392 32.8775 46.4445 31.5404 47.5819 30.36C49.0205 29.0683 50.5269 28.9438 52.371 28.9513Z" fill="white"/>
<path d="M53.9375 35.9899C54.0148 35.9881 54.0922 35.9862 54.1718 35.9844C54.5001 36.0495 54.6392 36.1679 54.875 36.4059C55.0266 36.6467 55.1477 36.898 55.2675 37.1559C55.2996 37.2226 55.3317 37.2893 55.3648 37.358C55.4245 37.4823 55.4837 37.6068 55.5423 37.7316C55.5696 37.7891 55.5969 37.8466 55.625 37.9059C55.6492 37.973 55.6734 38.0402 55.6984 38.1094C55.8007 38.3026 55.8007 38.3026 56.0314 38.3475C56.1211 38.357 56.2108 38.3666 56.3032 38.3765C56.4016 38.3892 56.4999 38.402 56.6013 38.4151C56.8082 38.4387 57.0153 38.4614 57.2224 38.4832C58.0729 38.596 58.0729 38.596 58.4107 38.9679C58.6607 39.3236 58.7139 39.5868 58.6847 40.0178C58.549 40.5445 58.1288 40.8803 57.7065 41.1952C57.4154 41.4308 57.2179 41.6108 57.0312 41.9371C56.995 42.4473 57.1447 42.9388 57.2704 43.4286C57.3647 43.8678 57.3606 44.1882 57.1543 44.5856C56.8323 44.9684 56.6312 45.1087 56.1281 45.158C55.648 45.1512 55.3123 44.9403 54.9101 44.6969C54.4093 44.3814 54.4093 44.3814 53.8408 44.278C53.4129 44.4266 53.0279 44.6407 52.6341 44.8626C52.1671 45.1114 51.8423 45.1755 51.3125 45.1246C50.9324 44.9276 50.7202 44.7711 50.5625 44.3746C50.4876 43.7671 50.5944 43.1669 50.709 42.571C50.7496 42.3142 50.7747 42.1024 50.75 41.8434C50.6162 41.6573 50.6162 41.6573 50.4251 41.4991C50.3579 41.4368 50.2906 41.3744 50.2213 41.3102C50.0786 41.1821 49.9353 41.0547 49.7914 40.9279C49.3707 40.5354 49.1667 40.2719 49.1393 39.6879C49.1731 39.3123 49.3208 39.0512 49.5869 38.791C49.9038 38.6012 50.2324 38.5545 50.5918 38.4977C50.6606 38.4855 50.7294 38.4734 50.8003 38.4609C51.2267 38.3894 51.6303 38.3626 52.0625 38.3746C52.086 38.2977 52.1096 38.2207 52.1339 38.1414C52.2678 37.7615 52.4305 37.406 52.6074 37.0446C52.6539 36.9446 52.6539 36.9446 52.7013 36.8426C52.9787 36.2766 53.2757 35.9909 53.9375 35.9899ZM53.8437 37.9996C53.7939 38.0979 53.7441 38.1961 53.6928 38.2974C53.626 38.4267 53.5591 38.5559 53.4922 38.6852C53.4595 38.7499 53.4269 38.8146 53.3933 38.8813C53.0609 39.5184 53.0609 39.5184 52.7187 39.6871C52.4476 39.758 52.1753 39.8033 51.8984 39.8453C51.8241 39.8575 51.7498 39.8696 51.6732 39.8821C51.4906 39.9118 51.3078 39.9402 51.125 39.9684C51.1624 40.012 51.1998 40.0556 51.2384 40.1006C51.3343 40.2126 51.4299 40.3249 51.5252 40.4375C51.6296 40.5579 51.7367 40.6761 51.8468 40.7913C51.8967 40.8446 51.9466 40.8978 51.998 40.9528C52.0441 41.0001 52.0901 41.0475 52.1375 41.0963C52.4332 41.5817 52.3405 42.1455 52.2558 42.6813C52.2465 42.7454 52.2371 42.8095 52.2274 42.8755C52.2045 43.0316 52.1805 43.1875 52.1562 43.3434C52.2412 43.296 52.3261 43.2486 52.4137 43.1998C53.6854 42.5115 53.6854 42.5115 54.3125 42.6871C54.6187 42.8199 54.9105 42.9654 55.2027 43.1266C55.421 43.2641 55.421 43.2641 55.625 43.2496C55.6149 43.1265 55.6049 43.0033 55.5946 42.8765C55.5831 42.7138 55.5718 42.551 55.5605 42.3883C55.5537 42.3073 55.5469 42.2262 55.5398 42.1428C55.5094 41.6749 55.4992 41.376 55.8125 40.9996C55.9704 40.8315 56.1327 40.6675 56.2988 40.5074C56.4507 40.3605 56.6015 40.2125 56.75 40.0621C56.75 40.0312 56.75 40.0003 56.75 39.9684C56.6393 39.9503 56.5286 39.9321 56.4145 39.9135C56.2685 39.8888 56.1225 39.8642 55.9765 39.8395C55.9037 39.8276 55.8308 39.8158 55.7557 39.8036C55.6497 39.7855 55.6497 39.7855 55.5415 39.767C55.4767 39.7562 55.4119 39.7454 55.3451 39.7342C55.0532 39.6615 54.8457 39.5851 54.6612 39.3407C54.6278 39.2788 54.5944 39.2169 54.56 39.1532C54.5047 39.0526 54.5047 39.0526 54.4483 38.95C54.4112 38.88 54.3741 38.81 54.3359 38.7379C54.2974 38.6672 54.2588 38.5965 54.2191 38.5237C54.1243 38.3495 54.0307 38.1746 53.9375 37.9996C53.9065 37.9996 53.8756 37.9996 53.8437 37.9996Z" fill="white"/>
<path d="M36.9688 56.188C37.165 56.1799 37.165 56.1799 37.3438 56.0942C38.075 55.8155 38.9336 55.7588 39.6758 56.0415C40.2147 56.3235 40.6489 56.8058 40.9246 57.3445C41.1225 57.9998 41.1141 58.848 40.8418 59.4809C40.343 60.3346 39.4894 61.025 38.7401 61.6544C38.5252 61.8462 38.3323 62.0546 38.1348 62.2641C37.7815 62.6186 37.5668 62.8069 37.0625 62.8442C36.4644 62.6526 36.0938 62.3121 35.6504 61.8774C35.5472 61.7777 35.5472 61.7777 35.4419 61.676C35.3005 61.5389 35.1595 61.4015 35.0189 61.2637C34.8249 61.075 34.6281 60.8897 34.4302 60.7052C33.6773 59.9944 33.135 59.4143 33.084 58.3325C33.1211 57.5672 33.4257 56.9174 33.9688 56.3755C34.8355 55.7051 36.016 55.701 36.9688 56.188ZM34.9062 57.5942C34.6552 57.8688 34.6269 58.0224 34.6093 58.3944C34.6964 59.0018 35.2027 59.3725 35.627 59.7739C35.7112 59.8568 35.7955 59.9397 35.8824 60.0251C36.2842 60.4155 36.6729 60.7776 37.1562 61.063C37.2288 60.9894 37.3013 60.9158 37.376 60.8399C38.263 59.944 38.263 59.944 38.6973 59.5747C39.2385 59.1379 39.2385 59.1379 39.5414 58.5339C39.5606 58.2032 39.5099 57.9867 39.3477 57.6997C39.0809 57.4611 38.9172 57.3686 38.5625 57.313C38.2353 57.4201 37.9805 57.5375 37.707 57.7466C37.4806 57.9126 37.3441 57.9561 37.0625 57.9692C36.7424 57.8569 36.477 57.742 36.207 57.5356C35.7426 57.195 35.3847 57.3284 34.9062 57.5942Z" fill="white"/>
<path d="M61.3001 43.0479C61.3896 43.0471 61.4791 43.0463 61.5714 43.0454C61.7192 43.0448 61.7192 43.0448 61.8699 43.0442C61.9734 43.0434 62.077 43.0427 62.1836 43.0419C62.5273 43.0396 62.871 43.038 63.2147 43.0367C63.3319 43.0362 63.449 43.0357 63.5697 43.0351C64.062 43.0332 64.5543 43.0314 65.0465 43.0303C65.7519 43.0288 66.4573 43.0257 67.1627 43.0203C67.7185 43.0163 68.2743 43.0148 68.8301 43.0142C69.0666 43.0135 69.303 43.0121 69.5394 43.0099C69.87 43.0069 70.2005 43.0069 70.5312 43.0076C70.6291 43.0061 70.7271 43.0045 70.828 43.0029C71.275 43.0068 71.4911 43.009 71.8577 43.2825C72.0313 43.531 72.0313 43.531 72.0898 43.8123C72.0078 44.2062 71.8854 44.321 71.5625 44.5623C71.22 44.6315 70.8826 44.6244 70.5342 44.62C70.4305 44.6205 70.3267 44.621 70.2199 44.6215C69.8772 44.6227 69.5347 44.6204 69.192 44.618C68.954 44.6178 68.7159 44.6178 68.4779 44.618C67.9791 44.6178 67.4803 44.6161 66.9815 44.6131C66.4052 44.6096 65.8288 44.6088 65.2525 44.6095C64.6975 44.6101 64.1425 44.609 63.5875 44.6072C63.3516 44.6066 63.1156 44.6063 62.8796 44.6064C62.5501 44.6062 62.2207 44.6042 61.8912 44.6017C61.7444 44.6021 61.7444 44.6021 61.5947 44.6025C61.5049 44.6014 61.4152 44.6004 61.3227 44.5993C61.2448 44.5989 61.167 44.5986 61.0867 44.5982C60.8213 44.5532 60.6935 44.4664 60.5 44.281C60.3965 43.9085 60.3673 43.7101 60.5293 43.3553C60.7696 43.0526 60.9299 43.0503 61.3001 43.0479Z" fill="white"/>
<path d="M61.3269 40.1192C61.4175 40.1181 61.5082 40.1171 61.6017 40.116C61.7005 40.1162 61.7994 40.1165 61.9013 40.1168C62.0582 40.1156 62.0582 40.1156 62.2183 40.1144C62.5645 40.1122 62.9106 40.1121 63.2568 40.1122C63.4971 40.1116 63.7374 40.1108 63.9777 40.1101C64.4814 40.1088 64.9852 40.1086 65.4889 40.1092C66.0711 40.1098 66.6533 40.1077 67.2354 40.1042C67.7958 40.101 68.3561 40.1004 68.9164 40.1007C69.1548 40.1006 69.3931 40.0997 69.6314 40.098C69.9643 40.0959 70.297 40.0968 70.6299 40.0985C70.7288 40.0973 70.8277 40.096 70.9296 40.0947C71.5954 40.1024 71.5954 40.1024 71.9053 40.3762C72.0581 40.678 72.081 40.8533 72.0312 41.1874C71.8644 41.4814 71.7947 41.5475 71.4687 41.6562C71.3256 41.6649 71.1822 41.6684 71.0388 41.6687C70.9506 41.6691 70.8624 41.6695 70.7716 41.6699C70.675 41.6699 70.5784 41.6698 70.4789 41.6698C70.377 41.6701 70.2752 41.6704 70.1703 41.6707C69.8327 41.6716 69.4951 41.6718 69.1576 41.6719C68.9235 41.6722 68.6894 41.6725 68.4552 41.6729C67.9642 41.6734 67.4731 41.6736 66.982 41.6735C66.4145 41.6735 65.847 41.6745 65.2795 41.676C64.7334 41.6773 64.1873 41.6777 63.6413 41.6776C63.409 41.6777 63.1767 41.6781 62.9443 41.6789C62.6198 41.6798 62.2953 41.6795 61.9707 41.6789C61.8261 41.6797 61.8261 41.6797 61.6786 41.6805C61.5902 41.6801 61.5017 41.6798 61.4106 41.6794C61.2955 41.6794 61.2955 41.6794 61.1781 41.6795C60.9439 41.6534 60.7942 41.5909 60.5937 41.4687C60.3986 41.2178 60.4066 41.0827 60.418 40.7597C60.5 40.4374 60.5 40.4374 60.6644 40.279C60.9077 40.1371 61.0469 40.1204 61.3269 40.1192Z" fill="white"/>
<path d="M44.2418 61.6111C44.3775 61.61 44.3775 61.61 44.5159 61.609C44.6154 61.6088 44.715 61.6085 44.8175 61.6083C44.9221 61.6076 45.0267 61.607 45.1344 61.6064C45.4816 61.6045 45.8288 61.6034 46.176 61.6025C46.2943 61.6021 46.4126 61.6017 46.5345 61.6014C47.0959 61.5996 47.6572 61.5982 48.2185 61.5974C48.8667 61.5965 49.5148 61.5941 50.1629 61.5903C50.7242 61.5871 51.2854 61.586 51.8466 61.5856C52.0855 61.5852 52.3243 61.5841 52.5632 61.5823C52.897 61.5801 53.2307 61.5801 53.5645 61.5808C53.6636 61.5796 53.7628 61.5784 53.865 61.5771C54.534 61.5819 54.534 61.5819 54.8423 61.8034C54.9776 62.0136 55.022 62.1265 55.0215 62.3748C55.0235 62.4367 55.0256 62.4986 55.0277 62.5623C54.9302 62.8724 54.7769 62.9566 54.5 63.1248C54.1608 63.181 53.8249 63.1761 53.4818 63.1734C53.3278 63.1744 53.3278 63.1744 53.1707 63.1754C52.8316 63.177 52.4925 63.1759 52.1533 63.1747C51.9176 63.1749 51.6819 63.1753 51.4462 63.1757C50.9522 63.1763 50.4582 63.1755 49.9642 63.1737C49.3937 63.1717 48.8233 63.1724 48.2527 63.1744C47.7032 63.1763 47.1536 63.1761 46.604 63.175C46.3705 63.1748 46.1369 63.1751 45.9034 63.176C45.5771 63.1769 45.2508 63.1755 44.9245 63.1734C44.7795 63.1745 44.7795 63.1745 44.6317 63.1757C44.2174 63.1708 43.9743 63.166 43.6141 62.9482C43.4032 62.7113 43.3438 62.5987 43.3438 62.2811C43.5588 61.7485 43.6789 61.6139 44.2418 61.6111Z" fill="white"/>
<path d="M61.2254 37.2136C61.3168 37.2127 61.4081 37.2118 61.5022 37.2108C61.6023 37.2112 61.7024 37.2117 61.8055 37.2121C61.9638 37.2111 61.9638 37.2111 62.1253 37.2101C62.475 37.2084 62.8247 37.2088 63.1745 37.2093C63.417 37.2089 63.6595 37.2084 63.902 37.2078C64.4107 37.207 64.9195 37.2072 65.4282 37.2082C66.0162 37.2092 66.6041 37.2079 67.1921 37.2054C67.7578 37.2031 68.3235 37.2028 68.8892 37.2034C69.1298 37.2035 69.3705 37.2029 69.6112 37.2017C69.9475 37.2003 70.2836 37.2013 70.6199 37.2029C70.7697 37.2016 70.7697 37.2016 70.9226 37.2002C71.5931 37.2069 71.5931 37.2069 71.9056 37.4199C72.0918 37.7237 72.0811 37.9326 72.0313 38.2812C71.8233 38.5538 71.7013 38.6412 71.375 38.75C71.2345 38.7589 71.0936 38.7626 70.9528 38.7631C70.8231 38.7639 70.8231 38.7639 70.6908 38.7648C70.5961 38.7649 70.5014 38.765 70.4039 38.7651C70.2541 38.7658 70.2541 38.7658 70.1012 38.7665C69.7702 38.7679 69.4392 38.7685 69.1082 38.769C68.8785 38.7696 68.6488 38.7701 68.4191 38.7706C67.9373 38.7716 67.4554 38.7722 66.9736 38.7725C66.3558 38.773 65.738 38.7753 65.1202 38.7779C64.6457 38.7797 64.1712 38.7802 63.6967 38.7803C63.4689 38.7806 63.2411 38.7813 63.0133 38.7826C62.6948 38.7842 62.3764 38.784 62.0579 38.7834C61.9636 38.7843 61.8693 38.7851 61.7722 38.786C60.9618 38.7811 60.9618 38.7811 60.5938 38.4687C60.4063 38.1875 60.4063 38.1875 60.4238 37.8594C60.5413 37.3535 60.711 37.2151 61.2254 37.2136Z" fill="white"/>
<path d="M61.484 34.2367C61.6136 34.2359 61.6136 34.2359 61.7457 34.2351C61.8402 34.235 61.9348 34.2349 62.0322 34.2348C62.1817 34.2341 62.1817 34.2341 62.3343 34.2334C62.6649 34.232 62.9955 34.2314 63.3261 34.2309C63.5555 34.2303 63.785 34.2298 64.0144 34.2292C64.4959 34.2283 64.9773 34.2277 65.4588 34.2274C66.0758 34.2269 66.6927 34.2246 67.3096 34.2219C67.7837 34.2202 68.2578 34.2197 68.732 34.2196C68.9594 34.2193 69.1869 34.2185 69.4143 34.2173C69.7325 34.2157 70.0507 34.2159 70.369 34.2165C70.4629 34.2156 70.5569 34.2148 70.6537 34.2139C71.1507 34.2168 71.5108 34.2452 71.9375 34.5312C72.0824 34.821 72.0588 35.0556 72.0313 35.3749C71.9066 35.5805 71.9066 35.5805 71.6563 35.7499C71.3118 35.8074 70.9699 35.802 70.6213 35.7999C70.5158 35.8007 70.4103 35.8015 70.3016 35.8024C69.9523 35.8045 69.6032 35.8039 69.2539 35.803C69.0115 35.8035 68.7691 35.8041 68.5268 35.8048C68.0186 35.8057 67.5104 35.8053 67.0023 35.8039C66.415 35.8024 65.8277 35.8038 65.2404 35.8069C64.6752 35.8097 64.11 35.8099 63.5447 35.809C63.3043 35.8089 63.0639 35.8095 62.8234 35.8109C62.4876 35.8126 62.152 35.8112 61.8162 35.8091C61.6665 35.8107 61.6665 35.8107 61.5139 35.8124C60.8439 35.8037 60.8439 35.8037 60.5287 35.5331C60.3615 35.1891 60.3989 34.9891 60.5 34.6249C60.758 34.2731 61.0685 34.2383 61.484 34.2367Z" fill="white"/>
<path d="M44.2531 58.6936C44.389 58.6924 44.389 58.6924 44.5275 58.6912C44.6268 58.6913 44.726 58.6913 44.8282 58.6914C44.9328 58.6908 45.0374 58.6902 45.1451 58.6895C45.4918 58.6877 45.8385 58.6874 46.1852 58.6872C46.4256 58.6866 46.666 58.6859 46.9065 58.6853C47.4108 58.6842 47.9151 58.6838 48.4194 58.6839C49.0023 58.684 49.5851 58.6821 50.168 58.6791C50.7288 58.6763 51.2895 58.6757 51.8503 58.6758C52.0889 58.6756 52.3275 58.6747 52.5661 58.6733C52.8994 58.6715 53.2327 58.672 53.566 58.6731C53.665 58.6721 53.764 58.671 53.8661 58.6699C54.5307 58.6757 54.5307 58.6757 54.843 58.8885C55.0276 59.1896 55.012 59.404 54.9688 59.7499C54.8038 60.0485 54.7345 60.1093 54.4063 60.2187C54.2646 60.2276 54.1225 60.2313 53.9805 60.2318C53.8933 60.2324 53.806 60.2329 53.7161 60.2335C53.5728 60.2336 53.5728 60.2336 53.4265 60.2338C53.2753 60.2345 53.2753 60.2345 53.1211 60.2352C52.787 60.2366 52.453 60.2372 52.1189 60.2377C51.8871 60.2382 51.6554 60.2388 51.4236 60.2393C50.9373 60.2403 50.451 60.2409 49.9648 60.2412C49.3413 60.2417 48.7178 60.244 48.0944 60.2466C47.6155 60.2484 47.1367 60.2489 46.6578 60.249C46.4279 60.2493 46.1981 60.25 45.9682 60.2513C45.6468 60.2529 45.3254 60.2527 45.004 60.2521C44.9089 60.2529 44.8137 60.2538 44.7156 60.2547C43.8933 60.2498 43.8933 60.2498 43.5313 59.9374C43.3744 59.6236 43.3226 59.4595 43.4082 59.1171C43.6247 58.7461 43.8508 58.6952 44.2531 58.6936Z" fill="white"/>
<path d="M44.1517 55.7873C44.2429 55.7865 44.3341 55.7857 44.4281 55.7849C44.5787 55.785 44.5787 55.785 44.7324 55.7852C44.8379 55.7845 44.9434 55.7839 45.0521 55.7833C45.4023 55.7815 45.7526 55.7811 46.1028 55.7809C46.3455 55.7803 46.5881 55.7797 46.8308 55.779C47.3401 55.7779 47.8493 55.7775 48.3586 55.7777C48.9473 55.7778 49.5359 55.7758 50.1246 55.7728C50.6907 55.7701 51.2569 55.7694 51.823 55.7695C52.064 55.7693 52.3049 55.7685 52.5458 55.767C52.8826 55.7652 53.2192 55.7657 53.5559 55.7669C53.6559 55.7658 53.756 55.7648 53.8591 55.7637C54.5306 55.7694 54.5306 55.7694 54.8432 55.9823C55.0292 56.2861 55.0186 56.4951 54.9688 56.8437C54.8431 57.0487 54.8431 57.0487 54.5938 57.2187C54.2488 57.2754 53.9063 57.2689 53.5574 57.2657C53.3989 57.2665 53.3989 57.2665 53.2372 57.2672C52.8875 57.2684 52.5378 57.2669 52.1881 57.2652C51.9455 57.2652 51.7029 57.2653 51.4603 57.2656C50.9517 57.2657 50.4432 57.2646 49.9346 57.2624C49.3466 57.2599 48.7586 57.2597 48.1705 57.2608C47.6048 57.2619 47.0391 57.2613 46.4733 57.2599C46.2326 57.2595 45.9918 57.2595 45.7511 57.2599C45.415 57.2601 45.0791 57.2586 44.743 57.2565C44.643 57.257 44.5429 57.2574 44.4397 57.2578C44.3484 57.2569 44.257 57.256 44.1629 57.255C44.0835 57.2548 44.004 57.2546 43.9222 57.2543C43.672 57.2105 43.5911 57.1362 43.4375 56.9374C43.3398 56.6518 43.3321 56.5073 43.4199 56.2167C43.6142 55.8384 43.7432 55.789 44.1517 55.7873Z" fill="white"/>
<path d="M61.5116 45.9403C61.6208 45.9388 61.73 45.9373 61.8425 45.9358C61.9601 45.9353 62.0777 45.9348 62.1988 45.9343C62.32 45.9334 62.4411 45.9326 62.5659 45.9317C62.8221 45.9302 63.0783 45.9294 63.3345 45.9292C63.6622 45.9287 63.9897 45.9251 64.3174 45.9208C64.6307 45.9174 64.9441 45.9172 65.2574 45.9167C65.4335 45.9139 65.4335 45.9139 65.6132 45.9111C66.5185 45.9158 66.5185 45.9158 66.8087 46.1858C67.0193 46.5175 67.0319 46.7082 66.9687 47.094C66.7703 47.355 66.6599 47.4571 66.3341 47.516C66.2344 47.5161 66.1348 47.5161 66.0322 47.5161C65.8623 47.5174 65.8623 47.5174 65.689 47.5188C65.567 47.5177 65.445 47.5166 65.3193 47.5156C65.1925 47.5156 65.0658 47.5157 64.939 47.516C64.6735 47.5161 64.4082 47.5149 64.1427 47.5128C63.8029 47.5101 63.4631 47.5104 63.1233 47.5116C62.8615 47.5122 62.5998 47.5115 62.3381 47.5103C62.152 47.5097 61.9659 47.5101 61.7798 47.5105C61.6665 47.5093 61.5533 47.5082 61.4366 47.5069C61.3369 47.5064 61.2373 47.5059 61.1347 47.5054C60.8383 47.4639 60.7099 47.3989 60.5 47.1878C60.4182 46.8663 60.3754 46.6354 60.4707 46.3148C60.7466 45.96 61.0847 45.9448 61.5116 45.9403Z" fill="white"/>
<path d="M44.4491 64.5044C44.5583 64.5032 44.6675 64.502 44.7801 64.5008C44.8976 64.5006 45.0152 64.5004 45.1364 64.5002C45.2575 64.4996 45.3786 64.4989 45.5034 64.4983C45.7596 64.4972 46.0158 64.4968 46.272 64.4969C46.5997 64.4969 46.9272 64.4944 47.2549 64.4912C47.5682 64.4886 47.8816 64.4887 48.195 64.4885C48.3711 64.4864 48.3711 64.4864 48.5507 64.4844C48.6602 64.485 48.7697 64.4855 48.8825 64.4861C48.9786 64.4859 49.0747 64.4856 49.1737 64.4853C49.5069 64.5439 49.6651 64.6741 49.9063 64.9067C49.9685 65.0942 49.9685 65.0942 49.9649 65.2817C49.9667 65.3745 49.9667 65.3745 49.9685 65.4692C49.8716 65.7611 49.6887 65.8626 49.4375 66.0317C49.1701 66.0793 49.1701 66.0793 48.8739 66.0802C48.7625 66.0814 48.6512 66.0826 48.5364 66.0838C48.417 66.083 48.2975 66.0823 48.1745 66.0815C48.0512 66.0818 47.9279 66.0822 47.8008 66.0826C47.5404 66.0831 47.2799 66.0823 47.0195 66.0806C46.686 66.0784 46.3527 66.0797 46.0193 66.0819C45.7005 66.0836 45.3818 66.0824 45.0631 66.0815C44.9435 66.0822 44.8239 66.083 44.7006 66.0838C44.5895 66.0826 44.4784 66.0814 44.364 66.0802C44.2663 66.0799 44.1686 66.0796 44.068 66.0793C43.7474 66.0195 43.638 65.9086 43.4375 65.6567C43.336 65.374 43.3337 65.2274 43.4082 64.936C43.6481 64.5134 43.9934 64.5078 44.4491 64.5044Z" fill="white"/>
<path d="M44.635 52.7814C44.7063 52.7808 44.7777 52.7802 44.8511 52.7795C45.002 52.7786 45.1528 52.7781 45.3036 52.7782C45.5337 52.7778 45.7636 52.7744 45.9937 52.7708C46.1404 52.7703 46.2871 52.7699 46.4338 52.7697C46.5365 52.7677 46.5365 52.7677 46.6413 52.7656C46.9848 52.7687 47.1735 52.804 47.4653 52.9914C47.6562 53.1879 47.6562 53.1879 47.7152 53.3754C47.7132 53.4373 47.7111 53.4992 47.709 53.5629C47.7092 53.6557 47.7092 53.6557 47.7094 53.7504C47.6295 54.0322 47.514 54.1343 47.2812 54.3129C47.0084 54.3502 46.7717 54.3656 46.499 54.3627C46.4235 54.3631 46.3479 54.3634 46.27 54.3638C46.1105 54.3641 45.951 54.3634 45.7915 54.3618C45.5477 54.3598 45.3041 54.3618 45.0602 54.3642C44.905 54.3639 44.7499 54.3635 44.5947 54.3627C44.522 54.3635 44.4492 54.3642 44.3742 54.365C44.0409 54.3592 43.8503 54.3418 43.5816 54.1366C43.4101 53.9002 43.3509 53.7619 43.3438 53.4692C43.6339 52.8453 43.994 52.7834 44.635 52.7814Z" fill="white"/>
</g>
<defs>
<clipPath id="clip0_530_4873">
<rect width="48" height="48" fill="white" transform="translate(29 29)"/>
</clipPath>
</defs>
</svg>
