<svg width="108" height="108" viewBox="0 0 108 108" fill="none" xmlns="http://www.w3.org/2000/svg">
<circle cx="54" cy="54.0005" r="53.0737" fill="#1B2351"/>
<g clip-path="url(#clip0_530_5953)">
<path d="M58.6879 33.1458C58.7719 33.1908 58.7719 33.1908 58.8576 33.2366C61.9832 34.9144 64.5029 37.5017 66.2817 40.5521C66.3307 40.6349 66.3307 40.6349 66.3808 40.7194C67.4049 42.4667 68.0272 44.3899 68.4379 46.3646C68.4546 46.442 68.4713 46.5193 68.4885 46.599C69.4361 51.1781 68.3892 56.3794 65.8489 60.2851C65.5355 60.7469 65.2089 61.1983 64.8754 61.6458C65.0148 61.9708 65.1996 62.1793 65.4504 62.4266C65.5259 62.5015 65.6015 62.5765 65.6793 62.6537C65.7582 62.731 65.8371 62.8083 65.9184 62.888C66.0379 63.0062 66.0379 63.0062 66.1597 63.1268C66.3562 63.3211 66.5531 63.5149 66.7504 63.7083C66.8007 63.6755 66.851 63.6426 66.9028 63.6087C67.2043 63.4897 67.3756 63.5349 67.6879 63.6146C67.9025 63.7702 67.9025 63.7702 68.109 63.9761C68.1881 64.0539 68.2672 64.1317 68.3487 64.2118C68.4338 64.2978 68.5188 64.3838 68.6064 64.4724C68.6982 64.5636 68.79 64.6546 68.882 64.7455C69.131 64.9924 69.3785 65.2407 69.6257 65.4894C69.8851 65.75 70.1456 66.0094 70.4059 66.269C70.8432 66.7054 71.2795 67.1428 71.7152 67.5808C72.2179 68.086 72.7223 68.5895 73.2275 69.0922C73.662 69.5246 74.0955 69.9578 74.5284 70.3918C74.7865 70.6507 75.045 70.9093 75.3043 71.167C75.5484 71.4098 75.7912 71.6536 76.0333 71.8984C76.164 72.0299 76.2957 72.1603 76.4276 72.2907C77.0979 72.9723 77.5363 73.6719 77.5551 74.6478C77.5418 75.7763 76.9627 76.511 76.1815 77.2761C75.5472 77.8322 74.8667 77.9963 74.0395 77.984C72.7493 77.8557 71.9775 76.9178 71.1078 76.0526C71.0219 75.9674 70.936 75.8823 70.8475 75.7945C70.5656 75.5151 70.2841 75.2351 70.0028 74.9551C69.9054 74.8582 69.808 74.7613 69.7106 74.6644C69.3057 74.2616 68.901 73.8586 68.4967 73.4553C67.919 72.8792 67.3406 72.3039 66.761 71.7297C66.3522 71.3245 65.9443 70.9184 65.5371 70.5117C65.2943 70.2692 65.0511 70.0272 64.807 69.786C64.5352 69.5176 64.2654 69.2474 63.9956 68.977C63.9148 68.8977 63.8339 68.8183 63.7505 68.7365C63.6407 68.6256 63.6407 68.6256 63.5287 68.5124C63.4328 68.417 63.4328 68.417 63.335 68.3196C63.1481 68.059 63.11 67.871 63.0942 67.5521C63.1561 67.4283 63.2179 67.3046 63.2817 67.1771C62.6629 66.5583 62.0442 65.9396 61.4067 65.3021C61.0162 65.4583 60.8064 65.5744 60.4868 65.8236C59.8286 66.3109 59.1306 66.7035 58.4067 67.0833C58.3143 67.132 58.3143 67.132 58.22 67.1815C56.3354 68.1566 54.3079 68.7175 52.2192 69.0521C52.1544 69.0626 52.0896 69.0731 52.0228 69.0839C50.0742 69.3484 47.8561 69.2762 45.9379 68.8646C45.8518 68.847 45.7656 68.8293 45.6769 68.8112C40.6918 67.767 36.3198 64.7501 33.5281 60.495C33.4135 60.3169 33.3004 60.1379 33.1879 59.9583C33.1524 59.9022 33.1169 59.846 33.0804 59.7881C32.0633 58.1543 31.3728 56.2973 30.9379 54.4271C30.9104 54.3105 30.8828 54.1939 30.8544 54.0737C29.7999 49.2198 30.7243 43.9382 33.4058 39.7522C36.2464 35.4312 40.5457 32.3749 45.6131 31.2771C50.0578 30.3788 54.6955 30.9684 58.6879 33.1458ZM37.0317 37.1771C36.9014 37.3 36.9014 37.3 36.7684 37.4254C33.9326 40.1686 32.1393 44.0537 31.6879 47.9583C31.6776 48.0425 31.6672 48.1266 31.6565 48.2132C31.1731 52.8642 32.5908 57.6425 35.5317 61.2708C35.7432 61.5155 35.9583 61.7555 36.1777 61.993C36.3547 62.1858 36.5236 62.383 36.6919 62.5833C39.442 65.7156 43.8287 67.6423 47.9318 68.0053C52.8834 68.3054 57.7109 66.9242 61.4646 63.6003C61.7634 63.3296 62.0543 63.0511 62.3442 62.7708C62.4121 62.7078 62.48 62.6447 62.55 62.5797C65.3195 59.9447 66.9754 56.0968 67.5004 52.3646C67.5093 52.3038 67.5181 52.2429 67.5272 52.1803C68.1266 47.5681 66.7503 42.8254 63.96 39.1412C63.1534 38.0958 62.2566 37.0618 61.2192 36.2396C61.1323 36.169 61.0454 36.0984 60.9559 36.0257C60.1787 35.4043 59.3576 34.8688 58.5004 34.3646C58.4437 34.331 58.3869 34.2974 58.3285 34.2628C56.2845 33.0688 53.9879 32.437 51.6567 32.1146C51.5691 32.1021 51.4815 32.0897 51.3912 32.0769C46.0944 31.468 40.8309 33.544 37.0317 37.1771ZM63.9379 62.6771C63.7522 62.867 63.5747 63.0585 63.3989 63.2572C63.0384 63.6634 62.6761 64.0263 62.2504 64.3646C62.3898 64.6896 62.5746 64.8981 62.8254 65.1454C62.9009 65.2203 62.9765 65.2952 63.0543 65.3724C63.1332 65.4498 63.2121 65.5271 63.2934 65.6068C63.3731 65.6856 63.4527 65.7644 63.5347 65.8456C63.7312 66.0398 63.9281 66.2337 64.1254 66.4271C64.584 66.0457 65.0136 65.6448 65.4321 65.2201C65.5148 65.1367 65.5148 65.1367 65.5993 65.0516C65.7332 64.9166 65.8669 64.7812 66.0004 64.6458C65.6047 64.1742 65.1933 63.7278 64.7583 63.2923C64.6998 63.2327 64.6413 63.1731 64.581 63.1116C64.4969 63.0272 64.4969 63.0272 64.4111 62.9411C64.3607 62.8903 64.3102 62.8395 64.2583 62.7872C64.1301 62.6572 64.1301 62.6572 63.9379 62.6771ZM67.0441 65.1853C66.9254 65.3041 66.8069 65.4231 66.6886 65.5423C66.6263 65.6048 66.564 65.6672 66.4998 65.7315C66.2999 65.9319 66.1004 66.1326 65.9008 66.3333C65.7658 66.4689 65.6307 66.6044 65.4956 66.7398C65.1636 67.0728 64.832 67.4061 64.5004 67.7396C64.9288 68.2525 65.3824 68.7308 65.8535 69.2045C65.9309 69.2826 66.0083 69.3608 66.088 69.4413C66.3423 69.6979 66.597 69.9542 66.8519 70.2104C66.9401 70.2992 67.0284 70.388 67.1167 70.4767C67.4839 70.846 67.8513 71.2152 68.2191 71.584C68.7437 72.1101 69.2674 72.6369 69.7901 73.1649C70.1592 73.5377 70.5292 73.9095 70.8999 74.2807C71.1206 74.5018 71.3408 74.7233 71.5603 74.9456C71.8053 75.1936 72.0517 75.44 72.2985 75.6861C72.3699 75.7591 72.4414 75.8321 72.5151 75.9073C73.013 76.3996 73.5216 76.7718 74.2303 76.8692C75.0659 76.7746 75.5918 76.3248 76.1075 75.6812C76.4136 75.2416 76.4239 74.8568 76.3767 74.3435C76.1714 73.6063 75.6418 73.123 75.1137 72.6007C75.0306 72.5174 74.9475 72.4341 74.8619 72.3483C74.6352 72.1214 74.4079 71.8951 74.1803 71.6691C73.942 71.4322 73.7045 71.1946 73.4669 70.957C73.0683 70.5589 72.6693 70.1612 72.2699 69.7639C71.7566 69.2533 71.2441 68.7418 70.732 68.2301C70.2917 67.7902 69.8511 67.3508 69.4104 66.9114C69.2686 66.77 69.1269 66.6285 68.9851 66.487C68.7219 66.2243 68.4582 65.962 68.1945 65.6998C68.0763 65.5817 68.0763 65.5817 67.9556 65.4612C67.8485 65.355 67.8485 65.355 67.7393 65.2466C67.677 65.1845 67.6146 65.1224 67.5504 65.0585C67.2971 64.8269 67.3228 64.9176 67.0441 65.1853Z" fill="white"/>
<path d="M60.0004 36.7083C60.0495 36.7481 60.0986 36.7878 60.1492 36.8288C62.2377 38.524 63.8374 40.5519 64.9691 42.9896C65.0192 43.0942 65.0692 43.1989 65.1207 43.3067C66.9597 47.3372 66.8964 52.0673 65.3676 56.1732C64.5526 58.286 63.3262 60.0892 61.7816 61.7396C61.6999 61.8274 61.6182 61.9153 61.5341 62.0058C58.6468 65.041 54.4245 66.8059 50.2548 66.9149C45.9241 66.969 41.7903 65.683 38.5316 62.7708C38.3988 62.6575 38.266 62.5442 38.1332 62.431C34.7997 59.4733 32.9957 55.199 32.7308 50.7952C32.7269 50.7253 32.7231 50.6554 32.7191 50.5833C32.7134 50.4822 32.7078 50.381 32.7019 50.2768C32.5942 45.848 34.3644 41.6471 37.3246 38.4076C37.3683 38.3596 37.4121 38.3117 37.4571 38.2623C40.3236 35.1953 44.5558 33.3345 48.7343 33.1488C52.7823 33.0916 56.8172 34.1035 60.0004 36.7083ZM38.2973 39.0638C35.3767 42.0525 33.7998 46.1734 33.8477 50.3349C34.0025 54.8544 35.927 58.7641 39.1832 61.8445C42.161 64.5775 46.3571 65.9558 50.3627 65.7862C54.5939 65.5385 58.5303 63.6604 61.3801 60.5218C62.2897 59.4892 63.0254 58.3665 63.6566 57.1458C63.7016 57.0596 63.7016 57.0596 63.7474 56.9717C65.5676 53.4292 65.8385 49.1564 64.667 45.3688C63.9022 43.0289 62.6949 40.96 60.9817 39.1945C60.8516 39.0599 60.7238 38.9231 60.5962 38.7862C59.5454 37.6866 58.3225 36.844 56.9793 36.1401C56.834 36.0633 56.6907 35.9827 56.5477 35.9016C50.4984 32.6028 43.0611 34.5068 38.2973 39.0638Z" fill="white"/>
<path d="M45.4691 42.1454C45.6221 42.2466 45.7738 42.3497 45.9243 42.4545C46.6917 43.0382 46.6917 43.0382 47.591 43.2829C47.8953 43.2059 48.1764 43.1019 48.4691 42.9892C50.3857 42.6544 52.2983 43.1997 53.881 44.2903C55.4252 45.4736 56.2903 47.0094 56.6829 48.8896C56.7287 49.2521 56.741 49.6084 56.7426 49.9736C56.7429 50.0472 56.7433 50.1209 56.7437 50.1968C56.7378 50.7936 56.6455 51.3256 56.4902 51.9031C56.3705 52.5288 56.6793 52.9129 57.0062 53.4189C57.3678 53.9946 57.7007 54.5732 57.9906 55.1884C58.0208 55.2515 58.0509 55.3146 58.082 55.3797C58.4906 56.2691 58.7068 57.2762 58.389 58.2294C58.1302 58.5776 57.8817 58.7892 57.4691 58.9267C55.6564 59.0739 54.0191 58.2292 52.6068 57.1512C52.308 56.9351 52.1549 56.8629 51.7815 56.8788C51.6784 56.9049 51.5753 56.931 51.4691 56.9579C51.3669 56.9828 51.3669 56.9828 51.2626 57.0081C51.1993 57.0244 51.1359 57.0407 51.0707 57.0575C49.2474 57.4244 47.3654 57.048 45.7855 56.0907C44.156 55.0052 43.0877 53.5051 42.6303 51.6003C42.4135 50.4386 42.4026 49.252 42.72 48.1037C42.8115 47.7251 42.7807 47.5462 42.5944 47.1959C42.4512 46.969 42.2994 46.7488 42.1461 46.5286C41.3344 45.36 40.5373 43.8887 40.6879 42.4267C40.78 42.0279 40.8986 41.7491 41.1859 41.454C42.5517 40.6282 44.2162 41.4328 45.4691 42.1454ZM41.9773 42.3538C41.7965 42.5052 41.7965 42.5052 41.7803 42.7134C41.9243 43.9151 42.5926 45.4443 43.4066 46.3642C43.4685 46.3642 43.5304 46.3642 43.5941 46.3642C43.7072 46.2089 43.7072 46.2089 43.8226 46.0068C44.3575 45.179 45.0732 44.4936 45.9379 44.0204C45.8038 43.6183 45.5071 43.5204 45.1527 43.329C45.0848 43.2917 45.0169 43.2544 44.9469 43.216C43.5174 42.3491 43.5174 42.3491 41.9773 42.3538ZM47.6254 44.3954C47.5694 44.4186 47.5134 44.4418 47.4557 44.4657C46.0203 45.0765 44.9423 45.9566 44.2566 47.391C44.2461 47.7141 44.4397 47.8819 44.6371 48.1279C44.6794 48.1809 44.7218 48.2339 44.7654 48.2885C44.9045 48.4611 45.0457 48.6316 45.1879 48.8017C45.2347 48.8578 45.2814 48.9138 45.3296 48.9716C46.5568 50.4321 47.8572 51.8957 49.3092 53.1365C49.5217 53.3201 49.7274 53.51 49.934 53.7001C50.319 54.0476 50.7163 54.3752 51.1234 54.6962C51.1784 54.7398 51.2334 54.7833 51.2901 54.8281C51.5886 55.0611 51.8896 55.2712 52.2191 55.4579C53.7731 54.5391 54.9177 53.3916 55.4066 51.6142C55.4275 51.5385 55.4484 51.4629 55.47 51.3849C55.8496 49.7788 55.4829 48.2156 54.6686 46.813C54.4042 46.394 54.0757 46.0487 53.7191 45.7079C53.6617 45.6487 53.6043 45.5895 53.5452 45.5285C52.4057 44.4255 50.8778 44.0656 49.3395 44.0816C48.7298 44.0991 48.1925 44.158 47.6254 44.3954ZM43.7816 48.8954C43.4109 49.6368 43.6316 50.9891 43.8402 51.7665C44.1886 52.7933 44.707 53.5668 45.4691 54.3329C45.5246 54.3917 45.5801 54.4504 45.6372 54.5109C46.6954 55.5434 48.2396 56.0382 49.6879 56.0439C50.0761 56.0389 50.4346 56.0155 50.8129 55.9267C50.421 55.5238 50.0042 55.1619 49.5742 54.8006C48.6466 54.0145 47.7662 53.1787 46.9068 52.3192C46.7636 52.1762 46.6196 52.034 46.4757 51.8918C45.95 51.3691 45.46 50.834 44.9986 50.2522C44.6189 49.7783 44.2151 49.321 43.7816 48.8954ZM55.6879 53.6767C55.6525 53.7324 55.6171 53.7881 55.5806 53.8455C54.9658 54.7713 54.2327 55.5767 53.2504 56.1142C53.564 56.4652 53.9104 56.679 54.3168 56.9052C54.3827 56.9419 54.4486 56.9787 54.5166 57.0165C55.3321 57.4592 56.238 57.9296 57.1879 57.8017C57.4057 57.6218 57.4057 57.6218 57.4164 57.3095C57.3867 56.3919 56.9168 55.5291 56.4789 54.7431C56.4437 54.6798 56.4085 54.6166 56.3722 54.5514C56.1772 54.2138 55.9818 53.9393 55.6879 53.6767Z" fill="white"/>
<path d="M49.11 35.2869C49.1924 35.2842 49.2748 35.2815 49.3598 35.2788C49.4685 35.2752 49.4685 35.2752 49.5795 35.2715C49.8407 35.3112 49.9673 35.4018 50.1566 35.5835C50.2045 35.9662 50.186 36.1019 49.9691 36.4272C49.7322 36.479 49.7322 36.479 49.4326 36.5031C49.323 36.5129 49.2133 36.5227 49.1003 36.5328C48.9242 36.5473 48.9242 36.5473 48.7445 36.562C45.0163 36.9188 41.6458 38.4797 39.2007 41.3737C38.8366 41.818 38.5182 42.2835 38.2149 42.7715C38.0629 42.9897 38.0629 42.9897 37.7816 43.1772C37.5162 43.2104 37.3721 43.214 37.143 43.0718C36.9797 42.8139 37.0047 42.6351 37.0316 42.3335C37.9685 40.4879 39.723 38.8635 41.4379 37.7397C41.4995 37.6993 41.5611 37.6588 41.6245 37.6172C43.8821 36.1599 46.4428 35.4412 49.11 35.2869Z" fill="white"/>
<path d="M61.6 57.163C61.8754 57.2392 61.8754 57.2392 62.0629 57.5204C62.1041 57.8157 62.0815 57.9558 61.9351 58.2177C59.9893 60.7756 57.4189 63.2774 54.1879 64.0829C53.8839 64.065 53.8839 64.065 53.6254 63.9892C53.4379 63.7079 53.4379 63.7079 53.417 63.3878C53.5316 63.0517 53.5316 63.0517 53.7005 62.9331C53.9395 62.8231 54.1806 62.7309 54.4281 62.6415C54.6095 62.5698 54.7907 62.4974 54.9716 62.4243C55.1065 62.3703 55.1065 62.3703 55.2442 62.3152C57.5294 61.3584 59.3883 59.6253 60.8075 57.6299C61.1793 57.1372 61.1793 57.1372 61.6 57.163Z" fill="white"/>
<path d="M63.856 49.4698C64.1255 49.5518 64.1255 49.5518 64.313 49.7393C64.335 49.9745 64.3441 50.1954 64.3423 50.4307C64.3417 50.536 64.3417 50.536 64.3411 50.6435C64.3178 51.8491 64.2493 53.8609 63.4788 54.8407C63.2818 54.9893 63.2818 54.9893 62.9361 54.9776C62.8336 54.9505 62.7311 54.9235 62.6255 54.8956C62.3819 54.4083 62.5695 53.8443 62.7075 53.3487C62.991 52.2803 63.1094 51.212 63.1375 50.1074C63.2184 49.6679 63.4017 49.4516 63.856 49.4698Z" fill="white"/>
<path d="M67.688 66.2393C68.039 66.505 68.3427 66.8187 68.6517 67.1315C68.8009 67.2818 68.9528 67.4289 69.1052 67.5759C69.2011 67.6715 69.2968 67.7672 69.3923 67.863C69.4791 67.9493 69.5658 68.0357 69.6552 68.1246C69.8893 68.4601 69.8941 68.6507 69.8442 69.0518C69.686 69.2393 69.686 69.2393 69.4692 69.333C68.6423 69.2401 68.0678 68.4081 67.5063 67.8506C67.443 67.7877 67.3797 67.7249 67.3145 67.6601C67.2551 67.6006 67.1958 67.541 67.1346 67.4796C67.0542 67.399 67.0542 67.399 66.9721 67.3167C66.7833 67.11 66.7513 66.9966 66.7212 66.7139C66.7505 66.4268 66.7505 66.4268 66.9028 66.2451C67.2095 66.1079 67.3651 66.1514 67.688 66.2393Z" fill="white"/>
<path d="M52.5943 63.4269C52.7759 63.5851 52.7759 63.5851 52.8755 63.8019C52.8228 64.0949 52.8228 64.0949 52.688 64.3644C52.0017 64.8198 50.8431 64.7592 50.0396 64.7746C49.9715 64.777 49.9033 64.7794 49.8332 64.7819C49.5252 64.783 49.3579 64.7806 49.1263 64.568C48.992 64.2787 49.034 64.1025 49.1255 63.8019C49.4239 63.603 49.5391 63.5839 49.8861 63.5584C50.0269 63.5472 50.0269 63.5472 50.1705 63.5359C50.2685 63.5289 50.3664 63.522 50.4673 63.5148C50.6603 63.5002 50.8533 63.4855 51.0463 63.4705C51.1818 63.46 51.1818 63.46 51.32 63.4493C52.3803 63.3517 52.3803 63.3517 52.5943 63.4269Z" fill="white"/>
<path d="M36.6567 43.6982C36.9671 43.7435 37.0344 43.7779 37.2192 44.0205C37.2072 44.7302 36.9853 45.3638 36.7563 46.0303C36.7226 46.1322 36.6888 46.2341 36.654 46.3392C36.4006 47.0892 36.4006 47.0892 36.188 47.3018C35.8657 47.3369 35.8657 47.3369 35.5317 47.3018C35.3407 47.1116 35.254 46.9993 35.241 46.7272C35.36 46.1191 35.5494 45.5452 35.7603 44.9639C35.7884 44.8862 35.8165 44.8084 35.8455 44.7284C36.2083 43.7636 36.2083 43.7636 36.6567 43.6982Z" fill="white"/>
<path d="M35.9067 48.3325C36.2641 48.8685 36.0985 49.6025 36.0485 50.2251C36.0005 50.395 36.0005 50.395 35.7192 50.5825C35.438 50.6177 35.438 50.6177 35.1567 50.5825C34.9683 50.3879 34.8833 50.262 34.8447 49.9922C34.8524 49.7512 34.8611 49.5108 34.8755 49.27C34.8784 49.1981 34.8813 49.1262 34.8843 49.0521C34.9063 48.7546 34.9363 48.5603 35.1274 48.3267C35.4248 48.2061 35.6028 48.24 35.9067 48.3325Z" fill="white"/>
<path d="M70.6997 69.5557C71.1668 69.631 71.3487 69.812 71.6617 70.1548C71.872 70.446 71.9278 70.6632 71.9067 71.0205C71.8071 71.2021 71.8071 71.2021 71.6255 71.3018C71.3735 71.3604 71.3735 71.3604 71.063 71.3018C70.7368 71.0723 70.3999 70.8193 70.2192 70.458C70.2017 70.1299 70.2017 70.1299 70.2192 69.8018C70.4067 69.6143 70.4067 69.6143 70.6997 69.5557Z" fill="white"/>
</g>
<defs>
<clipPath id="clip0_530_5953">
<rect width="48" height="48" fill="white" transform="translate(30.0005 30.4268)"/>
</clipPath>
</defs>
</svg>
