<svg width="40" height="40" viewBox="0 0 40 40" fill="none" xmlns="http://www.w3.org/2000/svg">
<path d="M11.6668 10.8337H27.9168C31.428 10.8337 33.1835 10.8337 34.4447 11.6763C34.9907 12.0411 35.4593 12.5099 35.8242 13.0558C36.5967 14.2119 36.661 15.4333 36.6663 18.3337M20.0002 10.8337L18.9445 8.72221C18.0698 6.97296 17.2705 5.21219 15.3323 4.48534C14.4833 4.16699 13.5135 4.16699 11.5739 4.16699C8.5465 4.16699 7.03276 4.16699 5.89693 4.80086C5.08728 5.25269 4.4192 5.92078 3.96736 6.73043C3.3335 7.86626 3.3335 9.37999 3.3335 12.4074V17.5003C3.3335 25.357 3.3335 29.2855 5.77428 31.7262C8.036 33.988 11.575 34.1538 18.3335 34.166H21.6668" stroke="white" stroke-width="1.5" stroke-linecap="round"/>
<path d="M30.8332 22.5V35.8333M30.8332 22.5C29.6662 22.5 27.4857 25.8238 26.6665 26.6667M30.8332 22.5C32.0002 22.5 34.1807 25.8238 34.9998 26.6667" stroke="white" stroke-width="1.5" stroke-linecap="round" stroke-linejoin="round"/>
</svg>
