<svg width="1240" height="736" viewBox="0 0 1240 736" fill="none" xmlns="http://www.w3.org/2000/svg">
<g clip-path="url(#clip0_103_2803)">
<path d="M1367.28 885.202H1366.77C1346.68 855.505 1326.99 825.096 1307.35 794.793C1242.56 694.791 1178.49 595.879 1103.43 527.024C930.402 368.271 698.95 369.388 265.795 885.202H265.245C698.792 368.842 930.469 367.752 1103.7 526.681C1178.78 595.571 1242.88 694.501 1307.68 794.538C1327.38 824.929 1347.14 855.426 1367.28 885.21M1384.34 885.21H1383.82C1358.19 850.475 1333.07 814.421 1307.99 778.402C1238.36 678.426 1168.95 578.775 1089.39 508.803C902.816 344.721 660.291 343.991 227.866 885.21H227.331C660.117 343.437 902.868 344.194 1089.64 508.452C1169.24 578.45 1238.66 678.127 1308.3 778.12C1333.46 814.236 1358.64 850.396 1384.34 885.21ZM1404.44 885.21H1403.9C1372.34 845.894 1341.36 804.317 1310.31 762.661C1235.44 662.184 1160.15 561.161 1075.34 489.879C874.627 321.207 620.433 319.237 191.677 885.21H191.15C620.238 318.674 874.657 320.67 1075.57 489.51C1160.42 560.818 1235.72 661.858 1310.61 762.362C1341.74 804.123 1372.79 845.806 1404.44 885.202V885.21ZM1427.6 885.21H1427.04C1389.27 841.84 1352.03 794.934 1314.53 747.694C1233.84 646.056 1151.92 542.862 1060.9 470.032C845.565 297.728 579.168 295.406 157.282 885.21H156.769C578.964 294.843 845.587 297.191 1061.13 469.663C1152.19 542.527 1234.12 645.731 1314.83 747.395C1352.42 794.74 1389.74 841.752 1427.6 885.21ZM1443.01 873.647V874.271C1402.36 830.39 1361.88 782.324 1320.9 733.659C1233.66 630.078 1144.1 523.735 1045.66 449.033C815.357 274.257 536.373 272.824 124.784 885.21H124.287C536.147 272.27 815.358 273.721 1045.88 448.654C1144.35 523.383 1233.93 629.752 1321.18 733.343C1362.07 781.902 1402.46 829.845 1443 873.647H1443.01ZM1443.01 844.548V845.164C1405.64 806.067 1367.99 763.751 1329.7 720.724C1235 614.311 1136.46 503.571 1029.09 426.652C783.621 250.804 491.913 251.833 94.2228 885.202H93.7332C491.687 251.288 783.621 250.277 1029.29 426.274C1136.7 503.219 1235.25 613.968 1329.97 720.398C1368.17 763.312 1405.73 805.53 1443 844.539L1443.01 844.548ZM1443.01 815.37V815.977C1409.7 782.157 1375.84 746.006 1341.32 709.133C1238.05 598.869 1128.81 482.22 1010.62 402.725C750.001 227.43 445.766 232.795 65.7179 885.202H65.2434C445.525 232.258 749.994 226.903 1010.82 402.347C1129.05 481.877 1238.3 598.535 1341.58 708.817C1376.02 745.583 1409.78 781.638 1443 815.379L1443.01 815.37ZM1443.01 786.123V786.721C1414.69 758.792 1385.76 729.315 1356.22 699.223C1243.12 583.99 1120.98 459.559 989.619 377.117C714.099 204.197 397.946 216.06 39.36 885.202H38.8929C397.698 215.532 714.076 203.679 989.807 376.722C1121.21 459.189 1243.37 583.647 1356.48 698.889C1385.94 728.893 1414.77 758.273 1443 786.131L1443.01 786.123ZM1443.01 756.813V757.402C1420.83 736.13 1398.16 713.996 1375.02 691.405C1250.72 570.043 1112.85 435.429 965.438 349.751C675.522 181.263 348.643 202.087 15.3071 885.202H14.8476C348.371 201.568 675.485 180.736 965.611 349.355C1113.07 435.059 1250.96 569.691 1375.28 691.071C1398.33 713.574 1420.91 735.62 1443 756.822L1443.01 756.813ZM1443.01 727.442V728.022C1428.45 714.418 1413.62 700.48 1398.55 686.305C1261.71 557.644 1104.46 409.777 937.422 320.679C636.012 159.93 302.721 190.629 0 870.815V869.804C302.767 190.083 636.11 159.481 937.581 320.283C1104.66 409.408 1261.94 557.292 1398.8 685.971C1413.78 700.058 1428.52 713.917 1443 727.442H1443.01ZM1443.01 698.018V698.599C1438.02 694.061 1433 689.488 1427.94 684.88C1277.54 547.892 1096.06 382.596 904.94 290.077C598.731 141.841 267.731 180.542 0 821.711V820.656C267.798 179.997 598.829 141.401 905.091 289.664C1096.26 382.209 1277.76 547.522 1428.18 684.529C1433.15 689.057 1438.1 693.551 1443 698.018H1443.01ZM1443.01 668.542V669.113C1282.11 526.277 1078.71 349.707 867.433 258.173C559.281 124.676 234.352 172.153 0 769.019V767.92C234.442 171.625 559.393 124.236 867.569 257.76C1078.79 349.276 1282.12 525.731 1443 668.55L1443.01 668.542ZM1443.01 639.021V639.593C1273.3 492.535 1051.05 311.683 824.435 225.39C517.894 108.671 203.369 165.065 0 712.106V710.945C203.482 164.52 518.015 108.24 824.555 224.959C1051.13 311.235 1273.31 491.981 1443.01 639.012V639.021ZM1443.01 609.456V610.019C1246.56 443.73 973.114 236.84 707.786 172.927C430.624 106.165 162.351 195.518 0 650.189V648.993C162.479 194.955 430.73 105.734 707.862 172.487C973.159 236.391 1246.54 443.176 1443 609.456H1443.01ZM1443.01 579.848V580.402C1242.8 414.728 956.18 211.452 683.101 149.94C407.159 87.786 145.071 170.429 0 582.961V581.756C145.221 169.867 407.279 87.3551 683.176 149.509C956.217 211.021 1242.78 414.192 1443.01 579.857V579.848ZM1443.01 550.204V550.758C1239.58 386.087 940.684 187.023 660.426 127.384C551.16 104.134 444.726 102.076 347.904 131.526C251.09 160.967 163.873 221.908 93.0176 324.654C57.6501 375.93 26.3731 437.627 0 511.011V509.815C26.3053 436.844 57.4844 375.447 92.7012 324.373C163.609 221.547 250.902 160.563 347.799 131.095C444.688 101.627 551.175 103.685 660.502 126.944C940.722 186.575 1239.56 385.542 1443.01 550.204ZM1443.01 520.517V521.062C1226.06 349.162 893.844 142.905 594.799 97.1601C492.229 81.472 393.562 84.6642 304.793 114.616C216.039 144.558 137.184 201.26 74.2152 292.566C46.1397 333.289 21.228 380.881 0 436.044V434.91C21.1602 380.116 45.9664 332.806 73.8988 292.302C136.92 200.917 215.851 144.171 304.68 114.194C393.502 84.2245 492.222 81.0236 594.851 96.7204C893.859 142.457 1226.02 348.617 1443.01 520.517ZM1443.01 490.794V491.339C1285.36 368.983 1063.49 230.86 837.844 146.132C669.232 82.8175 498.519 49.3134 350.91 74.481C203.323 99.6399 78.8404 183.444 2.66668 354.746C1.77026 356.76 0.881362 358.791 0 360.831V359.811C0.768367 358.053 1.53673 356.294 2.31263 354.544C78.5542 183.092 203.143 99.2178 350.842 74.0326C498.519 48.8561 669.293 82.3778 837.957 145.71C1063.54 230.42 1285.33 368.473 1443 490.794H1443.01ZM1443.01 461.045V461.581C1274.49 333.412 1029.02 189.793 784.148 108.847C617.428 53.7366 451.009 27.6896 309.381 55.3723C178.758 80.918 69.2283 152.147 0 288.433V287.527C69.3112 151.558 178.788 80.452 309.305 54.9502C451.001 27.2587 617.488 53.3057 784.254 108.434C1029.05 189.354 1274.46 332.911 1443 461.053L1443.01 461.045ZM1443.01 431.269V431.806C1263.3 297.789 992.195 148.946 727.899 72.9861C563.921 25.8605 402.579 6.78689 267.339 36.712C156.295 61.308 62.8554 118.933 0 221.187V220.395C62.9157 118.371 156.31 60.842 267.264 36.2899C402.564 6.3472 563.966 25.4208 727.997 72.564C992.225 148.507 1263.26 297.279 1443.01 431.278V431.269ZM1443.01 401.467V402.004C1251.99 262.245 953.543 108.706 670.099 38.8576C509.578 -0.705373 353.871 -13.4211 225.244 18.421C133.816 41.0473 56.0757 86.1943 0 160.194V159.499C56.1134 85.6579 133.809 40.59 225.154 17.9813C353.84 -13.8696 509.6 -1.15385 670.174 38.4179C953.558 108.258 1251.93 261.735 1443 401.476L1443.01 401.467ZM304.861 885.202C736.442 394.634 957.664 391.372 1118.01 544.427C1189.17 612.35 1248.33 711.033 1308.58 811.536C1323.32 836.124 1338.13 860.825 1353.2 885.21H1352.71C1337.7 860.904 1322.94 836.291 1308.25 811.791C1248.02 711.314 1188.87 612.657 1117.76 544.779C957.596 391.908 736.592 395.197 305.426 885.219H304.868L304.861 885.202Z" fill="url(#paint0_radial_103_2803)"/>
<path d="M67.987 58.6066C56.6204 59.6915 55.7527 60.8943 55.0834 79.0349C55.0834 79.1155 54.9656 79.1155 54.9594 79.0349C54.29 60.9005 53.4286 59.6915 42.0558 58.6066C41.9814 58.6004 41.9814 58.4888 42.0558 58.4826C53.4286 57.3976 54.2962 56.1949 54.9656 38.0604C54.9656 37.9799 55.0834 37.9799 55.0896 38.0604C55.7589 56.1949 56.6204 57.4038 67.9932 58.4888C68.0675 58.495 68.0675 58.6066 67.9932 58.6128L67.987 58.6066Z" fill="url(#paint1_radial_103_2803)"/>
<path d="M167.342 448.922C158.002 449.815 157.295 450.801 156.744 465.699C156.744 465.761 156.645 465.761 156.645 465.699C156.093 450.801 155.386 449.809 146.046 448.922C145.985 448.922 145.985 448.829 146.046 448.823C155.386 447.93 156.093 446.945 156.645 432.046C156.645 431.985 156.744 431.985 156.744 432.046C157.295 446.945 158.002 447.937 167.342 448.823C167.404 448.823 167.404 448.916 167.342 448.922Z" fill="url(#paint2_radial_103_2803)"/>
<path d="M769.342 471.922C760.002 472.815 759.295 473.801 758.744 488.699C758.744 488.761 758.645 488.761 758.645 488.699C758.093 473.801 757.386 472.809 748.046 471.922C747.985 471.922 747.985 471.829 748.046 471.823C757.386 470.93 758.093 469.945 758.645 455.046C758.645 454.985 758.744 454.985 758.744 455.046C759.295 469.945 760.002 470.937 769.342 471.823C769.404 471.823 769.404 471.916 769.342 471.922Z" fill="url(#paint3_radial_103_2803)"/>
<path d="M1188.34 86.9223C1179 87.8151 1178.3 88.8009 1177.74 103.699C1177.74 103.761 1177.64 103.761 1177.64 103.699C1177.09 88.8009 1176.39 87.8089 1167.05 86.9223C1166.98 86.9223 1166.98 86.8293 1167.05 86.8231C1176.39 85.9304 1177.09 84.9446 1177.64 70.0465C1177.64 69.9845 1177.74 69.9845 1177.74 70.0465C1178.3 84.9446 1179 85.9366 1188.34 86.8231C1188.4 86.8231 1188.4 86.9161 1188.34 86.9223Z" fill="url(#paint4_radial_103_2803)"/>
<path d="M409.987 735.389C398.62 736.474 397.753 737.677 397.083 755.817C397.083 755.898 396.966 755.898 396.959 755.817C396.29 737.683 395.429 736.474 384.056 735.389C383.981 735.383 383.981 735.271 384.056 735.265C395.422 734.18 396.29 732.977 396.959 714.837C396.959 714.756 397.077 714.756 397.083 714.837C397.753 732.971 398.614 734.18 409.987 735.265C410.061 735.271 410.061 735.383 409.987 735.389Z" fill="url(#paint5_radial_103_2803)"/>
</g>
<defs>
<radialGradient id="paint0_radial_103_2803" cx="0" cy="0" r="1" gradientUnits="userSpaceOnUse" gradientTransform="translate(721.504 442.61) rotate(90) scale(442.61 721.504)">
<stop offset="0.035" stop-color="#EEA20E" stop-opacity="0"/>
<stop offset="0.495" stop-color="#EEA20E"/>
<stop offset="0.725" stop-color="#EEA20E"/>
<stop offset="1" stop-color="#885D08" stop-opacity="0"/>
</radialGradient>
<radialGradient id="paint1_radial_103_2803" cx="0" cy="0" r="1" gradientUnits="userSpaceOnUse" gradientTransform="translate(55.0245 58.5477) rotate(90) scale(20.5477 13.0245)">
<stop offset="0.035" stop-color="#EEA20E" stop-opacity="0"/>
<stop offset="0.495" stop-color="#EEA20E"/>
<stop offset="0.725" stop-color="#EEA20E"/>
<stop offset="1" stop-color="#885D08" stop-opacity="0"/>
</radialGradient>
<radialGradient id="paint2_radial_103_2803" cx="0" cy="0" r="1" gradientUnits="userSpaceOnUse" gradientTransform="translate(156.694 448.873) rotate(90) scale(16.8727 10.6941)">
<stop offset="0.035" stop-color="#EEA20E" stop-opacity="0"/>
<stop offset="0.495" stop-color="#EEA20E"/>
<stop offset="0.725" stop-color="#EEA20E"/>
<stop offset="1" stop-color="#885D08" stop-opacity="0"/>
</radialGradient>
<radialGradient id="paint3_radial_103_2803" cx="0" cy="0" r="1" gradientUnits="userSpaceOnUse" gradientTransform="translate(758.694 471.873) rotate(90) scale(16.8727 10.6941)">
<stop offset="0.035" stop-color="#EEA20E" stop-opacity="0"/>
<stop offset="0.495" stop-color="#EEA20E"/>
<stop offset="0.725" stop-color="#EEA20E"/>
<stop offset="1" stop-color="#885D08" stop-opacity="0"/>
</radialGradient>
<radialGradient id="paint4_radial_103_2803" cx="0" cy="0" r="1" gradientUnits="userSpaceOnUse" gradientTransform="translate(1177.69 86.8727) rotate(90) scale(16.8727 10.6941)">
<stop offset="0.035" stop-color="#EEA20E" stop-opacity="0"/>
<stop offset="0.495" stop-color="#EEA20E"/>
<stop offset="0.725" stop-color="#EEA20E"/>
<stop offset="1" stop-color="#885D08" stop-opacity="0"/>
</radialGradient>
<radialGradient id="paint5_radial_103_2803" cx="0" cy="0" r="1" gradientUnits="userSpaceOnUse" gradientTransform="translate(397.021 735.327) rotate(90) scale(20.5508 13.0214)">
<stop offset="0.035" stop-color="#EEA20E" stop-opacity="0"/>
<stop offset="0.495" stop-color="#EEA20E"/>
<stop offset="0.725" stop-color="#EEA20E"/>
<stop offset="1" stop-color="#885D08" stop-opacity="0"/>
</radialGradient>
<clipPath id="clip0_103_2803">
<rect width="1240" height="736" fill="white"/>
</clipPath>
</defs>
</svg>
