<svg width="40" height="40" viewBox="0 0 40 40" fill="none" xmlns="http://www.w3.org/2000/svg">
<path d="M36.6668 19.9997C36.6668 10.7949 29.2048 3.33301 20.0002 3.33301C10.7954 3.33301 3.3335 10.7949 3.3335 19.9997C3.3335 29.2043 10.7954 36.6663 20.0002 36.6663" stroke="white" stroke-width="2.5" stroke-linecap="round"/>
<path d="M33.3332 9.49799C31.7753 9.61027 29.78 10.2134 28.3963 12.0043C25.8973 15.239 23.3982 15.5089 21.7322 14.4307C19.233 12.8133 21.3332 10.1936 18.4 8.76992C16.4884 7.84204 16.2218 5.31709 17.2858 3.33301" stroke="white" stroke-width="2.5" stroke-linejoin="round"/>
<path d="M3.3335 18.333C4.60433 19.4365 6.38426 20.4467 8.4814 20.4467C12.8142 20.4467 13.6808 21.2745 13.6808 24.586C13.6808 27.8975 13.6808 27.8975 14.5473 30.381C15.111 31.9965 15.308 33.612 14.1845 34.9997" stroke="white" stroke-width="2.5" stroke-linejoin="round"/>
<path d="M33.1645 33.215L36.6665 36.667M35.1803 28.4102C35.1803 32.1345 32.1552 35.1535 28.4233 35.1535C24.6917 35.1535 21.6665 32.1345 21.6665 28.4102C21.6665 24.686 24.6917 21.667 28.4233 21.667C32.1552 21.667 35.1803 24.686 35.1803 28.4102Z" stroke="white" stroke-width="2.5" stroke-linecap="round"/>
</svg>
