<svg width="37" height="36" viewBox="0 0 37 36" fill="none" xmlns="http://www.w3.org/2000/svg">
<g clip-path="url(#clip0_197_10223)">
<path d="M18.52 -0.00390625C18.803 0.106423 18.9844 0.299117 19.1987 0.509979C19.3244 0.631201 19.4504 0.752076 19.5775 0.871824C19.6808 0.970736 19.7803 1.07365 19.8791 1.17712C20.2041 1.44184 20.6487 1.46982 21.0488 1.54269C24.2419 2.17787 27.1276 3.8777 28.9606 6.61783C30.4644 8.92438 31.0248 11.6834 30.488 14.3919C30.0447 16.4634 28.9606 18.2442 27.5 19.758C27.4628 19.7971 27.4256 19.8361 27.3872 19.8764C27.0883 20.1839 26.7701 20.4495 26.4277 20.7072C26.3757 20.7467 26.3237 20.7861 26.2701 20.8268C25.1654 21.6565 25.1654 21.6565 24.8984 21.6565C24.8987 21.6954 24.899 21.7344 24.8992 21.7746C24.9054 22.7248 24.9101 23.6749 24.913 24.6251C24.9145 25.0846 24.9165 25.5441 24.9197 26.0037C24.9227 26.4472 24.9244 26.8908 24.9251 27.3344C24.9256 27.5035 24.9266 27.6726 24.9282 27.8417C24.9302 28.0789 24.9305 28.316 24.9304 28.5531C24.9314 28.6228 24.9324 28.6924 24.9334 28.7642C24.9309 29.1956 24.8655 29.5238 24.6172 29.883C24.3318 30.1545 24.1152 30.2446 23.7251 30.239C23.6683 30.2383 23.6114 30.2377 23.5529 30.2371C23.488 30.2358 23.488 30.2358 23.4219 30.2346C23.4058 30.2827 23.3898 30.3308 23.3733 30.3804C23.2593 30.6351 23.1019 30.8445 22.9341 31.0652C22.6598 31.4323 22.3924 31.8027 22.1343 32.1814C21.7591 32.731 21.3787 33.2768 20.9958 33.8211C20.8353 34.0495 20.6766 34.2791 20.5196 34.5099C19.6418 35.7928 19.6418 35.7928 18.9922 36.0002C18.4306 36.0579 17.9054 36.0721 17.4453 35.719C17.0231 35.2961 16.6816 34.8185 16.3467 34.3259C16.2478 34.1821 16.1489 34.0384 16.05 33.8947C15.9765 33.7874 15.9765 33.7874 15.9015 33.6779C15.6885 33.3681 15.4728 33.0603 15.2568 32.7527C15.1771 32.6389 15.0973 32.5251 15.0176 32.4113C14.978 32.3548 14.9384 32.2983 14.8976 32.24C14.7652 32.0509 14.6329 31.8617 14.5007 31.6724C14.4559 31.6083 14.4111 31.5442 14.3649 31.4782C14.2791 31.3553 14.1933 31.2325 14.1075 31.1096C14.0495 31.0267 14.0495 31.0267 13.9904 30.9421C13.9396 30.8694 13.9396 30.8694 13.8877 30.7952C13.818 30.6972 13.7455 30.6012 13.671 30.5068C13.5781 30.3752 13.5781 30.3752 13.5781 30.2346C13.5373 30.237 13.4965 30.2395 13.4545 30.242C13.0878 30.2547 12.8374 30.2354 12.5234 30.0237C12.0975 29.574 12.0813 29.1685 12.0856 28.5771C12.0856 28.5023 12.0856 28.4275 12.0855 28.3504C12.0856 28.1035 12.0867 27.8566 12.0878 27.6097C12.0881 27.4384 12.0883 27.267 12.0884 27.0957C12.089 26.645 12.0903 26.1943 12.0919 25.7436C12.0933 25.2836 12.094 24.8236 12.0947 24.3636C12.0962 23.4612 12.0986 22.5589 12.1016 21.6565C12.0476 21.6357 11.9936 21.6149 11.9379 21.5935C11.021 21.2147 10.2174 20.4257 9.49999 19.758C9.42848 19.6922 9.42848 19.6922 9.35552 19.6251C7.54026 17.89 6.39032 15.2662 6.32165 12.7647C6.28209 9.77352 7.31649 7.14966 9.37612 4.98059C11.1408 3.17098 13.6059 1.82622 16.1322 1.50424C16.8607 1.40541 17.2097 1.11176 17.6991 0.595432C17.8325 0.454832 17.971 0.320826 18.1133 0.189178C18.1532 0.150295 18.193 0.111412 18.2341 0.0713501C18.3594 0.000213623 18.3594 0.000213623 18.52 -0.00390625ZM17.7266 2.25021C17.554 2.43125 17.3933 2.61972 17.2344 2.81271C17.178 2.88024 17.1216 2.94776 17.0635 3.01733C16.7698 3.30952 16.7698 3.30952 16.6016 3.65646C17.8545 3.65646 19.1075 3.65646 20.3984 3.65646C20.0731 3.21767 20.0731 3.21767 19.7261 2.80392C19.5832 2.64393 19.4467 2.48415 19.313 2.31613C19.088 2.05828 18.845 1.82235 18.5703 1.6174C18.2496 1.6174 17.9465 2.03824 17.7266 2.25021ZM10.1642 5.94522C8.94885 7.16261 8.15642 8.75118 7.74218 10.4065C7.72569 10.4716 7.70919 10.5368 7.69219 10.6039C7.1877 12.9473 7.84134 15.3076 9.06706 17.3119C9.27653 17.6358 9.5249 17.924 9.78124 18.2112C9.83182 18.2702 9.8824 18.3292 9.9345 18.39C10.4524 18.9844 11.022 19.508 11.6577 19.9734C11.6958 20.0015 11.7339 20.0296 11.7731 20.0586C11.997 20.2175 12.2047 20.3401 12.4645 20.4309C12.7878 20.5523 13.0755 20.6798 13.2969 20.9533C13.4938 21.5073 13.4241 22.1396 13.4023 22.7155C13.3907 23.271 13.3791 23.8264 13.3672 24.3987C14.8522 24.3987 16.3372 24.3987 17.8672 24.3987C17.8672 23.2617 17.8672 22.1247 17.8672 20.9533C18.2848 20.9533 18.7025 20.9533 19.1328 20.9533C19.1328 22.0903 19.1328 23.2272 19.1328 24.3987C20.6178 24.3987 22.1028 24.3987 23.6328 24.3987C23.6115 23.2931 23.6115 23.2931 23.5777 22.1879C23.5635 21.1246 23.5635 21.1246 23.8122 20.8196C24.0787 20.6055 24.3713 20.4842 24.6921 20.3734C25.3648 20.112 25.9768 19.4593 26.5156 18.9846C26.5654 18.9409 26.6151 18.8972 26.6664 18.8522C28.3649 17.2574 29.3558 14.9172 29.4635 12.6092C29.5075 11.0894 29.1482 9.65741 28.4844 8.29709C28.4346 8.19458 28.4346 8.19458 28.3838 8.09C27.6819 6.72976 26.6282 5.59781 25.3906 4.71115C25.3496 4.68118 25.3086 4.65122 25.2663 4.62034C24.3566 3.96049 23.3632 3.48409 22.3013 3.12033C22.2484 3.10204 22.1956 3.08376 22.1412 3.06492C21.8809 2.98063 21.7138 2.94179 21.4531 3.02365C21.5024 3.10115 21.5517 3.17864 21.6025 3.25848C22.7786 5.12888 23.641 7.25875 23.6446 9.50146C23.6449 9.55435 23.6451 9.60724 23.6453 9.66173C23.6457 9.77311 23.6458 9.88449 23.6458 9.99587C23.646 10.1626 23.6473 10.3294 23.6486 10.4961C23.6506 11.1106 23.6153 11.6909 23.5019 12.2955C23.4872 12.6297 23.6349 12.7951 23.8429 13.0424C24.6995 14.1119 24.8535 15.6422 24.8426 16.9604C24.8413 17.123 24.8412 17.2856 24.8412 17.4482C24.8408 17.5523 24.8404 17.6565 24.8399 17.7607C24.8399 17.8089 24.8398 17.8571 24.8397 17.9068C24.8374 18.1354 24.8275 18.3439 24.7578 18.5627C24.5133 18.645 24.3111 18.6681 24.0547 18.633C23.8331 18.5026 23.6379 18.3621 23.4357 18.2047C23.101 17.9447 22.7759 17.7703 22.3672 17.6487C22.3282 17.6363 22.2891 17.6239 22.2489 17.6112C22.0247 17.566 21.8103 17.5705 21.5817 17.5715C21.5097 17.5716 21.5097 17.5716 21.4363 17.5718C21.2837 17.5722 21.1311 17.573 20.9785 17.5739C20.8748 17.5743 20.7711 17.5746 20.6673 17.5749C20.4136 17.5757 20.1599 17.5769 19.9062 17.5783C19.8943 17.6683 19.8823 17.7582 19.87 17.8508C19.8528 17.9709 19.8356 18.091 19.8184 18.2112C19.8106 18.2702 19.8029 18.3292 19.795 18.39C19.721 18.8924 19.6027 19.3196 19.2031 19.6526C18.8123 19.8412 18.3358 19.8316 17.9243 19.7141C17.5697 19.5429 17.4395 19.2634 17.3047 18.9143C17.2473 18.6816 17.2126 18.4486 17.1816 18.2112C17.1728 18.15 17.1641 18.0888 17.155 18.0258C17.1337 17.8767 17.1136 17.7276 17.0937 17.5783C16.7988 17.5713 16.5039 17.5662 16.2088 17.5629C16.1089 17.5615 16.0089 17.5596 15.909 17.5571C15.0837 17.5373 14.3549 17.6297 13.6528 18.1057C13.5927 18.1456 13.5326 18.1854 13.4707 18.2265C13.2917 18.3523 13.2917 18.3523 13.1123 18.5064C12.8997 18.6676 12.7847 18.6608 12.5234 18.633C12.3564 18.5979 12.3564 18.5979 12.2422 18.5627C11.769 17.0463 12.1761 14.8606 12.8785 13.4834C13.0465 13.172 13.2391 12.8787 13.4375 12.5862C13.5393 12.3824 13.4822 12.2443 13.4435 12.0209C13.3536 11.4258 13.3392 10.8406 13.3408 10.2395C13.3409 10.1843 13.3409 10.129 13.3409 10.0721C13.3484 7.7091 14.003 5.60049 15.1921 3.57122C15.312 3.36618 15.4293 3.15967 15.5469 2.95334C13.6127 2.95334 11.4743 4.6748 10.1642 5.94522ZM15.8281 4.85178C15.7489 5.00798 15.67 5.16431 15.5911 5.3207C15.5689 5.36454 15.5466 5.40837 15.5237 5.45353C15.3435 5.81183 15.1988 6.17101 15.0767 6.55246C15.0564 6.61444 15.0362 6.67642 15.0154 6.74027C14.28 9.06097 14.3225 11.4642 15.0547 13.7815C15.1011 13.8511 15.1475 13.9207 15.1953 13.9924C15.3724 14.0217 15.3724 14.0217 15.5782 14.013C15.6917 14.012 15.6917 14.012 15.8075 14.0109C15.8868 14.0092 15.9661 14.0074 16.0478 14.0056C16.1277 14.0046 16.2075 14.0037 16.2898 14.0027C16.4875 14.0002 16.6851 13.9967 16.8828 13.9924C16.9298 13.8938 16.9298 13.8938 16.9778 13.7933C17.1679 13.428 17.4325 13.1949 17.7969 13.008C18.3553 12.8328 18.9685 12.8862 19.4844 13.1487C19.7644 13.3913 19.9992 13.6385 20.1172 13.9924C20.6741 13.9924 21.2309 13.9924 21.8047 13.9924C21.992 13.6214 21.992 13.6214 22.1082 13.2434C22.1227 13.1836 22.1371 13.1238 22.1521 13.0622C22.1737 12.9679 22.1737 12.9679 22.1958 12.8718C22.2186 12.7729 22.2186 12.7729 22.2419 12.6719C22.8148 10.1253 22.4808 7.5641 21.3828 5.20334C21.3563 5.14112 21.3297 5.07891 21.3024 5.01481C21.1819 4.82792 21.1819 4.82792 20.9436 4.8095C20.8482 4.80848 20.7528 4.80941 20.6574 4.81186C20.6052 4.81181 20.5531 4.81176 20.4993 4.81171C20.327 4.81195 20.1547 4.81469 19.9823 4.81744C19.8628 4.8181 19.7433 4.8186 19.6238 4.81895C19.3093 4.82029 18.9948 4.82375 18.6802 4.82764C18.3593 4.83123 18.0383 4.83284 17.7174 4.83461C17.0876 4.83838 16.4579 4.84438 15.8281 4.85178ZM18.0781 14.2033C17.9311 14.432 17.9277 14.5842 17.96 14.8507C17.9686 14.9244 17.9771 14.998 17.9859 15.0739C17.996 15.1535 18.0062 15.2331 18.0166 15.3152C18.0264 15.3974 18.0362 15.4797 18.0463 15.5645C18.0793 15.8375 18.1137 16.1103 18.1484 16.383C18.1612 16.4839 18.1739 16.5848 18.1866 16.6856C18.2658 17.3116 18.347 17.9372 18.4297 18.5627C18.4761 18.5627 18.5225 18.5627 18.5703 18.5627C18.6425 18.0185 18.7138 17.4742 18.7845 16.9298C18.8086 16.7446 18.833 16.5594 18.8575 16.3743C18.8928 16.1082 18.9273 15.842 18.9617 15.5758C18.9728 15.493 18.984 15.4103 18.9954 15.325C19.0053 15.2476 19.0151 15.1702 19.0253 15.0904C19.0342 15.0225 19.0431 14.9546 19.0523 14.8846C19.0657 14.6367 19.05 14.4291 18.9087 14.2209C18.6381 14.0343 18.3448 14.0033 18.0781 14.2033ZM13.8594 14.2033C13.4551 15.1153 13.3454 15.8197 13.3672 16.8049C13.8156 16.6729 14.2606 16.5337 14.7031 16.383C14.6268 15.9501 14.4691 15.5476 14.3208 15.135C14.2921 15.0533 14.2634 14.9717 14.2339 14.8875C14.2061 14.81 14.1783 14.7325 14.1497 14.6527C14.1244 14.5816 14.099 14.5106 14.0729 14.4374C14.0161 14.2631 14.0161 14.2631 13.8594 14.2033ZM23.0703 14.2033C22.866 14.6806 22.6697 15.161 22.4814 15.6447C22.4525 15.7167 22.4525 15.7167 22.4229 15.79C22.3524 15.9738 22.2977 16.1383 22.293 16.3361C22.4163 16.531 22.5904 16.5478 22.8066 16.6071C22.8868 16.6299 22.9669 16.6526 23.0494 16.6761C23.2434 16.725 23.4362 16.7683 23.6328 16.8049C23.6625 16.2302 23.6474 15.707 23.5054 15.1482C23.4937 15.1022 23.4821 15.0563 23.4701 15.0089C23.3915 14.7212 23.2817 14.4657 23.1406 14.2033C23.1174 14.2033 23.0942 14.2033 23.0703 14.2033ZM15.6875 15.258C15.7396 15.5705 15.7753 15.7512 15.9028 16.0227C15.9478 16.1184 15.9927 16.2141 16.0391 16.3127C16.3407 16.3127 16.6423 16.3127 16.9531 16.3127C16.9067 15.9647 16.8603 15.6166 16.8125 15.258C16.4412 15.258 16.07 15.258 15.6875 15.258ZM20.1875 15.258C20.1411 15.6061 20.0947 15.9541 20.0469 16.3127C20.3485 16.3127 20.6502 16.3127 20.9609 16.3127C21.0189 16.1778 21.0769 16.043 21.1367 15.904C21.1857 15.7902 21.1857 15.7902 21.2356 15.6741C21.3248 15.4726 21.3248 15.4726 21.3125 15.258C20.9412 15.258 20.57 15.258 20.1875 15.258ZM13.3672 25.6643C13.3672 26.0123 13.3672 26.3604 13.3672 26.719C16.7548 26.719 20.1425 26.719 23.6328 26.719C23.6328 26.3709 23.6328 26.0229 23.6328 25.6643C20.2452 25.6643 16.8575 25.6643 13.3672 25.6643ZM13.3672 27.9143C13.3672 28.2855 13.3672 28.6568 13.3672 29.0393C16.7548 29.0393 20.1425 29.0393 23.6328 29.0393C23.6328 28.668 23.6328 28.2968 23.6328 27.9143C20.2452 27.9143 16.8575 27.9143 13.3672 27.9143ZM15.0547 30.2346C15.3685 30.7277 15.6812 31.2063 16.0259 31.676C16.1055 31.7851 16.185 31.8942 16.2646 32.0034C16.299 32.0504 16.3334 32.0974 16.3689 32.1458C16.4489 32.257 16.5256 32.3706 16.6016 32.4846C16.7624 32.5236 16.7624 32.5236 16.9527 32.5275C17.026 32.5313 17.0992 32.5352 17.1747 32.5391C17.5125 32.5504 17.8501 32.5602 18.188 32.5662C18.3655 32.5703 18.543 32.577 18.7203 32.5863C19.6798 32.6717 19.6798 32.6717 20.5586 32.3718C20.8238 32.0978 20.998 31.7873 21.1617 31.4454C21.2954 31.1861 21.4712 30.959 21.6465 30.7268C21.8452 30.4966 21.8452 30.4966 21.9453 30.2346C19.6714 30.2346 17.3975 30.2346 15.0547 30.2346ZM17.5156 33.7502C17.9288 34.4915 17.9288 34.4915 18.3594 34.8049C18.6332 34.8095 18.7411 34.7725 18.9405 34.5838C18.9866 34.5219 19.0326 34.46 19.0801 34.3962C19.1268 34.3348 19.1736 34.2735 19.2218 34.2103C19.3571 34.0204 19.3571 34.0204 19.4844 33.7502C18.8347 33.7502 18.185 33.7502 17.5156 33.7502Z" fill="white"/>
<path d="M20.4872 6.6348C21.0806 7.19624 21.427 7.96349 21.4622 8.77961C21.4238 9.71667 21.1023 10.4759 20.4232 11.1222C19.6432 11.7272 18.8202 11.8207 17.8672 11.7426C17.0557 11.5769 16.4557 11.057 15.9688 10.4067C15.561 9.72989 15.4658 8.92453 15.6172 8.15668C15.8574 7.38329 16.247 6.7459 16.9532 6.32856C18.1474 5.74018 19.4235 5.76489 20.4872 6.6348Z" fill="#F0BB5D"/>
<path d="M28.2734 20.9531C29.4336 20.9531 30.5938 20.9531 31.7891 20.9531C31.7891 21.3476 31.7891 21.742 31.7891 22.1484C31.0466 22.1484 30.3041 22.1484 29.5391 22.1484C29.5391 23.3086 29.5391 24.4688 29.5391 25.6641C28.3557 25.6641 27.1723 25.6641 25.9531 25.6641C25.9531 25.2464 25.9531 24.8287 25.9531 24.3984C26.7188 24.3984 27.4845 24.3984 28.2734 24.3984C28.2734 23.2615 28.2734 22.1245 28.2734 20.9531Z" fill="white"/>
<path d="M5.21094 20.9531C6.37109 20.9531 7.53125 20.9531 8.72656 20.9531C8.72656 22.0901 8.72656 23.227 8.72656 24.3984C9.49227 24.3984 10.258 24.3984 11.0469 24.3984C11.0469 24.8161 11.0469 25.2337 11.0469 25.6641C9.86352 25.6641 8.68016 25.6641 7.46094 25.6641C7.46094 24.5039 7.46094 23.3438 7.46094 22.1484C6.71844 22.1484 5.97594 22.1484 5.21094 22.1484C5.21094 21.754 5.21094 21.3595 5.21094 20.9531Z" fill="white"/>
<path d="M35.5509 19.9685C35.956 20.2036 36.1798 20.5231 36.3859 20.9352C36.499 21.5236 36.4891 22.0289 36.1867 22.5566C35.8713 23.0045 35.4874 23.2324 34.9532 23.3435C34.4782 23.4091 34.0296 23.2975 33.6209 23.0493C33.21 22.7347 32.9549 22.3082 32.8853 21.7944C32.8687 21.2228 32.9626 20.7092 33.363 20.2769C33.9806 19.7473 34.805 19.6382 35.5509 19.9685ZM34.2985 21.1418C34.1639 21.3262 34.1151 21.4276 34.1095 21.656C34.2326 21.917 34.2326 21.917 34.4611 22.0778C34.7141 22.1053 34.8368 22.1115 35.0455 21.9592C35.1783 21.7772 35.2233 21.6694 35.2345 21.445C35.1543 21.2112 35.0962 21.1653 34.8829 21.0231C34.6276 20.9905 34.5089 20.9882 34.2985 21.1418Z" fill="white"/>
<path d="M3.20703 19.9685C3.61304 20.2042 3.83898 20.5244 4.04199 20.9396C4.16129 21.548 4.13187 22.1092 3.78683 22.6337C3.4815 23.0264 3.0943 23.2425 2.60938 23.3435C2.06563 23.3803 1.59109 23.2898 1.15039 22.9523C0.748872 22.5714 0.551182 22.1287 0.535156 21.5769C0.558721 21.0801 0.672796 20.6509 1.0191 20.2769C1.63674 19.7473 2.46116 19.6382 3.20703 19.9685ZM1.83594 21.3044C1.75998 21.4732 1.75998 21.4732 1.76562 21.656C1.88875 21.917 1.88875 21.917 2.11719 22.0778C2.37022 22.1053 2.49297 22.1115 2.70166 21.9592C2.8393 21.7706 2.89622 21.6799 2.89062 21.445C2.75468 21.2034 2.75468 21.2034 2.53906 21.0231C2.19862 20.9537 2.03891 21.0262 1.83594 21.3044Z" fill="white"/>
<path d="M5.61927 31.6019C6.03208 31.8933 6.29888 32.2691 6.40616 32.7653C6.47626 33.3757 6.35816 33.8462 5.97989 34.3298C5.60284 34.7313 5.15669 34.8843 4.61319 34.9142C4.05113 34.8896 3.62161 34.6548 3.2421 34.2463C2.88587 33.8292 2.85862 33.3777 2.86884 32.8488C2.91713 32.35 3.16839 32.0089 3.53021 31.6738C4.13841 31.2017 4.96914 31.2304 5.61927 31.6019ZM4.31876 32.6686C4.14384 32.8253 4.14384 32.8253 4.08145 33.0422C4.06867 33.2645 4.06867 33.2645 4.20011 33.4552C4.38608 33.6265 4.46691 33.6794 4.71866 33.6794C4.9797 33.5562 4.9797 33.5562 5.14054 33.3278C5.17571 33.0876 5.17571 33.0876 5.14054 32.8356C4.99099 32.6562 4.99099 32.6562 4.78897 32.5544C4.51103 32.5301 4.51103 32.5301 4.31876 32.6686Z" fill="white"/>
<path d="M33.2038 31.4879C33.6332 31.7557 33.9801 32.1321 34.1094 32.625C34.1666 33.1837 34.1576 33.6993 33.8281 34.1718C33.4898 34.5476 33.1091 34.8335 32.5955 34.8969C32.0557 34.9212 31.5704 34.8266 31.151 34.4696C30.7764 34.0706 30.5903 33.6725 30.563 33.126C30.5805 32.6702 30.6996 32.2649 31.0016 31.9164C31.6086 31.3553 32.4211 31.1415 33.2038 31.4879ZM32.0176 32.6645C31.8368 32.8279 31.8368 32.8279 31.8242 33.082C31.8604 33.335 31.8816 33.4402 32.0703 33.6093C32.236 33.6859 32.236 33.6859 32.4219 33.6797C32.667 33.5656 32.7624 33.4853 32.9141 33.2578C32.9082 32.9804 32.8765 32.8696 32.6812 32.6689C32.4214 32.5119 32.2808 32.515 32.0176 32.6645Z" fill="white"/>
<path d="M34.3511 25.7384C34.8399 26.0218 35.1175 26.3727 35.2717 26.9162C35.3905 27.4706 35.2416 27.9856 34.9443 28.4587C34.677 28.8081 34.2562 29.0255 33.8281 29.1091C33.2809 29.174 32.7877 29.0518 32.3458 28.7168C31.9423 28.3396 31.7634 27.9171 31.7188 27.3696C31.7188 26.9303 31.8654 26.5006 32.1406 26.1559C32.7686 25.5832 33.5466 25.3679 34.3511 25.7384ZM32.9844 27.1403C32.9368 27.3994 32.9494 27.509 33.0942 27.7292C33.3314 27.8873 33.4783 27.8834 33.7578 27.8434C33.9381 27.7394 33.9381 27.7394 34.0391 27.5622C34.0918 27.3543 34.0918 27.3543 34.0391 27.1403C33.878 26.9287 33.7725 26.81 33.5117 26.7448C33.251 26.81 33.1454 26.9287 32.9844 27.1403Z" fill="white"/>
<path d="M4.49655 25.836C4.88669 26.1175 5.14338 26.4548 5.23923 26.9294C5.31505 27.4218 5.2556 27.8378 5.02197 28.279C4.64693 28.7352 4.24714 29.0537 3.64813 29.1294C3.11428 29.1514 2.65459 28.9792 2.23007 28.6586C1.86085 28.2939 1.71661 27.8396 1.67773 27.3342C1.71373 26.7944 1.8815 26.3897 2.25781 25.9969C2.89283 25.4475 3.77945 25.4244 4.49655 25.836ZM2.96094 27.1409C2.91335 27.3999 2.92593 27.5095 3.0708 27.7297C3.30794 27.8878 3.45489 27.8839 3.73438 27.844C3.91461 27.7399 3.91461 27.7399 4.01562 27.5627C4.06837 27.3548 4.06837 27.3548 4.01562 27.1409C3.8546 26.9292 3.74905 26.8105 3.48828 26.7454C3.22752 26.8105 3.12196 26.9292 2.96094 27.1409Z" fill="white"/>
<path d="M25.9531 29.0391C26.742 29.0391 27.5309 29.0391 28.3438 29.0391C28.3438 30.176 28.3438 31.313 28.3438 32.4844C28.7382 32.4844 29.1327 32.4844 29.5391 32.4844C29.5391 32.902 29.5391 33.3197 29.5391 33.75C28.7502 33.75 27.9613 33.75 27.1484 33.75C27.1484 32.5898 27.1484 31.4297 27.1484 30.2344C26.754 30.2344 26.3595 30.2344 25.9531 30.2344C25.9531 29.8399 25.9531 29.4455 25.9531 29.0391Z" fill="white"/>
<path d="M8.65625 29.0391C9.44516 29.0391 10.2341 29.0391 11.0469 29.0391C11.0469 29.4335 11.0469 29.828 11.0469 30.2344C10.6524 30.2344 10.258 30.2344 9.85156 30.2344C9.85156 31.3945 9.85156 32.5547 9.85156 33.75C9.06266 33.75 8.27375 33.75 7.46094 33.75C7.46094 33.3323 7.46094 32.9147 7.46094 32.4844C7.85539 32.4844 8.24984 32.4844 8.65625 32.4844C8.65625 31.3474 8.65625 30.2105 8.65625 29.0391Z" fill="white"/>
<path d="M20.1875 18.6328C20.6052 18.6328 21.0228 18.6328 21.4531 18.6328C21.4531 20.1874 21.4531 21.742 21.4531 23.3438C21.0355 23.3438 20.6178 23.3438 20.1875 23.3438C20.1875 21.7891 20.1875 20.2345 20.1875 18.6328Z" fill="white"/>
<path d="M15.5469 18.6328C15.9645 18.6328 16.3822 18.6328 16.8125 18.6328C16.8125 20.1874 16.8125 21.742 16.8125 23.3438C16.3948 23.3438 15.9772 23.3438 15.5469 23.3438C15.5469 21.7891 15.5469 20.2345 15.5469 18.6328Z" fill="white"/>
<path d="M25.9531 26.7188C27.5077 26.7188 29.0623 26.7188 30.6641 26.7188C30.6641 27.1132 30.6641 27.5077 30.6641 27.9141C29.1095 27.9141 27.5548 27.9141 25.9531 27.9141C25.9531 27.5196 25.9531 27.1252 25.9531 26.7188Z" fill="white"/>
<path d="M6.33594 26.7188C7.89055 26.7188 9.44516 26.7188 11.0469 26.7188C11.0469 27.1132 11.0469 27.5077 11.0469 27.9141C9.49227 27.9141 7.93766 27.9141 6.33594 27.9141C6.33594 27.5196 6.33594 27.1252 6.33594 26.7188Z" fill="white"/>
</g>
<defs>
<clipPath id="clip0_197_10223">
<rect width="36" height="36" fill="white" transform="translate(0.5)"/>
</clipPath>
</defs>
</svg>
