<svg width="108" height="107" viewBox="0 0 108 107" fill="none" xmlns="http://www.w3.org/2000/svg">
<circle cx="54" cy="53.5005" r="53.0737" fill="#1B2351"/>
<g clip-path="url(#clip0_530_5931)">
<path d="M63.4911 38.3171C63.5892 38.3162 63.6872 38.3154 63.7882 38.3145C63.8941 38.3155 63.9999 38.3166 64.109 38.3176C64.2191 38.3175 64.3293 38.3174 64.4428 38.3172C64.6766 38.3174 64.9104 38.3185 65.1442 38.3204C65.4969 38.3231 65.8494 38.3224 66.2021 38.3211C69.5364 38.324 72.4021 39.2263 74.8309 41.567C77.0732 43.8311 78.0309 46.6528 78.0304 49.7967C78.0217 51.2635 77.7619 52.5846 77.1567 53.9267C77.1096 54.0323 77.0625 54.1379 77.0139 54.2467C75.72 56.9863 73.4597 58.9292 70.6462 59.9999C70.0132 60.217 69.3935 60.4173 68.7192 60.3954C68.7168 60.4509 68.7144 60.5063 68.7119 60.5635C68.6767 61.0545 68.6287 61.3604 68.2505 61.7079C67.7149 62.0413 67.1256 62.119 66.515 62.2323C66.2831 62.2771 66.0513 62.3219 65.8194 62.3667C65.4547 62.4362 65.0899 62.5052 64.725 62.574C64.3723 62.6409 64.0198 62.709 63.6674 62.7772C63.503 62.8076 63.503 62.8076 63.3353 62.8385C63.2339 62.8582 63.1325 62.878 63.0281 62.8983C62.8941 62.9235 62.8941 62.9235 62.7575 62.9493C62.5042 63.0291 62.4043 63.0865 62.2505 63.3017C62.1736 63.5318 62.1736 63.5318 62.1298 63.7965C62.1007 63.9481 62.1007 63.9481 62.071 64.1028C62.0411 64.2668 62.0411 64.2668 62.0106 64.434C61.989 64.5465 61.9674 64.659 61.9452 64.7749C61.8527 65.2566 61.7627 65.7387 61.6727 66.2209C61.6066 66.5727 61.5391 66.9242 61.4716 67.2758C61.4419 67.4385 61.4419 67.4385 61.4117 67.6046C61.2741 68.3187 61.147 68.878 60.5513 69.3427C60.1315 69.5521 59.7084 69.5512 59.2505 69.4892C58.7219 69.3032 58.4405 68.9963 58.193 68.4974C58.1587 68.4113 58.1244 68.3253 58.0891 68.2367C58.0494 68.1382 58.0097 68.0398 57.9688 67.9383C57.927 67.8322 57.8851 67.7261 57.842 67.6167C57.7974 67.5052 57.7528 67.3938 57.7068 67.2789C57.588 66.9821 57.4702 66.6849 57.3527 66.3875C57.2831 66.2114 57.2132 66.0353 57.1433 65.8593C56.8699 65.1717 56.5983 64.4834 56.3279 63.7945C56.2122 63.4999 56.0963 63.2055 55.9803 62.9111C55.8677 62.6255 55.7555 62.3397 55.6433 62.054C55.6019 61.949 55.5605 61.844 55.5179 61.7359C55.4799 61.639 55.442 61.5421 55.4028 61.4422C55.3695 61.3574 55.3362 61.2726 55.3019 61.1853C55.2292 60.9854 55.1722 60.7902 55.1255 60.5829C55.0241 60.5835 54.9228 60.5842 54.8184 60.5848C53.8638 60.5905 52.9092 60.5947 51.9546 60.5975C51.4638 60.5989 50.973 60.6009 50.4823 60.6041C50.0087 60.6072 49.5352 60.6089 49.0617 60.6096C48.8809 60.6101 48.7001 60.6111 48.5194 60.6126C48.2664 60.6147 48.0135 60.615 47.7605 60.6148C47.6856 60.6158 47.6107 60.6169 47.5335 60.6179C47.2307 60.6162 47.0078 60.6034 46.7378 60.4601C46.507 60.2054 46.5063 59.9815 46.5005 59.6454C46.6266 59.3691 46.696 59.2195 46.9692 59.0829C47.2067 59.0742 47.4415 59.0711 47.679 59.0723C47.7888 59.0722 47.7888 59.0722 47.9008 59.0722C48.1432 59.0723 48.3857 59.073 48.6282 59.0737C48.7961 59.0739 48.9639 59.0741 49.1318 59.0742C49.5742 59.0745 50.0165 59.0754 50.4588 59.0765C50.91 59.0774 51.3612 59.0779 51.8124 59.0783C52.698 59.0793 53.5836 59.081 54.4692 59.0829C54.2527 58.526 54.0361 57.9692 53.813 57.3954C53.5622 57.3946 53.5622 57.3946 53.3064 57.3937C51.7271 57.3884 50.1479 57.3816 48.5686 57.3733C47.7568 57.3691 46.945 57.3654 46.1332 57.3629C45.425 57.3608 44.7169 57.3576 44.0087 57.3533C43.6343 57.3511 43.2599 57.3493 42.8854 57.3488C42.5318 57.3482 42.1783 57.3463 41.8247 57.3434C41.6354 57.3422 41.4461 57.3424 41.2569 57.3426C38.8807 57.3186 36.9199 56.4539 35.2505 54.7704C33.5844 52.9946 33.1998 50.869 33.2645 48.5104C33.2989 47.9065 33.4424 47.3677 33.6567 46.8017C33.6896 46.7056 33.7225 46.6095 33.7563 46.5105C34.4751 44.5813 36.0108 43.1592 37.8286 42.2782C39.0056 41.7534 40.1417 41.6224 41.4154 41.6126C41.5636 41.611 41.7118 41.6085 41.86 41.6049C42.0751 41.5998 42.29 41.5977 42.5051 41.5963C42.5711 41.5942 42.6372 41.5921 42.7052 41.5899C43.0547 41.5914 43.1924 41.6197 43.4488 41.8649C43.6255 42.1678 43.6457 42.3312 43.5942 42.6767C43.4274 42.9706 43.3577 43.0367 43.0317 43.1454C42.824 43.1563 42.616 43.1622 42.4081 43.1652C42.2817 43.1678 42.1553 43.1705 42.0289 43.1732C41.8314 43.1771 41.634 43.1805 41.4366 43.183C40.309 43.1986 39.2681 43.3294 38.2505 43.8485C38.1875 43.8804 38.1246 43.9124 38.0597 43.9452C36.6106 44.7191 35.5933 46.0492 35.0798 47.5958C34.8938 48.218 34.8242 48.796 34.8286 49.4442C34.8291 49.5378 34.8297 49.6314 34.8302 49.7278C34.8686 51.3354 35.5069 52.7286 36.6157 53.8974C38.0367 55.2454 39.7134 55.7507 41.639 55.7484C41.7666 55.7493 41.8942 55.7503 42.0219 55.7513C42.3643 55.7539 42.7066 55.7548 43.049 55.7554C43.4084 55.7562 43.7677 55.7587 44.127 55.761C44.8057 55.7651 45.4843 55.7677 46.1629 55.7699C46.9363 55.7725 47.7096 55.7766 48.483 55.7808C50.0722 55.7895 51.6613 55.7962 53.2505 55.8017C53.2491 55.6974 53.2478 55.5931 53.2464 55.4857C53.2516 55.0515 53.366 54.8265 53.6255 54.4892C54.0634 54.0833 54.4138 53.9868 54.9959 53.9944C55.3655 54.0374 55.6401 54.2062 55.9583 54.3895C58.5468 55.7329 60.9226 55.8658 63.7856 55.8368C63.9219 55.8358 63.9219 55.8358 64.0609 55.8347C64.6771 55.8299 65.2929 55.8191 65.9089 55.8039C65.9886 55.8022 66.0682 55.8006 66.1502 55.7989C68.1544 55.7525 70.0097 55.2993 71.4636 53.8384C72.7667 52.4345 73.1878 50.8002 73.1544 48.9315C73.0924 47.3587 72.3561 46.0207 71.2505 44.9267C71.1951 44.8682 71.1398 44.8097 71.0828 44.7494C70.6939 44.3691 70.2538 44.1188 69.7739 43.872C69.7148 43.8411 69.6556 43.8102 69.5946 43.7784C68.3467 43.1665 67.0811 43.1991 65.7242 43.2031C65.5068 43.2027 65.2894 43.2022 65.0721 43.2016C64.6058 43.2005 64.1396 43.2002 63.6734 43.2007C62.9364 43.2013 62.1993 43.1998 61.4623 43.198C60.4294 43.1956 59.3965 43.1941 58.3635 43.1933C58.2981 43.1933 58.2327 43.1932 58.1653 43.1932C57.6343 43.1928 57.1033 43.1925 56.5723 43.1922C56.1072 43.1919 55.642 43.1916 55.1769 43.1912C55.1113 43.1912 55.0458 43.1911 54.9783 43.1911C53.8859 43.1903 52.7936 43.1883 51.7012 43.1856C50.9683 43.1839 50.2353 43.1836 49.5024 43.1842C49.0473 43.1844 48.5922 43.1834 48.1371 43.182C47.9258 43.1817 47.7145 43.1818 47.5032 43.1824C47.2152 43.1832 46.9272 43.1823 46.6392 43.1809C46.5553 43.1815 46.4713 43.1822 46.3848 43.1828C45.9412 43.1788 45.6405 43.1558 45.2817 42.8642C45.1368 42.5743 45.1605 42.3397 45.188 42.0204C45.322 41.8146 45.322 41.8146 45.563 41.6454C45.8577 41.5895 46.1488 41.5948 46.448 41.5978C46.5387 41.5972 46.6294 41.5966 46.7228 41.596C47.0276 41.5945 47.3323 41.5957 47.6371 41.5969C47.8553 41.5964 48.0735 41.5957 48.2917 41.5949C48.8855 41.5932 49.4792 41.5938 50.073 41.595C50.6319 41.5959 51.1909 41.5952 51.7498 41.5947C52.9258 41.5936 54.1018 41.5948 55.2779 41.5969C56.2841 41.5985 57.2904 41.5982 58.2966 41.5965C59.4666 41.5945 60.6365 41.5937 61.8065 41.5949C62.4252 41.5955 63.0439 41.5955 63.6626 41.5943C64.2457 41.5932 64.8287 41.594 65.4118 41.5961C65.6247 41.5966 65.8377 41.5965 66.0506 41.5957C67.5385 41.5904 69.0258 41.6428 70.3599 42.3837C70.4218 42.4167 70.4838 42.4496 70.5477 42.4836C70.7208 42.577 70.892 42.6731 71.063 42.7704C71.1417 42.8135 71.2203 42.8567 71.3014 42.9011C73.0623 43.9628 74.1402 45.8088 74.6383 47.7542C75.102 49.9574 74.5873 52.0725 73.4086 53.9395C72.2057 55.6609 70.4848 56.7509 68.438 57.2079C67.902 57.2996 67.3779 57.3213 66.8358 57.3313C66.7473 57.3333 66.6587 57.3352 66.5675 57.3372C66.2867 57.3433 66.0059 57.3489 65.7251 57.3544C65.5339 57.3584 65.3426 57.3625 65.1514 57.3667C64.6845 57.3767 64.2175 57.3862 63.7505 57.3954C64.2931 57.6333 64.8381 57.8646 65.3853 58.0918C65.5705 58.1696 65.7552 58.2487 65.9392 58.3294C67.1865 58.8751 68.0598 59.1267 69.3755 58.7079C69.4585 58.6858 69.5415 58.6637 69.627 58.641C69.8192 58.5878 70.0033 58.526 70.1899 58.4559C70.2549 58.4322 70.3199 58.4084 70.3868 58.3839C71.4467 57.9798 72.3584 57.3815 73.2192 56.6454C73.3019 56.583 73.3019 56.583 73.3862 56.5194C75.0937 55.1985 76.1299 52.8281 76.4067 50.7392C76.5085 49.3052 76.4632 47.8965 76.0317 46.5204C75.9989 46.4135 75.966 46.3065 75.9321 46.1963C75.1221 43.8702 73.3714 42.0556 71.2194 40.9177C69.8337 40.2525 68.4444 39.9321 66.9123 39.929C66.6957 39.9266 66.479 39.9242 66.2623 39.9218C65.9247 39.9191 65.5871 39.9169 65.2495 39.9151C64.921 39.9131 64.5925 39.9094 64.2639 39.9055C64.1629 39.9055 64.062 39.9055 63.9579 39.9055C63.0784 39.8938 63.0784 39.8938 62.7192 39.5829C62.5743 39.2931 62.598 39.0584 62.6255 38.7392C62.889 38.3974 63.0645 38.3172 63.4911 38.3171ZM54.7505 55.5204C55.0858 56.4922 55.4388 57.4533 55.8251 58.4059C55.9684 58.7593 56.1104 59.1132 56.2527 59.4671C56.2828 59.5418 56.3129 59.6166 56.3439 59.6936C56.7052 60.5921 57.0609 61.4927 57.4165 62.3934C57.4832 62.5624 57.55 62.7314 57.6167 62.9004C57.7838 63.3235 57.9508 63.7466 58.1178 64.1697C58.2895 64.6047 58.4613 65.0397 58.6331 65.4747C58.964 66.3128 59.2948 67.151 59.6255 67.9892C59.6874 67.9582 59.7492 67.9273 59.813 67.8954C59.8748 67.696 59.8748 67.696 59.9144 67.4506C59.9319 67.3558 59.9495 67.2609 59.9675 67.1632C59.9859 67.0596 60.0043 66.9561 60.0232 66.8495C60.0636 66.6315 60.104 66.4135 60.1444 66.1954C60.2072 65.8509 60.2697 65.5064 60.332 65.1617C60.3922 64.8296 60.4537 64.4978 60.5154 64.1659C60.5334 64.0639 60.5513 63.9619 60.5699 63.8569C60.8675 62.2612 60.8675 62.2612 61.5108 61.7986C62.6112 61.2355 64.1356 61.1668 65.3377 60.9421C65.6295 60.8874 65.921 60.8317 66.2125 60.7759C66.3028 60.7593 66.3932 60.7427 66.4862 60.7256C66.6103 60.7016 66.6103 60.7016 66.7368 60.6772C66.8098 60.6635 66.8828 60.6497 66.9581 60.6356C67.0133 60.6182 67.0686 60.6008 67.1255 60.5829C67.1564 60.521 67.1874 60.4592 67.2192 60.3954C66.6551 60.172 66.0909 59.9487 65.5267 59.7253C65.3226 59.6445 65.1184 59.5637 64.9142 59.4829C63.8279 59.0528 62.7415 58.6228 61.6547 58.1937C61.404 58.0948 61.1534 57.9958 60.9028 57.8969C60.7388 57.8321 60.5749 57.7674 60.4109 57.7027C59.476 57.3337 58.542 56.9625 57.6095 56.5875C57.5218 56.5523 57.4342 56.5171 57.3439 56.4808C56.9233 56.3118 56.5028 56.1425 56.0826 55.9726C55.9334 55.9126 55.7841 55.8525 55.6349 55.7925C55.5666 55.7648 55.4984 55.737 55.4281 55.7084C55.0997 55.5683 55.0997 55.5683 54.7505 55.5204Z" fill="white"/>
<path d="M40.7108 38.3502C40.7961 38.3498 40.8813 38.3494 40.9692 38.349C41.2539 38.3477 41.5386 38.3471 41.8233 38.3466C42.0279 38.3458 42.2324 38.3451 42.4369 38.3443C43.1072 38.3418 43.7776 38.3404 44.4479 38.339C44.6787 38.3385 44.9096 38.338 45.1405 38.3375C46.1002 38.3355 47.0599 38.3337 48.0196 38.3327C49.2705 38.3313 50.5215 38.329 51.7725 38.3241C52.8646 38.3199 53.9567 38.3173 55.0489 38.3167C55.6269 38.3164 56.2048 38.3153 56.7828 38.3122C57.3258 38.3094 57.8688 38.3088 58.4119 38.3099C58.6114 38.3099 58.811 38.3092 59.0105 38.3075C59.2824 38.3054 59.5541 38.3062 59.826 38.3077C59.9054 38.3064 59.9848 38.3051 60.0667 38.3037C60.4377 38.3088 60.6167 38.3285 60.8965 38.5814C61.081 38.9253 61.041 39.1189 60.938 39.4897C60.79 39.6827 60.6857 39.7564 60.4693 39.8647C60.2052 39.874 59.9434 39.8775 59.6792 39.877C59.5551 39.8773 59.5551 39.8773 59.4285 39.8776C59.1495 39.8781 58.8705 39.878 58.5915 39.878C58.3921 39.8782 58.1927 39.8786 57.9933 39.8789C57.5627 39.8797 57.1321 39.8802 56.7016 39.8805C56.0194 39.881 55.3372 39.8826 54.655 39.8843C54.4214 39.8849 54.1877 39.8855 53.9541 39.8861C53.837 39.8864 53.72 39.8867 53.5994 39.887C52.0109 39.891 50.4225 39.8941 48.834 39.8952C47.7632 39.896 46.6924 39.8981 45.6216 39.9017C45.0553 39.9036 44.4891 39.9047 43.9229 39.9043C43.3888 39.9038 42.8547 39.9051 42.3206 39.9077C42.1259 39.9084 41.9312 39.9084 41.7364 39.9077C39.9107 39.9019 38.2928 40.155 36.6568 40.9897C36.5577 41.0398 36.4586 41.09 36.3565 41.1416C34.1434 42.3495 32.58 44.46 31.8623 46.8586C31.1969 49.4902 31.562 52.089 32.9009 54.4311C33.2077 54.9188 33.5705 55.3595 33.938 55.8022C33.9979 55.8803 34.0579 55.9585 34.1196 56.0391C35.5714 57.7796 37.9346 58.7139 40.1255 58.9897C40.8897 59.0457 41.6566 59.0388 42.4224 59.0365C42.814 59.0354 43.2055 59.0367 43.5972 59.0395C43.6857 59.0384 43.7743 59.0373 43.8656 59.0362C44.4737 59.041 44.4737 59.041 44.7725 59.2594C44.9311 59.4946 44.9867 59.6434 45.0005 59.9272C44.93 60.2027 44.8883 60.349 44.6434 60.5016C44.4222 60.5897 44.2651 60.6077 44.0278 60.6092C43.9473 60.61 43.8667 60.6109 43.7837 60.6119C43.6969 60.6118 43.6101 60.6117 43.5206 60.6116C43.4297 60.612 43.3387 60.6124 43.245 60.6128C43.0517 60.6134 42.8584 60.6134 42.6651 60.613C42.3756 60.6127 42.0862 60.6149 41.7967 60.6173C38.801 60.6271 36.164 59.9086 33.8443 57.9584C33.7627 57.8922 33.6811 57.826 33.5971 57.7577C31.6394 56.0982 30.2523 53.482 30.0005 50.9272C29.8183 47.7547 30.378 44.7486 32.5318 42.3022C32.595 42.2266 32.6582 42.1511 32.7233 42.0733C34.7139 39.7564 37.6459 38.352 40.7108 38.3502Z" fill="white"/>
<path d="M62.3443 45.3956C62.8784 45.8626 63.266 46.5092 63.6568 47.0948C63.7789 47.276 63.9011 47.4571 64.0233 47.6383C64.0858 47.7312 64.1483 47.8242 64.2127 47.9201C64.5389 48.4042 64.8685 48.8861 65.1978 49.3682C65.4029 49.669 65.608 49.9698 65.813 50.2706C65.8134 50.215 65.8137 50.1595 65.8141 50.1023C65.818 49.5243 65.8245 48.9465 65.8325 48.3686C65.8351 48.1529 65.8371 47.9372 65.8384 47.7215C65.8404 47.4115 65.8448 47.1016 65.8496 46.7916C65.8498 46.6468 65.8498 46.6468 65.85 46.4992C65.8637 45.8335 65.8637 45.8335 66.0773 45.5218C66.3778 45.3362 66.5922 45.3524 66.938 45.3956C67.2366 45.5606 67.2974 45.6299 67.4068 45.9581C67.4176 46.1812 67.4227 46.4046 67.4248 46.628C67.426 46.7298 67.426 46.7298 67.4272 46.8337C67.4295 47.0582 67.431 47.2827 67.4324 47.5071C67.4329 47.5839 67.4334 47.6606 67.4339 47.7397C67.4364 48.1456 67.4382 48.5516 67.4396 48.9576C67.4408 49.2936 67.4435 49.6294 67.4473 49.9653C67.4519 50.3711 67.4542 50.7768 67.4549 51.1827C67.4555 51.3372 67.4569 51.4917 67.4592 51.6462C67.4622 51.8626 67.4622 52.0787 67.4615 52.2951C67.4622 52.4181 67.463 52.5412 67.4638 52.6679C67.3921 53.0721 67.2592 53.2099 66.938 53.4581C66.5717 53.517 66.3755 53.5184 66.0609 53.316C65.7373 53.012 65.5115 52.6733 65.2681 52.3038C65.1614 52.1448 65.0546 51.9858 64.9477 51.827C64.8911 51.7425 64.8345 51.6581 64.7761 51.5711C64.4508 51.0894 64.118 50.6128 63.7857 50.1358C63.7213 50.0431 63.6569 49.9505 63.5906 49.855C63.3362 49.4895 63.0809 49.1263 62.813 48.7706C62.8129 48.8249 62.8127 48.8793 62.8126 48.9353C62.8108 49.5011 62.8057 50.0668 62.7987 50.6325C62.7965 50.8437 62.7952 51.0548 62.7947 51.266C62.7938 51.5695 62.79 51.8729 62.7856 52.1763C62.7861 52.318 62.7861 52.318 62.7867 52.4625C62.773 53.1165 62.773 53.1165 62.4987 53.4243C62.1971 53.5793 62.0229 53.6017 61.688 53.5518C61.394 53.385 61.3279 53.3153 61.2193 52.9893C61.2094 52.7662 61.2053 52.5428 61.2042 52.3194C61.2035 52.2176 61.2035 52.2176 61.2028 52.1137C61.2014 51.8892 61.2007 51.6648 61.2002 51.4403C61.1997 51.2841 61.1991 51.128 61.1986 50.9719C61.1976 50.6445 61.1971 50.3172 61.1967 49.9898C61.1962 49.5706 61.194 49.1515 61.1913 48.7323C61.1896 48.4098 61.1891 48.0873 61.1889 47.7648C61.1886 47.6102 61.1879 47.4557 61.1867 47.3012C61.1851 47.0849 61.1852 46.8686 61.1859 46.6523C61.1855 46.5293 61.1852 46.4062 61.1848 46.2795C61.2215 45.9375 61.2934 45.7607 61.5005 45.4893C61.8092 45.335 62.0022 45.3451 62.3443 45.3956Z" fill="white"/>
<path d="M52.7195 45.904C52.9065 46.0385 53.079 46.1794 53.2505 46.3328C53.3317 46.4044 53.4129 46.4759 53.4966 46.5496C54.3344 47.4976 54.6945 48.4663 54.6828 49.7261C54.616 50.6415 54.2954 51.4353 53.7193 52.1453C53.6723 52.2039 53.6252 52.2626 53.5768 52.323C52.9054 53.0727 51.9039 53.4903 50.9141 53.575C49.7852 53.6182 48.788 53.3271 47.9068 52.6141C47.8205 52.5468 47.8205 52.5468 47.7324 52.4782C47.1535 51.9697 46.6213 51.0431 46.5005 50.2703C46.4139 48.9303 46.5547 47.8513 47.4076 46.7587C48.7396 45.3014 50.9932 44.8503 52.7195 45.904ZM48.5103 47.827C48.4307 47.9518 48.3542 48.0787 48.2818 48.2078C48.2238 48.3065 48.1657 48.4051 48.106 48.5067C47.9009 49.2015 47.8834 49.911 48.1822 50.5809C48.5542 51.2262 49.1359 51.7935 49.8605 52.0139C50.6237 52.156 51.2744 52.0886 51.938 51.6766C52.5846 51.2221 52.9098 50.7301 53.1568 49.9891C53.2398 49.1713 53.126 48.4703 52.6195 47.8083C52.0367 47.179 51.4541 46.8838 50.5962 46.8367C49.7739 46.8656 49.0286 47.1721 48.5103 47.827Z" fill="white"/>
<path d="M43.688 45.3431C43.7808 45.3401 43.7808 45.3401 43.8755 45.3369C44.1702 45.4296 44.2694 45.612 44.438 45.8646C44.485 46.1437 44.485 46.1437 44.4851 46.4567C44.4859 46.5744 44.4868 46.6921 44.4877 46.8133C44.4868 46.941 44.4857 47.0688 44.4845 47.1965C44.4846 47.3286 44.4847 47.4606 44.485 47.5927C44.4851 47.8692 44.4839 48.1457 44.4818 48.4223C44.4791 48.775 44.4794 49.1277 44.4806 49.4804C44.4812 49.7532 44.4805 50.0259 44.4793 50.2986C44.4789 50.4286 44.4789 50.5585 44.4792 50.6885C44.4805 51.521 44.4335 52.1386 44.0103 52.8666C43.5535 53.3 43.0099 53.5757 42.3755 53.6107C41.7387 53.5766 41.2367 53.268 40.7232 52.9135C40.556 52.6475 40.5353 52.4481 40.5522 52.1371C40.5943 51.9584 40.5943 51.9584 40.7935 51.724C41.1132 51.5572 41.2698 51.5253 41.6255 51.5834C41.813 51.7084 42.0005 51.8334 42.188 51.9584C42.4929 51.9899 42.4929 51.9899 42.7505 51.9584C42.8474 51.639 42.8565 51.3461 42.8576 51.0132C42.8582 50.8981 42.8589 50.7829 42.8596 50.6643C42.8598 50.6031 42.8599 50.5418 42.8601 50.4787C42.8608 50.2864 42.8622 50.0941 42.864 49.9018C42.8689 49.3552 42.8734 48.8086 42.8748 48.2619C42.8758 47.9271 42.8785 47.5924 42.8825 47.2577C42.8836 47.1303 42.8841 47.0029 42.8839 46.8755C42.8837 46.6974 42.886 46.5192 42.8883 46.3411C42.8889 46.2398 42.8894 46.1385 42.89 46.0341C42.9703 45.5939 43.2369 45.3423 43.688 45.3431Z" fill="white"/>
<path d="M57.3755 45.3369C57.4683 45.34 57.4683 45.34 57.563 45.3431C57.6248 45.343 57.6867 45.3429 57.7505 45.3428C58.0296 45.4218 58.1345 45.5425 58.313 45.7709C58.3505 46.0225 58.3653 46.2359 58.363 46.4874C58.3638 46.5591 58.3646 46.6307 58.3654 46.7046C58.3675 46.9412 58.3669 47.1778 58.3661 47.4144C58.3665 47.579 58.3671 47.7437 58.3678 47.9083C58.3688 48.2531 58.3684 48.598 58.367 48.9429C58.3654 49.3849 58.3676 49.8268 58.3709 50.2688C58.3729 50.6087 58.3728 50.9485 58.372 51.2884C58.372 51.4514 58.3726 51.6144 58.374 51.7773C58.3756 52.0052 58.3743 52.2328 58.3721 52.4606C58.3732 52.5279 58.3743 52.5953 58.3754 52.6646C58.3688 53.0128 58.3374 53.1516 58.0928 53.4068C57.7903 53.5836 57.6269 53.6035 57.2817 53.5521C56.9877 53.3853 56.9216 53.3156 56.813 52.9896C56.8026 52.7626 56.7972 52.5382 56.7964 52.3111C56.7957 52.2423 56.7951 52.1735 56.7945 52.1026C56.7926 51.8751 56.7916 51.6476 56.7906 51.42C56.7902 51.3423 56.7899 51.2645 56.7895 51.1844C56.7875 50.7729 56.7862 50.3615 56.7853 49.95C56.7842 49.5252 56.781 49.1004 56.7773 48.6755C56.7749 48.3486 56.7741 48.0218 56.7737 47.6949C56.7733 47.5383 56.7722 47.3817 56.7704 47.2251C56.7682 47.0058 56.7682 46.7867 56.7689 46.5674C56.7677 46.5029 56.7665 46.4384 56.7653 46.372C56.7703 45.9102 56.8971 45.4873 57.3755 45.3369Z" fill="white"/>
</g>
<defs>
<clipPath id="clip0_530_5931">
<rect width="48" height="48" fill="white" transform="translate(30.0005 29.9268)"/>
</clipPath>
</defs>
</svg>
