<svg width="107" height="107" viewBox="0 0 107 107" fill="none" xmlns="http://www.w3.org/2000/svg">
<circle cx="53.5" cy="53.5005" r="53.0737" fill="#1B2351"/>
<path d="M62.8965 45.3125C63.5739 45.7162 63.9851 46.2624 64.25 47C64.3573 47.8769 64.3369 48.7139 63.7813 49.4375C63.4501 49.7884 63.105 50.0934 62.6563 50.2812C62.5634 50.2812 62.4706 50.2812 62.375 50.2812C62.375 50.9309 62.375 51.5806 62.375 52.25C62.8188 52.2418 62.8188 52.2418 63.2715 52.2335C63.5597 52.2298 63.848 52.227 64.1362 52.2242C64.3358 52.2219 64.5353 52.2187 64.7347 52.2146C65.0224 52.2089 65.3099 52.2063 65.5977 52.2042C65.6861 52.2018 65.7745 52.1994 65.8656 52.1969C66.545 52.1966 67.0021 52.3794 67.4867 52.8607C67.8262 53.25 68.0242 53.5676 68.0213 54.0861C68.0213 54.2127 68.0213 54.2127 68.0212 54.3419C68.0203 54.4323 68.0193 54.5226 68.0183 54.6157C68.018 54.7088 68.0178 54.8019 68.0175 54.8979C68.0165 55.1949 68.0141 55.492 68.0117 55.7891C68.0108 55.9906 68.0099 56.1921 68.0092 56.3937C68.0073 56.8875 68.0036 57.3812 68 57.875C69.0209 57.875 70.0419 57.875 71.0938 57.875C71.1247 57.7203 71.1556 57.5656 71.1875 57.4062C71.5493 56.7357 72.154 56.2403 72.875 56C73.7656 55.9292 74.5701 55.9016 75.3125 56.4687C75.8557 56.9624 76.203 57.4907 76.2939 58.2342C76.301 59.1314 76.2313 59.8172 75.6062 60.5051C74.9586 61.1124 74.3283 61.3032 73.4439 61.295C72.7434 61.2705 72.249 61.0752 71.7416 60.5963C71.0938 59.8875 71.0938 59.8875 71.0938 59.375C70.0728 59.375 69.0519 59.375 68 59.375C68.0082 59.8187 68.0082 59.8187 68.0165 60.2715C68.0201 60.5597 68.023 60.848 68.0258 61.1362C68.0281 61.3357 68.0313 61.5352 68.0354 61.7347C68.0411 62.0224 68.0437 62.3099 68.0458 62.5976C68.0482 62.6861 68.0506 62.7745 68.0531 62.8656C68.0534 63.545 67.8706 64.0021 67.3893 64.4867C67 64.8262 66.6823 65.0242 66.1639 65.0213C66.0795 65.0213 65.995 65.0212 65.9081 65.0212C65.8177 65.0203 65.7274 65.0193 65.6343 65.0183C65.5412 65.018 65.4481 65.0178 65.3521 65.0175C65.0551 65.0164 64.758 65.0141 64.4609 65.0117C64.2594 65.0108 64.0579 65.0099 63.8563 65.0091C63.3625 65.0072 62.8688 65.0036 62.375 65C62.375 65.6497 62.375 66.2994 62.375 66.9687C62.5916 67.0306 62.8081 67.0925 63.0313 67.1562C63.6358 67.5244 64.0575 68.0709 64.25 68.75C64.3589 69.6296 64.3404 70.4554 63.7813 71.1875C63.2224 71.8024 62.5898 72.1528 61.755 72.218C60.9661 72.2206 60.3455 71.9868 59.75 71.4687C59.0907 70.7473 58.9381 70.0853 58.9652 69.1272C59.0121 68.412 59.3259 67.9171 59.8438 67.4375C60.1298 67.1976 60.3214 67.1152 60.6875 66.9687C60.7184 66.3191 60.7494 65.6694 60.7813 65C60.4911 65.0043 60.2009 65.0087 59.902 65.0132C59.6196 65.0161 59.3373 65.0184 59.0549 65.0206C58.8593 65.0225 58.6637 65.025 58.4682 65.0283C58.1863 65.0329 57.9046 65.035 57.6227 65.0366C57.5358 65.0385 57.449 65.0405 57.3595 65.0425C56.7088 65.0427 56.3072 64.9091 55.8195 64.458C55.7766 64.4048 55.7337 64.3517 55.6895 64.2969C55.6453 64.2437 55.6012 64.1905 55.5558 64.1357C55.1189 63.5189 55.1424 62.8234 55.1471 62.0941C55.1472 62.016 55.1474 61.9378 55.1475 61.8573C55.148 61.6099 55.1492 61.3626 55.1504 61.1152C55.1509 60.9466 55.1513 60.7779 55.1517 60.6093C55.1526 60.1979 55.1545 59.7864 55.1563 59.375C54.1663 59.375 53.1763 59.375 52.1563 59.375C52.1253 59.5297 52.0944 59.6844 52.0625 59.8437C51.7007 60.5143 51.096 61.0097 50.375 61.25C49.4844 61.3208 48.6799 61.3483 47.9375 60.7812C47.3943 60.2876 47.047 59.7593 46.9561 59.0157C46.949 58.1185 47.0187 57.4328 47.6438 56.7449C48.2915 56.1375 48.9217 55.9468 49.8061 55.9549C50.5066 55.9795 51.001 56.1747 51.5084 56.6537C52.1563 57.3624 52.1563 57.3624 52.1563 57.875C53.1463 57.875 54.1363 57.875 55.1563 57.875C55.1541 57.6276 55.1519 57.3802 55.1497 57.1254C55.1482 56.8833 55.1471 56.6413 55.146 56.3993C55.145 56.2322 55.1437 56.0652 55.1421 55.8982C55.1398 55.6569 55.1388 55.4155 55.1379 55.1742C55.137 55.1006 55.136 55.027 55.135 54.9512C55.1349 54.1924 55.226 53.5085 55.7188 52.9062C56.1272 52.511 56.4971 52.2254 57.0775 52.2287C57.2013 52.2287 57.2013 52.2287 57.3277 52.2287C57.4601 52.2302 57.4601 52.2302 57.5952 52.2317C57.6862 52.2319 57.7773 52.2322 57.8711 52.2325C58.1614 52.2335 58.4518 52.2359 58.7422 52.2383C58.9392 52.2392 59.1362 52.2401 59.3333 52.2408C59.8159 52.2427 60.2986 52.2464 60.7813 52.25C60.7813 51.6003 60.7813 50.9506 60.7813 50.2812C60.5028 50.1884 60.5028 50.1884 60.2188 50.0937C59.6178 49.7112 59.1946 49.1864 59 48.5C58.8911 47.6204 58.9096 46.7946 59.4688 46.0625C60.3406 45.1031 61.6884 44.764 62.8965 45.3125ZM60.6875 47.1875C60.5378 47.4869 60.5587 47.7992 60.5938 48.125C60.7096 48.3914 60.8052 48.5395 61.0332 48.7168C61.4733 48.8476 61.8542 48.8446 62.2695 48.6641C62.6119 48.3821 62.6472 48.2048 62.6973 47.7617C62.688 47.3124 62.5023 47.1198 62.1875 46.8125C61.5651 46.5013 61.1242 46.7402 60.6875 47.1875ZM56.8438 54.0312C56.7216 54.3977 56.7354 54.7467 56.7349 55.1287C56.7344 55.2121 56.734 55.2956 56.7335 55.3815C56.7321 55.6577 56.7315 55.934 56.731 56.2102C56.7304 56.402 56.7299 56.5939 56.7293 56.7857C56.7284 57.1881 56.7278 57.5906 56.7275 57.993C56.727 58.5086 56.7247 59.0242 56.722 59.5399C56.7203 59.9362 56.7198 60.3326 56.7197 60.7289C56.7194 60.919 56.7186 61.1091 56.7174 61.2992C56.7158 61.5652 56.716 61.831 56.7166 62.097C56.7157 62.1755 56.7149 62.254 56.714 62.3349C56.7171 62.7661 56.7437 63.0605 57.0313 63.4062C57.3977 63.5284 57.7467 63.5146 58.1287 63.5151C58.2122 63.5156 58.2956 63.516 58.3815 63.5165C58.6577 63.5179 58.934 63.5185 59.2102 63.519C59.4021 63.5196 59.5939 63.5201 59.7858 63.5207C60.1882 63.5216 60.5906 63.5222 60.993 63.5225C61.5086 63.523 62.0243 63.5253 62.5399 63.5279C62.9362 63.5297 63.3326 63.5302 63.7289 63.5303C63.919 63.5306 64.1091 63.5314 64.2992 63.5326C64.5652 63.5342 64.8311 63.534 65.097 63.5334C65.2148 63.5347 65.2148 63.5347 65.335 63.536C65.6555 63.5337 65.9131 63.5076 66.2206 63.4117C66.5218 63.0987 66.4716 62.7664 66.4669 62.3479C66.4681 62.2141 66.4681 62.2141 66.4694 62.0776C66.4715 61.7821 66.4701 61.4868 66.4685 61.1914C66.4688 60.9865 66.4693 60.7816 66.4699 60.5767C66.4706 60.147 66.4696 59.7173 66.4674 59.2876C66.4647 58.7362 66.4662 58.1849 66.469 57.6335C66.4707 57.2103 66.4702 56.7871 66.469 56.3639C66.4687 56.1606 66.4691 55.9572 66.4701 55.7539C66.4713 55.4699 66.4695 55.1861 66.4669 54.9021C66.4679 54.8176 66.4688 54.7332 66.4698 54.6462C66.4688 54.1954 66.4688 54.1954 66.2204 53.8385C65.84 53.7195 65.4966 53.7107 65.1 53.7136C65.0165 53.7131 64.9331 53.7126 64.8471 53.7121C64.5719 53.7109 64.2967 53.7117 64.0215 53.7126C63.8299 53.7124 63.6383 53.7122 63.4467 53.7118C63.0455 53.7114 62.6442 53.712 62.2429 53.7133C61.7287 53.7149 61.2146 53.714 60.7004 53.7123C60.3049 53.7113 59.9093 53.7116 59.5138 53.7124C59.3242 53.7125 59.1346 53.7123 58.9451 53.7117C58.68 53.7109 58.4151 53.712 58.15 53.7136C58.0718 53.713 57.9936 53.7125 57.913 53.7119C57.4829 53.7166 57.1887 53.745 56.8438 54.0312ZM48.6875 58.0625C48.5378 58.3619 48.5587 58.6742 48.5938 59C48.7096 59.2664 48.8052 59.4145 49.0332 59.5918C49.4733 59.7226 49.8542 59.7196 50.2695 59.5391C50.6119 59.2571 50.6472 59.0798 50.6973 58.6367C50.688 58.1874 50.5023 57.9948 50.1875 57.6875C49.5651 57.3763 49.1242 57.6152 48.6875 58.0625ZM72.6875 58.0625C72.5378 58.3619 72.5587 58.6742 72.5938 59C72.7096 59.2664 72.8052 59.4145 73.0332 59.5918C73.4733 59.7226 73.8542 59.7196 74.2695 59.5391C74.6119 59.2571 74.6472 59.0798 74.6973 58.6367C74.688 58.1874 74.5023 57.9948 74.1875 57.6875C73.5651 57.3763 73.1242 57.6152 72.6875 58.0625ZM60.6875 68.9375C60.5241 69.2643 60.5401 69.6122 60.5938 69.9687C60.8251 70.2983 61.0125 70.4153 61.3789 70.5781C61.8069 70.6372 62.0061 70.5637 62.375 70.3437C62.6525 70.0304 62.7108 69.7309 62.6965 69.3125C62.6238 68.974 62.4321 68.8013 62.1875 68.5625C61.5651 68.2513 61.1242 68.4902 60.6875 68.9375Z" fill="white"/>
<path d="M34.2654 33.8478C34.4099 33.846 34.4099 33.846 34.5574 33.8441C34.6609 33.8439 34.7644 33.8437 34.8711 33.8435C34.9779 33.8429 35.0847 33.8422 35.1947 33.8416C35.4204 33.8407 35.6461 33.8402 35.8718 33.8402C36.2175 33.8398 36.563 33.8364 36.9087 33.8329C37.1279 33.8323 37.3472 33.832 37.5664 33.8318C37.6699 33.8304 37.7735 33.8291 37.8801 33.8277C37.9765 33.8283 38.0728 33.8288 38.1721 33.8294C38.2568 33.8292 38.3414 33.8289 38.4286 33.8286C38.7281 33.8896 38.8407 34.0166 39.0313 34.25C39.0811 34.4375 39.0811 34.4375 39.0781 34.625C39.0796 34.7178 39.0796 34.7178 39.0811 34.8125C39.0038 35.1034 38.9007 35.1954 38.6563 35.375C38.3414 35.4319 38.0292 35.4272 37.71 35.4255C37.6177 35.4266 37.5255 35.4277 37.4305 35.4289C37.136 35.4322 36.8415 35.433 36.5469 35.4336C36.2523 35.4351 35.9578 35.4372 35.6632 35.4403C35.48 35.4421 35.2968 35.443 35.1136 35.4428C35.0304 35.4435 34.9471 35.4441 34.8614 35.4448C34.7519 35.445 34.7519 35.445 34.6402 35.4452C34.4068 35.4723 34.2587 35.5271 34.0625 35.6562C33.7555 36.5772 33.9097 37.5923 33.875 38.5625C42.29 38.5625 50.705 38.5625 59.375 38.5625C59.441 37.0098 59.441 37.0098 59.0938 35.5625C58.8057 35.4665 58.6096 35.4568 58.3078 35.4564C58.2031 35.4561 58.0983 35.4557 57.9904 35.4553C57.8179 35.4554 57.8179 35.4554 57.6419 35.4554C57.4561 35.4549 57.2703 35.4544 57.0845 35.4539C56.8847 35.4534 56.6849 35.4532 56.4851 35.4529C56.0687 35.4524 55.6523 35.4508 55.2359 35.449C55.0934 35.4485 54.9508 35.4479 54.8083 35.4473C54.7369 35.447 54.6655 35.4467 54.592 35.4464C53.6226 35.4424 52.6532 35.4393 51.6838 35.4382C51.0299 35.4374 50.376 35.4353 49.7221 35.4317C49.376 35.4298 49.03 35.4287 48.684 35.4291C48.2981 35.4296 47.9123 35.4273 47.5265 35.4247C47.4117 35.4253 47.2969 35.4259 47.1786 35.4266C47.0735 35.4254 46.9685 35.4242 46.8603 35.423C46.7691 35.4228 46.6778 35.4226 46.5838 35.4223C46.2755 35.3615 46.1635 35.2413 45.9688 35C45.9189 34.8125 45.9189 34.8125 45.9219 34.625C45.9204 34.5322 45.9204 34.5322 45.9189 34.4375C45.9918 34.1631 46.1259 34.0536 46.3438 33.875C46.5928 33.8275 46.5928 33.8275 46.8821 33.8267C47.0469 33.8249 47.0469 33.8249 47.215 33.8231C47.3352 33.8237 47.4554 33.8243 47.5793 33.825C47.7074 33.8243 47.8356 33.8235 47.9637 33.8225C48.3116 33.8204 48.6595 33.8207 49.0074 33.8215C49.2981 33.822 49.5889 33.8213 49.8796 33.8206C50.5659 33.819 51.2522 33.8194 51.9384 33.8209C52.6455 33.8225 53.3524 33.8211 54.0594 33.818C54.6671 33.8155 55.2747 33.8148 55.8824 33.8156C56.245 33.8161 56.6076 33.8159 56.9702 33.814C57.3116 33.8122 57.6529 33.8128 57.9943 33.8151C58.1784 33.8158 58.3625 33.8142 58.5467 33.8125C59.3137 33.8207 59.812 33.9368 60.3605 34.4856C60.81 34.9966 60.9026 35.3658 60.8933 36.0356C60.8929 36.1441 60.8929 36.1441 60.8925 36.2547C60.8915 36.4849 60.8891 36.7151 60.8867 36.9453C60.8858 37.1017 60.8849 37.258 60.8842 37.4144C60.8821 37.7971 60.8789 38.1798 60.875 38.5625C60.9581 38.5602 61.0412 38.5579 61.1268 38.5555C61.2361 38.5537 61.3454 38.5519 61.458 38.55C61.5662 38.5477 61.6745 38.5454 61.786 38.543C62.3106 38.5762 62.6251 38.8121 62.9866 39.1744C63.4407 39.6902 63.5296 40.0747 63.5315 40.751C63.5321 40.8265 63.5327 40.9021 63.5334 40.98C63.5343 41.1395 63.5348 41.2989 63.5347 41.4584C63.5352 41.7023 63.5386 41.946 63.5421 42.1898C63.5427 42.345 63.543 42.5001 63.5432 42.6553C63.5446 42.728 63.5459 42.8008 63.5473 42.8758C63.5445 43.2122 63.5289 43.3997 63.3215 43.6708C63.1087 43.8242 63.0093 43.8634 62.75 43.8594C62.6572 43.8608 62.6572 43.8608 62.5625 43.8623C62.2846 43.7885 62.1785 43.6613 62 43.4375C61.9518 43.1427 61.9518 43.1427 61.9495 42.7988C61.9478 42.7073 61.9478 42.7073 61.9461 42.6139C61.9428 42.4197 61.942 42.2255 61.9414 42.0312C61.9399 41.837 61.9378 41.6428 61.9347 41.4485C61.932 41.2723 61.9311 41.096 61.9302 40.9198C61.9073 40.6381 61.882 40.4783 61.7188 40.25C61.4328 40.1547 61.2406 40.1444 60.9413 40.1442C60.8378 40.1439 60.7342 40.1436 60.6276 40.1433C60.5134 40.1434 60.3992 40.1436 60.2815 40.1437C60.1606 40.1435 60.0396 40.1433 59.915 40.1431C59.5786 40.1425 59.2422 40.1425 58.9058 40.1426C58.5432 40.1426 58.1807 40.1421 57.8181 40.1417C57.1076 40.1409 56.3971 40.1406 55.6866 40.1406C55.1092 40.1405 54.5319 40.1403 53.9545 40.14C52.3187 40.1392 50.6829 40.1388 49.0471 40.1389C48.9147 40.1389 48.9147 40.1389 48.7797 40.1389C48.6914 40.1389 48.603 40.1389 48.512 40.1389C47.0798 40.1389 45.6475 40.138 44.2152 40.1367C42.7456 40.1354 41.276 40.1347 39.8064 40.1348C38.981 40.1348 38.1555 40.1346 37.33 40.1335C36.6273 40.1327 35.9245 40.1325 35.2218 40.1331C34.8631 40.1334 34.5044 40.1334 34.1457 40.1326C33.7572 40.1318 33.3688 40.1323 32.9804 40.1331C32.8094 40.1323 32.8094 40.1323 32.635 40.1316C32.4793 40.1322 32.4793 40.1322 32.3205 40.1329C32.186 40.1329 32.186 40.1329 32.0487 40.1328C31.7784 40.1454 31.7784 40.1454 31.4375 40.3437C31.4375 46.0362 31.4375 51.7287 31.4375 57.5937C31.816 57.783 31.9624 57.8047 32.3711 57.8048C32.4855 57.8053 32.5999 57.8058 32.7177 57.8064C32.8441 57.806 32.9706 57.8056 33.097 57.8052C33.2304 57.8054 33.3637 57.8058 33.4971 57.8062C33.7841 57.807 34.0712 57.8072 34.3582 57.807C34.812 57.8067 35.2658 57.808 35.7196 57.8097C37.01 57.8141 38.3003 57.8163 39.5907 57.8169C40.3035 57.8173 41.0163 57.819 41.7291 57.8221C42.1802 57.824 42.6314 57.8242 43.0826 57.8232C43.3632 57.823 43.6437 57.8243 43.9243 57.826C44.0545 57.8265 44.1846 57.8264 44.3148 57.8256C44.4924 57.8245 44.67 57.826 44.8476 57.8276C44.947 57.8277 45.0464 57.8278 45.1489 57.8279C45.4702 57.8867 45.5809 57.9974 45.7813 58.25C45.8311 58.4375 45.8311 58.4375 45.8281 58.625C45.8291 58.6869 45.8301 58.7487 45.8311 58.8125C45.7578 59.0884 45.6267 59.1965 45.4063 59.375C45.1394 59.4222 45.1394 59.4222 44.8246 59.4226C44.6454 59.4242 44.6454 59.4242 44.4626 59.4258C44.3304 59.4251 44.1982 59.4243 44.066 59.4235C43.9266 59.424 43.7872 59.4247 43.6478 59.4255C43.2693 59.4272 42.8909 59.4265 42.5124 59.4254C42.116 59.4244 41.7197 59.4253 41.3234 59.4259C40.6575 59.4266 39.9916 59.4257 39.3258 59.4239C38.5567 59.4218 37.7876 59.4225 37.0185 59.4246C36.3578 59.4263 35.6972 59.4265 35.0365 59.4255C34.642 59.4249 34.2476 59.4249 33.8532 59.4261C33.4821 59.4272 33.111 59.4264 32.7398 59.4243C32.6039 59.4238 32.468 59.4239 32.332 59.4247C31.4974 59.4294 30.9485 59.4148 30.3195 58.833C30.2766 58.7798 30.2337 58.7267 30.1895 58.6719C30.1453 58.6187 30.1012 58.5655 30.0558 58.5107C29.7598 58.0929 29.7226 57.7515 29.7243 57.2453C29.7238 57.172 29.7233 57.0988 29.7228 57.0232C29.7214 56.7774 29.7213 56.5316 29.7213 56.2857C29.7206 56.1095 29.7198 55.9334 29.7189 55.7572C29.7169 55.2784 29.716 54.7995 29.7156 54.3207C29.7152 54.0215 29.7146 53.7223 29.714 53.4231C29.7117 52.3791 29.7104 51.3352 29.7101 50.2912C29.7098 49.3184 29.707 48.3456 29.703 47.3727C29.6998 46.5374 29.6983 45.702 29.6983 44.8666C29.6982 44.3678 29.6974 43.869 29.6947 43.3701C29.6923 42.9007 29.6921 42.4313 29.6936 41.9619C29.6937 41.7899 29.6931 41.6179 29.6916 41.4459C29.6788 39.8756 29.6788 39.8756 30.0902 39.3482C30.4837 38.9519 30.8599 38.5817 31.439 38.5442C31.539 38.5464 31.6391 38.5485 31.7422 38.5508C31.8432 38.5525 31.9443 38.5542 32.0483 38.5559C32.1252 38.5581 32.2021 38.5602 32.2813 38.5625C32.2803 38.4874 32.2793 38.4123 32.2783 38.3349C32.2744 37.9909 32.2719 37.6468 32.2695 37.3027C32.268 37.1846 32.2664 37.0665 32.2648 36.9448C32.2601 36.0585 32.2572 35.2481 32.8438 34.5312C33.2814 34.1078 33.6494 33.853 34.2654 33.8478Z" fill="white"/>
<path d="M46.9062 43.3435C47.1758 43.4607 47.1758 43.4607 47.375 43.7185C47.4147 44.0966 47.4018 44.4648 47.375 44.8435C47.4384 44.8411 47.5017 44.8386 47.567 44.8361C47.8545 44.8263 48.142 44.8202 48.4297 44.8142C48.5792 44.8083 48.5792 44.8083 48.7318 44.8023C49.4691 44.7907 49.4691 44.7907 49.7847 45.0589C49.9438 45.3906 49.9591 45.605 49.9062 45.9685C49.6982 46.2411 49.5763 46.3285 49.25 46.4373C49.1043 46.4449 48.9583 46.4474 48.8124 46.4464C48.7287 46.4461 48.645 46.4458 48.5588 46.4455C48.4717 46.4447 48.3846 46.4439 48.2949 46.4431C48.1627 46.4425 48.1627 46.4425 48.0278 46.4419C47.8102 46.4407 47.5926 46.4391 47.375 46.4373C47.375 47.0251 47.375 47.6129 47.375 48.2185C47.6225 48.2185 47.87 48.2185 48.125 48.2185C48.9541 48.466 49.4688 49.0181 49.9004 49.742C50.1098 50.4812 50.0944 51.1913 49.736 51.8784C49.3547 52.5101 48.9142 52.8566 48.2187 53.0935C47.9241 53.1279 47.6728 53.1175 47.375 53.0935C47.3832 53.2088 47.3832 53.2088 47.3915 53.3264C47.4261 54.1524 47.4261 54.1524 47.1758 54.4763C46.8601 54.6136 46.684 54.6502 46.3437 54.5935C46.0614 54.4241 45.909 54.3154 45.7988 54.0017C45.7777 53.6985 45.7802 53.3974 45.7812 53.0935C45.7179 53.096 45.6545 53.0984 45.5893 53.101C45.3017 53.1107 45.0142 53.1168 44.7266 53.1228C44.6269 53.1268 44.5272 53.1307 44.4244 53.1347C43.6862 53.1463 43.6862 53.1463 43.3716 52.8749C43.2227 52.5685 43.1939 52.3989 43.25 52.0623C43.5193 51.6294 43.5193 51.6294 43.799 51.5344C44.0124 51.4976 44.2098 51.4892 44.4263 51.4906C44.4977 51.4909 44.569 51.4911 44.6426 51.4913C44.777 51.4926 44.777 51.4926 44.9141 51.4939C45.2002 51.4959 45.4864 51.4978 45.7812 51.4998C45.7812 50.912 45.7812 50.3242 45.7812 49.7185C45.5337 49.7185 45.2862 49.7185 45.0312 49.7185C44.3102 49.4969 43.8042 49.0731 43.4349 48.4243C43.1631 47.8206 43.1382 47.1123 43.3181 46.4787C43.6274 45.7331 44.0589 45.2708 44.7892 44.9281C45.1396 44.8057 45.4136 44.8095 45.7812 44.8435C45.7774 44.7468 45.7735 44.6502 45.7695 44.5506C45.7837 44.1102 45.8255 43.7783 46.1328 43.449C46.417 43.3069 46.5919 43.2986 46.9062 43.3435ZM45.0488 46.6834C44.8901 46.898 44.8412 47.012 44.7852 47.281C44.8659 47.6687 45.0285 47.8534 45.3125 48.1248C45.4672 48.1557 45.6219 48.1867 45.7812 48.2185C45.7812 47.6307 45.7812 47.0429 45.7812 46.4373C45.3095 46.384 45.3095 46.384 45.0488 46.6834ZM47.375 49.8123C47.375 50.3692 47.375 50.926 47.375 51.4998C47.9291 51.563 47.9291 51.563 48.207 51.2537C48.4244 50.9085 48.4823 50.7721 48.4062 50.3748C48.2723 50.0999 48.2723 50.0999 48.0312 49.906C47.8147 49.8751 47.5981 49.8442 47.375 49.8123Z" fill="white"/>
<path d="M60.0484 55.2216C60.1247 55.2201 60.2011 55.2186 60.2798 55.217C60.4026 55.2163 60.4026 55.2163 60.5278 55.2155C60.6129 55.2147 60.698 55.2138 60.7857 55.2129C60.9656 55.2116 61.1456 55.2108 61.3256 55.2104C61.5993 55.2093 61.8728 55.2047 62.1465 55.1999C62.3218 55.1991 62.4971 55.1984 62.6724 55.1979C62.7534 55.1961 62.8345 55.1943 62.9181 55.1924C63.5695 55.1972 64.0229 55.4011 64.487 55.861C64.8093 56.2315 65.0213 56.554 65.0287 57.0487C65.0302 57.1251 65.0317 57.2014 65.0333 57.2801C65.0338 57.362 65.0343 57.4438 65.0348 57.5281C65.0356 57.6132 65.0365 57.6983 65.0373 57.786C65.0387 57.966 65.0395 58.1459 65.0399 58.3259C65.041 58.5996 65.0456 58.8731 65.0503 59.1468C65.0512 59.3221 65.0519 59.4974 65.0524 59.6727C65.0542 59.7537 65.056 59.8348 65.0579 59.9184C65.0531 60.5698 64.8492 61.0232 64.3893 61.4873C64.0179 61.8104 63.6961 62.0223 63.2001 62.0275C63.0851 62.0293 63.0851 62.0293 62.9678 62.0312C62.8856 62.0314 62.8035 62.0316 62.7189 62.0318C62.6336 62.0324 62.5482 62.033 62.4604 62.0337C62.28 62.0346 62.0996 62.0351 61.9192 62.035C61.6445 62.0355 61.37 62.0389 61.0953 62.0424C60.9197 62.043 60.7441 62.0433 60.5685 62.0435C60.4869 62.0449 60.4053 62.0462 60.3213 62.0476C59.6913 62.0429 59.2911 61.8946 58.8195 61.4583C58.7551 61.3785 58.7551 61.3785 58.6894 61.2972C58.6453 61.244 58.6012 61.1908 58.5558 61.136C58.3375 60.8278 58.2269 60.5819 58.2213 60.2019C58.2198 60.1255 58.2183 60.0492 58.2167 59.9705C58.2162 59.8886 58.2157 59.8068 58.2152 59.7225C58.2144 59.6374 58.2135 59.5523 58.2126 59.4646C58.2113 59.2846 58.2104 59.1047 58.2101 58.9247C58.209 58.651 58.2044 58.3775 58.1996 58.1038C58.1988 57.9285 58.1981 57.7532 58.1976 57.5779C58.1958 57.4969 58.194 57.4158 58.1921 57.3322C58.1969 56.6808 58.4008 56.2274 58.8607 55.7633C59.2312 55.441 59.5537 55.229 60.0484 55.2216ZM59.8437 57.0315C59.6749 57.5382 59.7287 58.0834 59.7266 58.6136C59.7246 58.7336 59.7227 58.8536 59.7207 58.9772C59.7202 59.0929 59.7197 59.2085 59.7192 59.3277C59.7184 59.4334 59.7175 59.5391 59.7166 59.6481C59.7541 59.9736 59.8317 60.1484 60.0312 60.4065C60.5379 60.5754 61.0831 60.5216 61.6133 60.5237C61.7333 60.5257 61.8533 60.5276 61.9769 60.5296C62.0926 60.5301 62.2082 60.5306 62.3274 60.5311C62.486 60.5324 62.486 60.5324 62.6478 60.5337C62.9858 60.4947 63.1541 60.4501 63.4062 60.219C63.455 59.9616 63.4721 59.7619 63.4685 59.5042C63.4689 59.4345 63.4694 59.3648 63.4699 59.293C63.4702 59.1458 63.4693 58.9986 63.4674 58.8514C63.4648 58.626 63.4673 58.401 63.4703 58.1756C63.47 58.0325 63.4694 57.8895 63.4685 57.7464C63.4694 57.679 63.4704 57.6116 63.4714 57.5422C63.4715 57.3286 63.4715 57.3286 63.4062 57.0315C63.0756 56.7299 62.7698 56.7143 62.334 56.7129C62.2192 56.7126 62.1044 56.7122 61.9861 56.7118C61.8669 56.7129 61.7478 56.714 61.625 56.7151C61.5058 56.7141 61.3867 56.713 61.2639 56.7118C61.0917 56.7124 61.0917 56.7124 60.916 56.7129C60.8115 56.7133 60.7069 56.7136 60.5992 56.7139C60.2771 56.7548 60.1 56.8343 59.8437 57.0315Z" fill="white"/>
<path d="M53.4688 48.1693C53.5506 48.1689 53.6324 48.1686 53.7167 48.1682C53.8894 48.168 54.0621 48.1686 54.2349 48.1702C54.4991 48.1722 54.7631 48.1702 55.0273 48.1678C55.1953 48.1681 55.3633 48.1686 55.5312 48.1693C55.6102 48.1685 55.6891 48.1678 55.7704 48.167C56.3175 48.1758 56.3175 48.1758 56.6121 48.398C56.7614 48.6103 56.8009 48.7123 56.7969 48.9691C56.7978 49.031 56.7988 49.0928 56.7998 49.1566C56.7238 49.4429 56.6122 49.5401 56.375 49.7191C56.094 49.7755 55.8171 49.7717 55.5312 49.7689C55.4494 49.7693 55.3676 49.7696 55.2833 49.77C55.1106 49.7702 54.9379 49.7696 54.7651 49.768C54.5009 49.766 54.2369 49.768 53.9727 49.7704C53.8047 49.7701 53.6367 49.7696 53.4688 49.7689C53.3898 49.7697 53.3109 49.7704 53.2296 49.7712C52.6825 49.7624 52.6825 49.7624 52.3879 49.5402C52.2386 49.3279 52.1991 49.2259 52.2031 48.9691C52.2017 48.8763 52.2017 48.8763 52.2002 48.7816C52.3728 48.132 52.911 48.1639 53.4688 48.1693Z" fill="white"/>
<path d="M37.7188 48.1693C37.8006 48.1689 37.8824 48.1686 37.9667 48.1682C38.1394 48.168 38.3121 48.1686 38.4849 48.1702C38.7491 48.1722 39.0131 48.1702 39.2773 48.1678C39.4453 48.1681 39.6133 48.1686 39.7812 48.1693C39.8602 48.1685 39.9391 48.1678 40.0204 48.167C40.5675 48.1758 40.5675 48.1758 40.8621 48.398C41.0114 48.6103 41.0509 48.7123 41.0469 48.9691C41.0478 49.031 41.0488 49.0928 41.0498 49.1566C40.9738 49.4429 40.8622 49.5401 40.625 49.7191C40.344 49.7755 40.0671 49.7717 39.7812 49.7689C39.6994 49.7693 39.6176 49.7696 39.5333 49.77C39.3606 49.7702 39.1879 49.7696 39.0151 49.768C38.7509 49.766 38.4869 49.768 38.2227 49.7704C38.0547 49.7701 37.8867 49.7696 37.7188 49.7689C37.6398 49.7697 37.5609 49.7704 37.4796 49.7712C36.9325 49.7624 36.9325 49.7624 36.6379 49.5402C36.4886 49.3279 36.4491 49.2259 36.4531 48.9691C36.4517 48.8763 36.4517 48.8763 36.4502 48.7816C36.6228 48.132 37.161 48.1639 37.7188 48.1693Z" fill="white"/>
<path d="M44.4688 33.9691C44.7053 34.2352 44.7514 34.369 44.7441 34.7249C44.6395 35.0528 44.5686 35.1838 44.2813 35.3753C43.9051 35.451 43.6275 35.4331 43.2969 35.2347C43.0992 34.9053 43.0785 34.6252 43.1563 34.2503C43.541 33.7329 43.8928 33.7428 44.4688 33.9691Z" fill="white"/>
<path d="M41.6562 33.9689C41.8496 34.2209 41.8496 34.2209 41.9375 34.5314C41.8789 34.883 41.8789 34.883 41.75 35.1877C41.4037 35.4185 41.1206 35.4382 40.7187 35.3752C40.4844 35.2345 40.4844 35.2345 40.3437 35.0002C40.2924 34.7393 40.2897 34.5107 40.3437 34.2502C40.726 33.7361 41.0842 33.734 41.6562 33.9689Z" fill="white"/>
</svg>
