<svg width="101" height="100" viewBox="0 0 101 100" fill="none" xmlns="http://www.w3.org/2000/svg">
<path d="M30.6859 29.8788C30.8438 30.009 31.0016 30.1392 31.1643 30.2733C31.3161 30.3934 31.4679 30.5135 31.6243 30.6372C34.7147 33.2063 36.7402 37.2453 37.219 41.2108C37.2467 41.786 37.2496 42.3604 37.2504 42.9362C37.2514 43.1035 37.2524 43.2707 37.2534 43.4431C37.2562 43.9932 37.2576 44.5433 37.2586 45.0934C37.2595 45.3773 37.2595 45.3773 37.2603 45.6669C37.2632 46.6693 37.265 47.6716 37.2659 48.6739C37.267 49.7024 37.2717 50.7309 37.2772 51.7595C37.2809 52.5563 37.2819 53.353 37.2822 54.1498C37.2828 54.5286 37.2843 54.9074 37.2869 55.2862C37.3193 60.3929 36.0066 64.8557 32.4362 68.6481C29.3366 71.7657 25.0047 73.4688 20.6296 73.4862C15.9505 73.479 11.795 71.7157 8.41496 68.4843C7.11753 67.1267 6.14089 65.6935 5.322 64.0135C5.23016 63.829 5.23016 63.829 5.13647 63.6408C3.83855 60.8239 3.70242 58.0107 3.71678 54.9681C3.71625 54.5684 3.71549 54.1688 3.71451 53.7691C3.71337 52.9365 3.71501 52.104 3.71869 51.2715C3.72314 50.213 3.72057 49.1547 3.7159 48.0962C3.71305 47.2724 3.71398 46.4487 3.716 45.6249C3.71651 45.235 3.7159 44.845 3.71406 44.4551C3.69507 39.3048 5.0857 34.9671 8.7354 31.201C14.5538 25.5589 24.2587 24.8542 30.6859 29.8788ZM10.1072 35.0218C8.20011 37.4737 7.24793 40.2663 7.25148 43.3669C7.34468 44.0033 7.46753 44.2771 7.9221 44.7264C8.57984 44.9552 8.57984 44.9552 9.28929 44.9217C9.91685 44.5374 10.2164 44.3155 10.4192 43.598C10.4371 43.3943 10.455 43.1907 10.4734 42.9808C10.8082 40.2407 11.7433 37.4896 13.9402 35.6802C16.4859 33.8864 19.0883 33.0664 22.2219 33.4814C24.9309 34.0167 27.1635 35.3417 28.7771 37.5937C29.8962 39.3586 30.253 41.0168 30.4372 43.0754C30.5959 43.8338 30.8136 44.1844 31.3596 44.7264C31.9825 44.9211 32.3497 44.9823 32.9709 44.7752C33.3694 44.5211 33.3694 44.5211 33.7034 43.9452C34.083 40.8388 32.8877 37.7738 31.101 35.2797C28.7618 32.319 25.6727 30.6758 21.9846 30.078C17.3988 29.6109 13.0944 31.5616 10.1072 35.0218ZM15.4004 39.083C14.3825 40.5254 13.9797 41.8175 13.7937 43.5545C13.6117 45.1933 13.3634 46.2844 12.0481 47.3387C11.1137 47.9737 10.3003 48.2291 9.17943 48.3031C8.49198 48.3704 8.3071 48.4414 7.71458 48.8646C7.30225 49.3872 7.30225 49.3872 7.21409 49.9999C7.38735 50.8315 7.60297 51.0892 8.31273 51.5624C10.0279 51.8889 11.8297 51.3802 13.2955 50.4797C15.2051 49.063 16.5596 47.3574 17.0316 45.0056C17.1097 44.4775 17.1497 43.9528 17.1872 43.4203C17.2795 42.301 17.5135 41.5703 18.3347 40.7713C19.3537 40.1078 20.1769 39.9536 21.3643 40.1312C22.1571 40.3234 22.7212 40.6532 23.1769 41.3411C23.7105 42.3579 23.8632 43.2229 23.9255 44.3602C24.1589 47.1947 25.0071 49.4436 27.1238 51.4159C28.6236 52.6131 30.396 53.3405 32.3362 53.3202C33.0236 53.0012 33.2784 52.7857 33.7034 52.1483C33.6638 51.2519 33.6638 51.2519 33.2807 50.4622C32.7823 50.091 32.3227 50.0366 31.7136 49.9266C30.2473 49.6086 29.1542 49.1923 28.2712 47.9369C27.4968 46.5445 27.2566 45.017 27.1726 43.4447C27.0408 41.436 26.4431 39.9816 25.0394 38.5222C23.7083 37.3959 22.0368 36.6296 20.2688 36.6644C18.3629 36.9031 16.6248 37.5762 15.4004 39.083ZM19.2502 47.2655C18.8347 47.9018 18.7753 48.5217 18.6887 49.2674C18.5285 50.3693 18.3036 51.2204 17.6877 52.1483C17.6122 52.2661 17.5367 52.3839 17.4588 52.5053C16.5134 53.7845 14.9296 54.557 13.3909 54.8827C12.6932 54.9138 11.9967 54.9404 11.2985 54.9494C10.3297 54.9861 9.78953 55.122 9.09398 55.8592C8.89931 56.4821 8.83809 56.8494 9.04515 57.4706C9.29926 57.869 9.29926 57.869 9.87523 58.203C10.4579 58.2868 11.0449 58.2679 11.633 58.264C11.8006 58.2631 11.9681 58.2621 12.1407 58.2611C13.4148 58.2376 14.5433 58.0924 15.7346 57.617C15.8932 57.5574 16.0518 57.4977 16.2153 57.4362C18.7919 56.3186 20.5225 54.1842 21.6108 51.6554C22.0567 50.3911 22.2125 48.9801 21.9846 47.6561C21.6258 47.2195 21.3412 46.9438 20.8371 46.6917C20.187 46.6726 19.792 46.9239 19.2502 47.2655ZM22.5217 56.6893C20.6093 59.2048 17.8428 60.8997 14.7084 61.398C14.1216 61.4716 13.5359 61.5355 12.946 61.578C12.1024 61.6462 11.5304 61.7898 10.8518 62.3045C10.5697 62.8687 10.5829 63.2414 10.6565 63.867C10.9468 64.4843 10.9468 64.4843 11.633 64.8436C14.9712 65.3631 18.734 63.9151 21.4658 62.0978C23.312 60.7485 25.3846 58.9824 26.2815 56.8358C26.1616 56.1564 26.0163 55.7936 25.5368 55.2977C24.1192 54.5686 23.332 55.6083 22.5217 56.6893ZM29.0159 57.617C28.7328 58.1817 28.7328 58.1817 28.5398 58.8133C27.5571 61.5471 26.0181 63.5114 23.5471 65.0389C23.4011 65.1296 23.255 65.2202 23.1046 65.3136C21.9382 65.9642 20.746 66.2508 19.4409 66.4829C18.4604 66.6767 17.9386 66.9597 17.2971 67.7733C17.1657 68.4885 17.1945 68.7933 17.6023 69.3968C18.407 69.9539 19.2004 69.9553 20.1528 69.8248C24.496 68.7535 28.1504 66.4204 30.5417 62.5365C31.8069 60.3479 31.8069 60.3479 31.9913 57.9497C31.7215 57.3588 31.5444 57.1317 30.969 56.8358C30.0587 56.6724 29.6666 57.002 29.0159 57.617Z" fill="white"/>
<path d="M75.3047 69.1403C76.4411 70.1715 77.1522 71.2493 77.312 72.7864C77.3677 74.4034 77.0674 75.5442 76.0493 76.8063C75.0355 77.8882 73.9259 78.4212 72.4444 78.5206C70.8085 78.5016 69.6664 78.0698 68.4688 76.9528C67.4367 75.8649 67.0663 74.8501 67.0039 73.3761C67.0499 71.7076 67.6034 70.5088 68.7983 69.3478C70.6676 67.8671 73.3494 67.7058 75.3047 69.1403Z" fill="white"/>
<path d="M75.3047 22.4608C76.4423 23.489 77.1524 24.5717 77.312 26.1069C77.3677 27.7239 77.0674 28.8647 76.0493 30.1268C74.972 31.2739 73.8455 31.7476 72.2796 31.8411C70.6953 31.8239 69.6345 31.3383 68.4688 30.2733C67.4367 29.1854 67.0663 28.1706 67.0039 26.6966C67.0448 25.2128 67.4469 24.122 68.4565 23.0269C70.368 21.2674 73.1269 20.9217 75.3047 22.4608Z" fill="white"/>
<path d="M95.6783 34.3996C96.775 35.5728 97.2391 36.6812 97.2896 38.2937C97.2203 39.9334 96.8626 41.0343 95.6539 42.1633C94.0793 43.404 92.7258 43.5665 90.7345 43.3596C89.1782 42.9087 88.2205 41.7651 87.4149 40.4116C86.8052 39.2538 86.8847 37.8537 87.231 36.6213C87.7107 35.3235 88.5659 34.341 89.7945 33.7038C91.8942 32.7502 93.7846 33.1847 95.6783 34.3996Z" fill="white"/>
<path d="M94.5308 57.0317C95.8777 57.815 96.7787 58.8395 97.1797 60.352C97.3756 62.092 97.2853 63.6133 96.2031 65.0395C95.1041 66.1649 93.673 66.7958 92.1016 66.8706C90.5928 66.7957 89.4331 66.2591 88.3372 65.2287C87.3684 64.124 86.9571 62.8291 86.9815 61.3698C87.1107 60.0403 87.652 58.7732 88.586 57.813C90.3204 56.5028 92.491 56.0966 94.5308 57.0317Z" fill="white"/>
<path d="M75.1092 45.7028C76.1851 46.5831 77.1604 47.9156 77.311 49.3291C77.3716 51.1151 76.9542 52.3098 75.8172 53.6862C74.3075 54.9083 72.933 55.2524 71.0076 55.0778C69.4337 54.6237 68.3155 53.7633 67.492 52.3434C66.9116 51.1246 66.8737 49.6092 67.2494 48.3197C67.9101 46.764 68.8096 45.8008 70.3484 45.068C72.0456 44.6909 73.6183 44.7653 75.1092 45.7028Z" fill="white"/>
<path d="M55.2272 80.7567C56.4917 81.7824 57.1057 82.8356 57.3237 84.4478C57.4053 85.9606 57.0823 87.1757 56.1152 88.3541C55.0207 89.5019 53.8377 90.0626 52.2456 90.1119C50.73 90.095 49.6462 89.7155 48.527 88.6837C47.4277 87.4893 47.0134 86.3824 46.9844 84.7652C47.102 83.2496 47.775 81.9772 48.8795 80.936C50.7355 79.5106 53.2904 79.4587 55.2272 80.7567Z" fill="white"/>
<path d="M55.1768 34.0269C56.413 34.9902 57.1298 36.2278 57.3359 37.7806C57.4032 39.2855 57.0768 40.503 56.1152 41.6746C55.2276 42.6055 54.1905 43.2949 52.8788 43.4057C51.2019 43.4434 49.9538 43.3393 48.6918 42.169C47.525 40.9144 47.0152 39.8008 46.9844 38.0858C47.102 36.5702 47.775 35.2977 48.8795 34.2566C50.7264 32.8381 53.2196 32.8007 55.1768 34.0269Z" fill="white"/>
<path d="M54.7969 10.4823C55.9527 11.2499 56.7369 12.1303 57.1406 13.4761C57.4803 15.2223 57.2433 16.4507 56.4204 18.0049C55.3996 19.2464 54.2483 19.9943 52.6248 20.1587C51.2046 20.2202 49.9301 19.9007 48.791 19.0303C47.6919 17.9977 47.0567 16.5825 46.9722 15.0813C47.0232 13.2699 47.7243 12.1081 49.0229 10.876C50.7787 9.71981 52.8819 9.4826 54.7969 10.4823Z" fill="white"/>
<path d="M54.7969 57.1627C55.9551 57.9318 56.7299 58.8102 57.1406 60.1565C57.4704 61.847 57.3272 63.1183 56.4204 64.5876C55.5369 65.8314 54.5531 66.51 53.0391 66.7971C51.3809 66.9986 50.0675 66.4902 48.6812 65.6008C47.5684 64.4104 46.9326 62.9695 46.9844 61.3283C47.1793 59.5509 47.9842 58.5011 49.29 57.3275C50.8493 56.251 53.1509 56.3034 54.7969 57.1627Z" fill="white"/>
<path d="M33.3125 71.6797C34.1139 71.9727 34.8302 72.3659 35.5594 72.8035C35.682 72.8764 35.8047 72.9493 35.9311 73.0243C36.3323 73.263 36.7328 73.5027 37.1333 73.7427C37.4111 73.9088 37.689 74.0748 37.9668 74.2409C38.5389 74.583 39.1107 74.9257 39.6824 75.2687C40.3773 75.6851 41.0741 76.0984 41.7717 76.5105C42.2824 76.8125 42.7919 77.1164 43.3012 77.4207C43.5428 77.5645 43.7847 77.7076 44.0271 77.85C44.363 78.0475 44.6972 78.2479 45.0312 78.4485C45.2206 78.5609 45.4099 78.6733 45.605 78.7891C45.7379 78.8922 45.8708 78.9953 46.0078 79.1016C46.0078 79.8034 45.8239 80.0606 45.4585 80.6519C45.3565 80.8188 45.2546 80.9857 45.1495 81.1577C44.8659 81.5945 44.5646 82.0071 44.25 82.4219C41.1619 80.5957 38.0762 78.7658 35.0093 76.9043C34.7911 76.772 34.5728 76.6397 34.348 76.5034C33.0157 75.693 31.695 74.8661 30.3828 74.0234C30.9023 73.4879 31.4598 73.0663 32.0674 72.6318C32.717 72.1887 32.717 72.1887 33.3125 71.6797Z" fill="white"/>
<path d="M44.25 17.5781C44.6854 18.1522 45.0827 18.7329 45.4585 19.3481C45.562 19.5156 45.6655 19.683 45.7721 19.8555C46.0078 20.3125 46.0078 20.3125 46.0078 20.8984C45.6204 21.1805 45.248 21.4156 44.8329 21.6507C44.7089 21.7233 44.5849 21.7959 44.4571 21.8707C44.0474 22.1101 43.636 22.3465 43.2246 22.583C42.7975 22.8316 42.3709 23.0809 41.9443 23.3302C41.6521 23.501 41.3599 23.6714 41.0674 23.8417C40.0917 24.4105 39.123 24.9898 38.1595 25.5791C38.0345 25.6555 37.9095 25.7319 37.7807 25.8106C37.3013 26.1041 36.8222 26.398 36.3437 26.6929C36.0165 26.8944 35.6888 27.0951 35.361 27.2957C35.1768 27.4091 34.9926 27.5226 34.8028 27.6394C34.316 27.9145 33.8363 28.1267 33.3125 28.3203C33.1828 28.2143 33.0532 28.1083 32.9196 27.9991C32.7471 27.8594 32.5747 27.7197 32.397 27.5757C32.227 27.4375 32.0571 27.2992 31.882 27.1568C31.3984 26.7876 30.9106 26.4733 30.3828 26.1719C30.9618 25.5436 31.5474 25.1293 32.2871 24.7047C32.4519 24.6093 32.4519 24.6093 32.6199 24.512C32.8568 24.3749 33.0941 24.2383 33.3315 24.1022C33.9689 23.7368 34.6038 23.3673 35.2389 22.998C35.3699 22.922 35.5008 22.846 35.6357 22.7677C37.0327 21.9548 38.4146 21.1175 39.7944 20.2759C39.9069 20.2073 40.0194 20.1387 40.1353 20.068C40.6617 19.747 41.188 19.4258 41.7143 19.1045C42.5571 18.5917 43.4031 18.0841 44.25 17.5781Z" fill="white"/>
<path d="M79.9922 52.5391C81.4541 53.2184 82.8545 53.9876 84.2402 54.8096C84.4777 54.9464 84.4777 54.9464 84.72 55.086C84.8668 55.1745 85.0137 55.2631 85.1649 55.3543C85.2973 55.4328 85.4297 55.5112 85.566 55.5921C85.6603 55.6803 85.7545 55.7685 85.8516 55.8594C85.8516 56.7133 85.7244 56.9328 85.2778 57.6294C84.9419 58.1576 84.683 58.5839 84.4844 59.1797C83.7084 58.8924 83.0165 58.5256 82.3016 58.11C82.1903 58.0456 82.0789 57.9811 81.9642 57.9147C81.6117 57.7103 81.2597 57.5051 80.9077 57.2998C80.6676 57.1604 80.4274 57.021 80.1871 56.8817C79.6009 56.5416 79.0152 56.2007 78.4297 55.8594C78.4297 55.0109 78.5526 54.7851 78.9912 54.0894C79.0954 53.9219 79.1997 53.7545 79.3071 53.582C79.5324 53.2324 79.7615 52.8852 79.9922 52.5391Z" fill="white"/>
<path d="M84.0938 40.8203C84.2227 40.8203 84.3516 40.8203 84.4844 40.8203C85.0052 41.862 85.526 42.9036 86.0469 43.9453C84.7772 44.82 83.4712 45.6054 82.1284 46.3623C81.9407 46.4688 81.753 46.5753 81.5596 46.685C81.1026 46.9443 80.6452 47.2029 80.1875 47.4609C79.6922 46.9819 79.3385 46.5009 78.979 45.9106C78.8755 45.7437 78.772 45.5768 78.6654 45.4048C78.4297 44.9219 78.4297 44.9219 78.4297 44.1406C78.5943 44.047 78.759 43.9533 78.9286 43.8569C79.5377 43.5103 80.1466 43.1633 80.7555 42.8162C81.0193 42.6659 81.2832 42.5156 81.5472 42.3655C81.926 42.1501 82.3046 41.9342 82.6831 41.7183C82.861 41.6173 82.861 41.6173 83.0425 41.5142C83.6014 41.2133 83.6014 41.2133 84.0938 40.8203Z" fill="white"/>
<path d="M84.4844 64.2578C84.5799 64.4557 84.5799 64.4557 84.6774 64.6576C84.7627 64.8318 84.8481 65.006 84.936 65.1855C85.0199 65.3578 85.1037 65.53 85.1901 65.7074C85.4435 66.2157 85.4435 66.2157 85.7989 66.629C85.8807 66.7489 85.9626 66.8687 86.0469 66.9922C85.798 67.7389 85.5624 67.7969 84.8842 68.1702C84.6865 68.2802 84.4889 68.3902 84.2852 68.5036C84.077 68.6171 83.8688 68.7307 83.6543 68.8477C83.2463 69.0734 82.8384 69.2992 82.4305 69.5251C82.2487 69.6247 82.0669 69.7243 81.8795 69.8269C81.5274 70.0234 81.181 70.2307 80.8408 70.4472C80.3828 70.7031 80.3828 70.7031 79.7969 70.7031C79.7332 70.5712 79.6695 70.4393 79.6039 70.3033C79.4758 70.042 79.4758 70.042 79.3452 69.7754C79.2195 69.5171 79.2195 69.5171 79.0912 69.2535C78.8352 68.7468 78.8352 68.7468 78.4945 68.3197C78.2344 67.9688 78.2344 67.9688 78.2344 67.5781C78.3643 67.5053 78.4943 67.4325 78.6281 67.3574C79.2214 67.0246 79.8143 66.691 80.4072 66.3574C80.6117 66.2429 80.8161 66.1283 81.0267 66.0103C82.2481 65.3274 82.2481 65.3274 83.4208 64.566C83.8984 64.2578 83.8984 64.2578 84.4844 64.2578Z" fill="white"/>
<path d="M79.7969 29.2969C80.6044 29.4122 81.174 29.6814 81.8736 30.0957C82.0793 30.2166 82.285 30.3376 82.4969 30.4623C82.7097 30.5893 82.9224 30.7163 83.1416 30.8472C83.3559 30.9734 83.5701 31.0997 83.7909 31.2298C85.3278 32.1378 85.3278 32.1378 86.0469 32.6172C85.7511 33.4508 85.333 34.1963 84.8987 34.9632C84.7542 35.2194 84.6159 35.4791 84.4844 35.7422C83.7415 35.6091 83.1775 35.2723 82.5297 34.8938C82.419 34.8295 82.3084 34.7652 82.1943 34.699C81.8422 34.4942 81.4909 34.2882 81.1396 34.082C80.7868 33.8762 80.4338 33.6706 80.0808 33.4651C79.7613 33.2789 79.4422 33.0921 79.1231 32.9052C78.8312 32.7364 78.536 32.5727 78.2344 32.4219C78.5106 31.6182 78.9198 30.9534 79.3826 30.2475C79.6321 29.8618 79.6321 29.8618 79.7969 29.2969Z" fill="white"/>
<path d="M64.5625 75.9766C64.6426 76.139 64.7226 76.3013 64.8051 76.4687C64.9104 76.6809 65.0156 76.8931 65.124 77.1118C65.2283 77.3225 65.3325 77.5333 65.4399 77.7504C65.7289 78.3356 65.7289 78.3356 66.125 78.9062C64.8607 79.7748 63.5637 80.5646 62.231 81.3232C62.0465 81.4297 61.8621 81.5362 61.6721 81.646C61.4962 81.7464 61.3204 81.8469 61.1392 81.9504C60.9013 82.0865 60.9013 82.0865 60.6586 82.2253C60.2656 82.4219 60.2656 82.4219 59.875 82.4219C59.6871 82.0845 59.5001 81.7467 59.3135 81.4087C59.2092 81.2206 59.105 81.0325 58.9976 80.8388C58.7336 80.332 58.5201 79.8284 58.3125 79.2969C59.0001 78.8898 59.6878 78.483 60.3755 78.0762C60.569 77.9616 60.7625 77.8471 60.9618 77.729C61.3396 77.5056 61.7176 77.2827 62.096 77.0603C62.4095 76.8756 62.7222 76.6895 63.0335 76.5011C63.9125 75.9766 63.9125 75.9766 64.5625 75.9766Z" fill="white"/>
<path d="M64.1719 52.5391C64.623 52.9517 64.8904 53.3291 65.1484 53.8818C65.4396 54.5005 65.7707 55.0792 66.125 55.6641C65.3924 56.1029 64.6592 56.5407 63.9256 56.9777C63.6763 57.1264 63.4272 57.2753 63.1783 57.4244C62.8194 57.6394 62.46 57.8534 62.1005 58.0673C61.8847 58.1962 61.6689 58.3251 61.4465 58.4579C60.9298 58.7455 60.4293 58.9767 59.875 59.1797C59.7949 59.015 59.7149 58.8504 59.6324 58.6807C59.5271 58.4667 59.4219 58.2527 59.3135 58.0322C59.2092 57.8192 59.105 57.6062 58.9976 57.3868C58.7333 56.8284 58.7333 56.8284 58.3125 56.4453C58.3125 56.252 58.3125 56.0586 58.3125 55.8594C58.4414 55.7866 58.5703 55.7137 58.7032 55.6387C59.2932 55.3054 59.8832 54.972 60.4731 54.6387C60.6759 54.5241 60.8787 54.4096 61.0877 54.2915C62.1172 53.7098 63.1459 53.127 64.1719 52.5391Z" fill="white"/>
<path d="M59.875 40.8203C62.0529 41.8296 64.08 43.0852 66.125 44.3359C66.0072 44.5416 65.8893 44.7473 65.7679 44.9593C65.4437 45.5266 65.1232 46.0958 64.8066 46.6675C64.7231 46.8183 64.6395 46.9691 64.5533 47.1245C64.4919 47.2355 64.4305 47.3465 64.3672 47.4609C62.28 46.4736 60.3008 45.311 58.3125 44.1406C58.4518 43.5324 58.6365 43.111 58.9839 42.5903C59.3641 42.0195 59.6346 41.4633 59.875 40.8203Z" fill="white"/>
<path d="M59.875 17.5781C61.1045 17.9483 62.1261 18.5595 63.2214 19.2177C63.5633 19.4225 63.9072 19.6236 64.2512 19.8246C64.4662 19.9531 64.6812 20.0817 64.9028 20.2141C65.0999 20.3313 65.297 20.4484 65.5001 20.5692C65.6418 20.6778 65.7836 20.7865 65.9297 20.8984C65.9297 21.6089 65.732 21.8663 65.356 22.4609C65.0217 22.992 64.7615 23.4264 64.5625 24.0234C63.7241 23.9064 63.1187 23.6073 62.3866 23.1888C62.2757 23.1254 62.1649 23.0621 62.0506 22.9968C61.8178 22.8632 61.5854 22.7289 61.3534 22.5939C60.9977 22.3875 60.6402 22.1846 60.2824 21.9818C60.056 21.8513 59.8296 21.7206 59.6034 21.5897C59.2951 21.412 59.2951 21.412 58.9806 21.2308C58.5078 20.8984 58.5078 20.8984 58.3125 20.3125C58.536 19.8555 58.536 19.8555 58.8618 19.3481C59.2302 18.7681 59.5797 18.199 59.875 17.5781Z" fill="white"/>
<path d="M50.5 46.4844C51.6602 46.4844 52.8203 46.4844 54.0156 46.4844C54.0156 48.8047 54.0156 51.125 54.0156 53.5156C52.8555 53.5156 51.6953 53.5156 50.5 53.5156C50.5 51.1953 50.5 48.875 50.5 46.4844Z" fill="white"/>
<path d="M50.5 69.7266C51.6602 69.7266 52.8203 69.7266 54.0156 69.7266C54.0156 72.1113 54.0156 74.4961 54.0156 76.9531C52.8555 76.9531 51.6953 76.9531 50.5 76.9531C50.5 74.5684 50.5 72.1836 50.5 69.7266Z" fill="white"/>
<path d="M50.5 23.0469C51.6602 23.0469 52.8203 23.0469 54.0156 23.0469C54.0156 25.4316 54.0156 27.8164 54.0156 30.2734C52.8555 30.2734 51.6953 30.2734 50.5 30.2734C50.5 27.8887 50.5 25.5039 50.5 23.0469Z" fill="white"/>
<path d="M40.3438 57.6172C43.2513 57.8272 43.2513 57.8272 44.4453 58.2031C44.7701 58.8527 44.4416 59.5085 44.2622 60.1807C44.2241 60.3279 44.1859 60.4752 44.1466 60.627C44.0521 60.9912 43.9559 61.355 43.8594 61.7188C42.534 61.6116 41.2519 61.4174 39.9531 61.1328C40.0532 59.9553 40.1621 58.7851 40.3438 57.6172Z" fill="white"/>
<path d="M43.8596 38.2812C44.1174 39.377 44.3752 40.4727 44.6408 41.6016C43.9007 41.8483 43.2446 42.06 42.4924 42.2119C42.3353 42.2446 42.1782 42.2774 42.0163 42.3111C41.4535 42.3917 40.9118 42.3944 40.3439 42.3828C40.2779 41.9801 40.213 41.5773 40.1486 41.1743C40.1124 40.95 40.0761 40.7257 40.0388 40.4945C39.966 39.9406 39.9365 39.4244 39.9533 38.8672C40.421 38.7683 40.889 38.6709 41.3571 38.5742C41.4887 38.5463 41.6202 38.5183 41.7558 38.4895C42.4861 38.3399 43.1058 38.2812 43.8596 38.2812Z" fill="white"/>
</svg>
