<svg width="108" height="108" viewBox="0 0 108 108" fill="none" xmlns="http://www.w3.org/2000/svg">
<circle cx="54" cy="54.0005" r="53.0737" fill="#1B2351"/>
<g clip-path="url(#clip0_530_5990)">
<path d="M52.4361 28.8917C52.5653 28.8918 52.5653 28.8918 52.6971 28.8919C54.1601 28.8958 55.5662 28.992 57.0005 29.3019C57.0938 29.322 57.187 29.3421 57.283 29.3628C59.5209 29.8635 61.6729 30.7178 63.6392 31.8976C63.7104 31.9399 63.7816 31.9823 63.855 32.0259C64.7002 32.5477 64.7002 32.5477 64.8316 33.0577C64.8242 33.5144 64.7482 33.7517 64.4068 34.0831C64.0768 34.2481 63.7358 34.2261 63.3755 34.1769C63.0758 34.0561 62.8144 33.889 62.5435 33.714C62.3862 33.6183 62.2286 33.5231 62.0707 33.4283C61.9516 33.3566 61.9516 33.3566 61.83 33.2835C57.5141 30.7589 52.1628 30.3489 47.3828 31.5824C46.1976 31.9057 45.0763 32.3331 43.9693 32.8644C43.8983 32.8985 43.8273 32.9325 43.7541 32.9677C41.9908 33.8286 40.4285 34.9923 39.0005 36.3331C38.9512 36.3793 38.9019 36.4254 38.8511 36.4729C37.5187 37.7295 36.4485 39.1567 35.5318 40.7394C35.4961 40.8007 35.4603 40.862 35.4235 40.9251C34.3762 42.7453 33.7172 44.6911 33.2818 46.7394C33.2568 46.8486 33.2568 46.8486 33.2313 46.9601C32.6844 49.4008 32.8158 52.2884 33.3755 54.7081C33.3951 54.7952 33.4147 54.8822 33.4349 54.9718C34.2272 58.3945 35.9487 61.4381 38.3443 63.9894C38.3904 64.0387 38.4366 64.088 38.4841 64.1388C41.9237 67.7859 46.8222 69.854 51.8052 70.0764C54.4644 70.1484 57.2756 69.7749 59.7193 68.6769C59.6923 68.5342 59.6649 68.3917 59.6373 68.2491C59.622 68.1697 59.6068 68.0903 59.5911 68.0085C59.5222 67.6957 59.4347 67.3903 59.3443 67.0831C59.2906 67.101 59.237 67.119 59.1817 67.1374C58.2601 67.4432 57.34 67.7459 56.3912 67.9562C56.3298 67.9699 56.2684 67.9837 56.2052 67.9978C56.0021 68.0407 55.7987 68.0783 55.5943 68.1144C55.5024 68.131 55.4105 68.1476 55.3159 68.1648C54.4476 68.3064 53.5967 68.3338 52.7185 68.3315C52.4849 68.3312 52.2513 68.3334 52.0177 68.3358C50.646 68.3412 49.2908 68.1794 47.9654 67.8156C47.8576 67.7863 47.8576 67.7863 47.7477 67.7565C46.4836 67.4 45.271 66.9174 44.1041 66.3156C44.0299 66.2777 43.9557 66.2399 43.8792 66.2009C43.4779 65.986 43.1832 65.7931 42.938 65.3956C42.8756 64.9586 42.8687 64.6852 43.1314 64.3234C43.4656 64.0318 43.6236 64.004 44.063 63.9894C44.3082 64.0859 44.5109 64.1824 44.7369 64.3116C48.6448 66.395 52.9955 66.849 57.2408 65.5948C58.6057 65.2354 58.6057 65.2354 59.6197 64.3585C59.6587 64.2699 59.6587 64.2699 59.6984 64.1794C59.813 63.9894 59.813 63.9894 60.0973 63.8057C60.2905 63.6462 60.366 63.5586 60.4274 63.3133C60.446 63.0474 60.4469 62.7864 60.4421 62.5199C60.4426 62.3687 60.4426 62.3687 60.4432 62.2144C60.444 61.8809 60.4408 61.5477 60.4378 61.2142C60.4379 60.982 60.4383 60.7497 60.439 60.5174C60.4404 59.8427 60.4379 59.1681 60.4349 58.4934C60.4311 57.5783 60.4302 56.6632 60.432 55.7481C60.4319 55.4075 60.4295 55.0669 60.4269 54.7263C60.4269 54.5156 60.4269 54.3049 60.427 54.0941C60.4257 54.0004 60.4243 53.9067 60.4229 53.8101C60.4283 52.8314 60.7132 52.0308 61.3918 51.3218C62.1416 50.6696 62.9992 50.6162 63.9462 50.6605C64.6552 50.7253 65.264 51.1834 65.7193 51.7081C66.0647 52.2643 66.2943 52.7919 66.2924 53.4505C66.2924 53.5349 66.2924 53.6193 66.2924 53.7063C66.2919 53.7967 66.2914 53.887 66.2909 53.9801C66.2907 54.1198 66.2907 54.1198 66.2905 54.2622C66.29 54.5593 66.2888 54.8564 66.2877 55.1534C66.2872 55.355 66.2868 55.5565 66.2864 55.7581C66.2853 56.2518 66.2838 56.7456 66.2818 57.2394C66.4984 57.2084 66.7149 57.1775 66.938 57.1456C66.9637 57.0679 66.9637 57.0679 66.9899 56.9887C67.1092 56.629 67.2298 56.27 67.3566 55.913C67.8613 54.4754 68.2599 52.9659 68.2696 51.4338C68.2706 51.3297 68.2706 51.3297 68.2716 51.2234C68.2999 49.1515 68.2999 49.1515 67.9693 47.1144C67.9512 47.0396 67.933 46.9648 67.9144 46.8878C66.8678 42.629 64.2674 39.1131 60.5294 36.8293C56.9195 34.7014 52.5388 34.1273 48.4898 35.1635C46.1857 35.795 43.9819 36.9019 42.188 38.4894C42.1421 38.5296 42.0963 38.5699 42.049 38.6113C39.4752 40.8766 37.8158 43.7869 37.0318 47.1144C37.0018 47.2338 36.9718 47.3532 36.941 47.4762C36.1465 51.0356 36.9245 54.9214 38.6255 58.0831C38.8428 58.4987 38.9965 58.8055 39.0123 59.2784C38.8807 59.6586 38.7027 59.8773 38.3443 60.0519C37.983 60.1323 37.6918 60.1104 37.368 59.916C37.0322 59.5848 36.841 59.2156 36.6275 58.798C36.5828 58.7111 36.538 58.6242 36.492 58.5347C35.2328 56.0257 34.6461 53.345 34.6529 50.548C34.653 50.4654 34.653 50.3828 34.6531 50.2977C34.6691 45.4139 36.6597 41.0803 40.0435 37.6105C40.5144 37.1517 41.0111 36.7341 41.5318 36.3331C41.5801 36.2959 41.6284 36.2587 41.6781 36.2204C44.1228 34.3568 46.9481 33.2517 49.9693 32.7706C50.1202 32.7459 50.1202 32.7459 50.2741 32.7207C50.662 32.6723 51.0404 32.6584 51.4308 32.6545C51.5452 32.6532 51.5452 32.6532 51.6618 32.6517C56.9846 32.6007 61.5508 34.2985 65.3794 38.0323C65.8382 38.5032 66.2558 39 66.6568 39.5206C66.694 39.5689 66.7312 39.6172 66.7695 39.667C68.8572 42.4055 70.2996 45.936 70.3354 49.4083C70.3363 49.4823 70.3372 49.5564 70.3382 49.6326C70.3639 52.2441 70.1592 54.7955 69.0635 57.2077C68.9864 57.4762 69.014 57.6299 69.0943 57.8956C69.2799 58.2321 69.2799 58.2321 69.563 58.4581C69.8867 58.4779 70.1844 58.4319 70.5005 58.3644C70.5177 58.3123 70.5349 58.2602 70.5526 58.2066C70.6703 57.8514 70.7893 57.497 70.9158 57.1449C71.1973 56.3506 71.423 55.5553 71.6021 54.7316C71.6207 54.6464 71.6393 54.5611 71.6585 54.4733C71.7138 54.2084 71.7646 53.9431 71.813 53.6769C71.8308 53.5801 71.8485 53.4833 71.8668 53.3836C72.0229 52.43 72.034 51.488 72.0298 50.5245C72.0296 50.4413 72.0294 50.3581 72.0292 50.2723C72.0245 49.0724 71.9892 47.913 71.7193 46.7394C71.7007 46.6531 71.682 46.5668 71.6628 46.478C71.1394 44.0777 70.2467 41.833 68.9056 39.7667C68.7745 39.551 68.7193 39.3994 68.7193 39.1456C68.8264 38.8186 68.932 38.568 69.1587 38.3077C69.4778 38.1611 69.7886 38.117 70.1255 38.2081C70.689 38.5771 70.9606 39.0796 71.2798 39.6613C71.3593 39.8045 71.3593 39.8045 71.4405 39.9507C73.2119 43.1994 74.1065 46.7299 74.0982 50.4249C74.0981 50.5541 74.0981 50.5541 74.098 50.6858C74.0902 53.5873 73.4644 56.2125 72.4693 58.9269C72.5431 59.0007 72.617 59.0746 72.693 59.1506C72.8685 59.326 73.0439 59.5015 73.2193 59.6769C73.2908 59.6459 73.3624 59.615 73.4361 59.5831C74.2881 59.3521 75.0593 59.4719 75.8443 59.8644C76.4764 60.2568 76.831 60.8558 77.063 61.5519C77.0731 61.8136 77.0778 62.0731 77.0781 62.3349C77.0786 62.4148 77.0791 62.4947 77.0796 62.577C77.0809 62.8419 77.0816 63.1067 77.0821 63.3716C77.0826 63.556 77.0832 63.7404 77.0837 63.9248C77.0847 64.312 77.0852 64.6992 77.0856 65.0864C77.0861 65.5808 77.0883 66.0752 77.091 66.5695C77.0928 66.9509 77.0932 67.3322 77.0934 67.7135C77.0937 67.8956 77.0944 68.0778 77.0956 68.2599C77.1089 70.3714 77.1089 70.3714 76.5416 71.2843C76.4937 71.3626 76.4458 71.4409 76.3965 71.5216C76.2193 71.7706 76.2193 71.7706 75.9776 72.0314C75.261 72.8106 75.1827 73.4332 75.2031 74.4788C75.206 75.1102 75.0481 75.6753 74.7076 76.2062C74.0291 76.8404 73.4204 76.9965 72.5065 76.989C72.3481 76.9905 72.3481 76.9905 72.1865 76.992C71.8394 76.9945 71.4925 76.9936 71.1454 76.9924C70.903 76.993 70.6605 76.9937 70.418 76.9945C69.9106 76.9956 69.4032 76.995 68.8958 76.9931C68.3113 76.991 67.7269 76.9927 67.1424 76.9962C66.5775 76.9995 66.0127 76.9997 65.4478 76.9985C65.2086 76.9984 64.9694 76.9991 64.7302 77.0007C64.3952 77.0026 64.0605 77.0008 63.7255 76.9982C63.6276 76.9995 63.5297 77.0007 63.4289 77.0021C62.724 76.991 62.247 76.7947 61.688 76.3644C61.4767 76.1241 61.4767 76.1241 61.3541 75.8956C61.3114 75.8202 61.2687 75.7448 61.2248 75.6671C61.0132 75.1549 61.023 74.6414 61.014 74.0956C60.995 73.1132 60.893 72.2546 60.5685 71.3268C60.4693 71.0206 60.4693 71.0206 60.4693 70.6456C60.42 70.6631 60.3706 70.6805 60.3198 70.6984C59.0725 71.1355 57.8279 71.5094 56.5318 71.7706C56.458 71.7861 56.3842 71.8016 56.3082 71.8176C53.6606 72.3496 50.6306 72.245 48.0005 71.6769C47.8607 71.6467 47.8607 71.6467 47.7181 71.616C44.0626 70.7981 40.6584 69.0446 37.9323 66.4694C37.7249 66.274 37.5134 66.0887 37.2955 65.9054C33.9189 62.9587 31.8213 58.3029 31.1255 53.9581C31.109 53.8597 31.0924 53.7613 31.0754 53.66C30.9172 52.6243 30.9007 51.5997 30.9029 50.5538C30.9029 50.4629 30.903 50.3719 30.903 50.2782C30.9068 48.8169 30.9899 47.4196 31.313 45.9894C31.3331 45.8979 31.3532 45.8064 31.3739 45.7122C32.2015 42.0355 33.9385 38.6748 36.5173 35.9277C36.7127 35.7175 36.8997 35.5037 37.0845 35.2843C40.0215 31.9189 44.6931 29.7873 49.0318 29.1144C49.1383 29.0978 49.2448 29.0813 49.3545 29.0642C50.3827 28.9195 51.3987 28.8894 52.4361 28.8917ZM62.5318 53.1144C62.418 53.3419 62.4259 53.4869 62.4251 53.7412C62.4243 53.8802 62.4243 53.8802 62.4236 54.022C62.4235 54.1241 62.4234 54.2261 62.4233 54.3312C62.4228 54.4384 62.4223 54.5456 62.4218 54.656C62.4208 54.8894 62.42 55.1227 62.4194 55.3561C62.4183 55.7253 62.4164 56.0944 62.4144 56.4635C62.4086 57.5133 62.4035 58.5631 62.4004 59.6129C62.3985 60.2544 62.3951 60.8959 62.391 61.5374C62.3896 61.7822 62.3888 62.027 62.3885 62.2718C62.3881 62.6141 62.3859 62.9564 62.3833 63.2986C62.3836 63.4001 62.3839 63.5016 62.3842 63.6061C62.3746 64.4657 62.3746 64.4657 62.063 64.8331C61.8748 64.9781 61.8748 64.9781 61.6763 65.0909C61.4329 65.2237 61.4329 65.2237 61.2193 65.3956C61.1235 66.2204 61.3356 66.9354 61.5851 67.7134C61.623 67.8363 61.6606 67.9593 61.698 68.0824C61.8552 68.5988 62.0155 69.1142 62.1787 69.6288C62.6926 71.2529 63.0364 72.7444 62.9948 74.4687C62.9909 74.6933 62.9909 74.6933 63.0943 74.9581C63.3517 75.0439 63.502 75.0636 63.7669 75.0638C63.8466 75.064 63.9262 75.0643 64.0083 75.0646C64.0954 75.0644 64.1825 75.0642 64.2722 75.064C64.3642 75.0642 64.4561 75.0643 64.5508 75.0645C64.8554 75.0649 65.1599 75.0646 65.4644 75.0643C65.6756 75.0644 65.8868 75.0645 66.0981 75.0646C66.541 75.0647 66.9839 75.0645 67.4268 75.0641C67.9952 75.0636 68.5636 75.0639 69.132 75.0644C69.5683 75.0648 70.0045 75.0647 70.4407 75.0644C70.6503 75.0644 70.86 75.0644 71.0696 75.0647C71.3623 75.0649 71.6549 75.0645 71.9476 75.064C72.0783 75.0643 72.0783 75.0643 72.2115 75.0646C72.2912 75.0643 72.3708 75.0641 72.4529 75.0638C72.5221 75.0637 72.5913 75.0637 72.6626 75.0637C72.8648 75.0583 72.8648 75.0583 73.1255 74.9581C73.2476 74.714 73.2177 74.5543 73.2028 74.2817C73.1585 72.7283 73.438 71.8847 74.4734 70.7327C75.3489 69.6922 75.2036 68.3323 75.2071 67.0491C75.2073 66.9827 75.2076 66.9162 75.2079 66.8478C75.2093 66.4975 75.2102 66.1473 75.2106 65.797C75.2111 65.4372 75.2133 65.0775 75.216 64.7177C75.2177 64.4387 75.2182 64.1597 75.2184 63.8807C75.2187 63.7481 75.2194 63.6154 75.2206 63.4828C75.2408 62.523 75.2408 62.523 74.9068 61.6456C74.663 61.4367 74.5287 61.4582 74.2037 61.464C73.871 61.5267 73.871 61.5267 73.6587 61.7452C73.5187 61.9891 73.4674 62.1345 73.4127 62.4015C73.3495 62.6896 73.3119 62.772 73.108 63.005C72.7747 63.1827 72.5612 63.1863 72.188 63.1456C71.9379 63.0645 71.8461 63.0136 71.7114 62.7878C71.6214 62.5734 71.5994 62.4218 71.5933 62.1906C71.5905 62.1173 71.5878 62.0441 71.5849 61.9686C71.5807 61.8158 71.5766 61.663 71.5724 61.5101C71.5697 61.4369 71.5669 61.3637 71.564 61.2882C71.5614 61.1887 71.5614 61.1887 71.5587 61.0872C71.527 60.8617 71.465 60.7134 71.3443 60.5206C70.9939 60.287 70.8218 60.2902 70.4068 60.3331C70.1155 60.482 69.9749 60.5965 69.871 60.911C69.8383 61.0576 69.8092 61.205 69.7842 61.353C69.7505 61.5519 69.7505 61.5519 69.6568 61.8331C69.2665 62.0124 68.8516 62.0728 68.4439 61.9269C68.0878 61.6943 68.0682 61.584 67.9693 61.1769C67.9413 60.8396 67.9394 60.5017 67.9409 60.1634C67.9301 59.7736 67.9056 59.6219 67.658 59.3026C67.4134 59.0887 67.4134 59.0887 67.0728 59.0616C66.7054 59.1218 66.5981 59.1983 66.3755 59.4894C66.2512 59.7382 66.2667 59.9336 66.262 60.2119C66.258 60.3728 66.258 60.3728 66.254 60.5369C66.2491 60.7632 66.2449 60.9895 66.2415 61.2159C66.2386 61.3235 66.2357 61.4311 66.2327 61.542C66.2309 61.6405 66.229 61.7389 66.2271 61.8404C66.1828 62.1513 66.0912 62.331 65.9068 62.5831C65.6937 62.6897 65.5521 62.7017 65.315 62.712C65.2082 62.7189 65.2082 62.7189 65.0993 62.726C64.7504 62.6494 64.6256 62.4868 64.4068 62.2081C64.3398 61.9205 64.3458 61.6405 64.3509 61.3463C64.3503 61.2172 64.3503 61.2172 64.3498 61.0856C64.3493 60.8992 64.3498 60.7128 64.3513 60.5264C64.3537 60.2312 64.3533 59.9361 64.3521 59.6409C64.3501 59.0142 64.352 58.3876 64.3541 57.7609C64.356 57.0349 64.3565 56.309 64.354 55.583C64.3537 55.2925 64.3557 55.002 64.3578 54.7115C64.3576 54.5329 64.3572 54.3544 64.3568 54.1759C64.358 54.0953 64.3592 54.0148 64.3604 53.9319C64.3561 53.415 64.2742 53.1372 63.938 52.7394C63.346 52.4433 62.9138 52.6282 62.5318 53.1144Z" fill="white"/>
<path d="M53.9613 42.0529C54.603 42.5175 55.1511 43.0776 55.71 43.6357C55.8194 43.7445 55.9288 43.8533 56.0383 43.9621C56.2665 44.1892 56.4943 44.4167 56.7219 44.6443C57.0124 44.9349 57.3041 45.2241 57.5963 45.513C57.8223 45.7369 58.0474 45.9617 58.2723 46.1867C58.3795 46.2937 58.487 46.4003 58.5948 46.5067C59.4981 47.3988 60.0271 48.1172 60.0372 49.4326C60.0262 50.0301 59.8699 50.4618 59.5317 50.9577C59.4757 51.0447 59.4196 51.1318 59.3618 51.2214C58.7633 51.82 58.0567 52.1083 57.2114 52.1179C56.5483 52.1095 55.8921 52.0056 55.4067 51.5202C55.4064 51.5888 55.4061 51.6574 55.4057 51.7281C55.4021 52.3777 55.3968 53.0272 55.3895 53.6767C55.3858 54.0106 55.3828 54.3444 55.3813 54.6783C55.3796 55.063 55.3749 55.4477 55.3701 55.8324C55.37 55.9511 55.3699 56.0697 55.3698 56.192C55.3539 57.1591 55.1369 57.8563 54.4751 58.5709C53.868 59.0987 53.134 59.3363 52.3353 59.3213C51.4961 59.2422 50.8338 58.8984 50.2732 58.2743C49.8499 57.7395 49.6668 57.254 49.6581 56.565C49.6562 56.4524 49.6544 56.3399 49.6525 56.2239C49.6514 56.1037 49.6503 55.9836 49.6492 55.8598C49.6474 55.7345 49.6456 55.6092 49.6437 55.4839C49.6389 55.1556 49.6352 54.8274 49.6317 54.4991C49.6279 54.1635 49.6231 53.8279 49.6184 53.4923C49.6094 52.8349 49.6014 52.1776 49.5942 51.5202C49.4636 51.6095 49.4636 51.6095 49.3303 51.7005C48.6437 52.1483 47.9552 52.154 47.1567 52.0827C46.341 51.881 45.7866 51.4747 45.3462 50.7585C44.9117 50.0082 44.864 49.1041 45.0613 48.2602C45.456 47.2988 46.3709 46.5685 47.0883 45.8443C47.1382 45.7939 47.1882 45.7434 47.2396 45.6915C47.5036 45.425 47.7679 45.1589 48.0325 44.8929C48.2496 44.6746 48.466 44.4555 48.6819 44.2359C48.9448 43.9683 49.2088 43.7019 49.4737 43.4364C49.5736 43.3359 49.6731 43.235 49.7721 43.1337C50.874 42.008 52.4214 41.0646 53.9613 42.0529ZM51.5055 44.242C51.4238 44.3239 51.342 44.4058 51.2578 44.4901C51.2122 44.5356 51.1665 44.5811 51.1195 44.6279C50.9704 44.7767 50.8219 44.9262 50.6735 45.0757C50.5694 45.1798 50.4654 45.2839 50.3613 45.388C50.1441 45.6053 49.9272 45.823 49.7105 46.0409C49.4325 46.3205 49.1539 46.5995 48.8751 46.8782C48.6606 47.0928 48.4463 47.3076 48.2321 47.5224C48.1294 47.6254 48.0266 47.7284 47.9238 47.8313C47.7806 47.9746 47.6378 48.1183 47.495 48.2621C47.4136 48.3438 47.3323 48.4256 47.2484 48.5098C46.9665 48.8108 46.9255 49.0383 46.9308 49.4537C46.9601 49.6818 46.9601 49.6818 47.2153 49.9265C47.6319 50.1737 47.6319 50.1737 48.0942 50.114C48.3741 49.9255 48.6058 49.6954 48.8442 49.4577C48.9085 49.3937 48.9085 49.3937 48.974 49.3285C49.2002 49.1026 49.4253 48.8759 49.6488 48.6473C49.9747 48.3298 50.1699 48.2106 50.6196 48.2038C50.6998 48.2012 50.7799 48.1985 50.8624 48.1958C51.1816 48.2553 51.2731 48.3559 51.4692 48.614C51.5056 48.8752 51.5193 49.0995 51.516 49.3604C51.5165 49.4353 51.517 49.5102 51.5175 49.5874C51.5184 49.7498 51.5184 49.9122 51.5177 50.0746C51.5165 50.332 51.5175 50.5893 51.5192 50.8467C51.5217 51.3007 51.5222 51.7546 51.5221 52.2086C51.5219 52.9342 51.5232 53.6597 51.5273 54.3853C51.5282 54.6382 51.5274 54.8912 51.5265 55.1441C51.527 55.3002 51.5277 55.4563 51.5284 55.6124C51.5277 55.6822 51.527 55.752 51.5262 55.8239C51.5309 56.3076 51.6239 56.6298 51.8442 57.0515C52.1102 57.2815 52.2428 57.3327 52.5942 57.3327C52.9487 57.2146 53.1098 57.0583 53.3442 56.7702C53.48 56.4097 53.4516 56.0242 53.4513 55.6443C53.4518 55.5313 53.4518 55.5313 53.4523 55.416C53.453 55.2527 53.4535 55.0893 53.4538 54.926C53.4545 54.6675 53.456 54.4091 53.4577 54.1506C53.4626 53.4158 53.4671 52.681 53.4686 51.9462C53.4695 51.4965 53.4722 51.0469 53.4762 50.5973C53.4773 50.4259 53.4778 50.2546 53.4776 50.0832C53.4774 49.8437 53.4795 49.6044 53.4821 49.3649C53.4811 49.2587 53.4811 49.2587 53.4802 49.1503C53.486 48.8232 53.5068 48.6463 53.7093 48.3837C54.0087 48.1642 54.2263 48.158 54.5901 48.1734C55.1043 48.3061 55.4262 48.7085 55.7817 49.0827C55.9534 49.2548 56.1252 49.4267 56.2974 49.5984C56.3737 49.6767 56.4501 49.755 56.5288 49.8357C56.7555 50.0554 56.852 50.1065 57.1646 50.1491C57.5888 50.1002 57.7524 49.9645 58.0317 49.6452C58.101 49.3201 58.1246 49.1981 58.0317 48.8952C57.5787 48.2437 56.9404 47.6948 56.3812 47.1352C56.2864 47.0401 56.1915 46.9449 56.0967 46.8497C55.8993 46.6518 55.7018 46.4541 55.5041 46.2565C55.2511 46.0035 54.9988 45.7499 54.7466 45.4961C54.5516 45.3 54.3561 45.1044 54.1606 44.9089C54.0673 44.8155 53.9742 44.722 53.8812 44.6283C53.7516 44.4977 53.6213 44.3679 53.491 44.238C53.4172 44.1641 53.3434 44.0901 53.2674 44.014C52.5964 43.419 52.1179 43.6876 51.5055 44.242Z" fill="white"/>
<path d="M67.6704 35.0436C67.894 35.2225 67.9797 35.3102 68.063 35.5826C68.1139 36.296 68.1139 36.296 67.8755 36.6139C67.607 36.8287 67.4262 36.8923 67.0845 36.942C66.6411 36.8798 66.5014 36.7398 66.188 36.4264C66.0443 36.1391 66.0727 35.8998 66.0942 35.5826C66.2118 35.318 66.3083 35.1642 66.5395 34.9908C66.9444 34.8672 67.2833 34.8715 67.6704 35.0436Z" fill="white"/>
<path d="M40.9693 61.4585C41.2327 61.6266 41.392 61.7415 41.5318 62.021C41.5726 62.8657 41.5726 62.8657 41.3443 63.146C41.0238 63.3621 40.8362 63.4282 40.4478 63.4214C40.0824 63.3217 39.9061 63.2445 39.6568 62.9585C39.5216 62.5671 39.5374 62.2814 39.6743 61.8921C39.9996 61.421 40.4135 61.3658 40.9693 61.4585Z" fill="white"/>
</g>
<defs>
<clipPath id="clip0_530_5990">
<rect width="48" height="48" fill="white" transform="translate(30.0005 28.9268)"/>
</clipPath>
</defs>
</svg>
