<svg width="1440" height="655" viewBox="0 0 1440 655" fill="none" xmlns="http://www.w3.org/2000/svg">
<path d="M1364.28 885.202H1363.77C1343.68 855.505 1323.99 825.096 1304.35 794.793C1239.56 694.791 1175.49 595.879 1100.43 527.024C927.402 368.271 695.95 369.388 262.795 885.202H262.245C695.792 368.842 927.469 367.752 1100.7 526.681C1175.78 595.571 1239.88 694.501 1304.68 794.538C1324.38 824.929 1344.14 855.426 1364.28 885.21M1381.34 885.21H1380.82C1355.19 850.475 1330.07 814.421 1304.99 778.402C1235.36 678.426 1165.95 578.775 1086.39 508.803C899.816 344.721 657.291 343.991 224.866 885.21H224.331C657.117 343.437 899.868 344.194 1086.64 508.452C1166.24 578.45 1235.66 678.127 1305.3 778.12C1330.46 814.236 1355.64 850.396 1381.34 885.21ZM1401.44 885.21H1400.9C1369.34 845.894 1338.36 804.317 1307.31 762.661C1232.44 662.184 1157.15 561.161 1072.34 489.879C871.627 321.207 617.433 319.237 188.677 885.21H188.15C617.238 318.674 871.657 320.67 1072.57 489.51C1157.42 560.818 1232.72 661.858 1307.61 762.362C1338.74 804.123 1369.79 845.806 1401.44 885.202V885.21ZM1424.6 885.21H1424.04C1386.27 841.84 1349.03 794.934 1311.53 747.694C1230.84 646.056 1148.92 542.862 1057.9 470.032C842.565 297.728 576.168 295.406 154.282 885.21H153.769C575.964 294.843 842.587 297.191 1058.13 469.663C1149.19 542.527 1231.12 645.731 1311.83 747.395C1349.42 794.74 1386.74 841.752 1424.6 885.21ZM1440.01 873.647V874.271C1399.36 830.39 1358.88 782.324 1317.9 733.659C1230.66 630.078 1141.1 523.735 1042.66 449.033C812.357 274.257 533.373 272.824 121.784 885.21H121.287C533.147 272.27 812.358 273.721 1042.88 448.654C1141.35 523.383 1230.93 629.752 1318.18 733.343C1359.07 781.902 1399.46 829.845 1440 873.647H1440.01ZM1440.01 844.548V845.164C1402.64 806.067 1364.99 763.751 1326.7 720.724C1232 614.311 1133.46 503.571 1026.09 426.652C780.621 250.804 488.913 251.833 91.2228 885.202H90.7332C488.687 251.288 780.621 250.277 1026.29 426.274C1133.7 503.219 1232.25 613.968 1326.97 720.398C1365.17 763.312 1402.73 805.53 1440 844.539L1440.01 844.548ZM1440.01 815.37V815.977C1406.7 782.157 1372.84 746.006 1338.32 709.133C1235.05 598.869 1125.81 482.22 1007.62 402.725C747.001 227.43 442.766 232.795 62.7179 885.202H62.2434C442.525 232.258 746.994 226.903 1007.82 402.347C1126.05 481.877 1235.3 598.535 1338.58 708.817C1373.02 745.583 1406.78 781.638 1440 815.379L1440.01 815.37ZM1440.01 786.123V786.721C1411.69 758.792 1382.76 729.315 1353.22 699.223C1240.12 583.99 1117.98 459.559 986.619 377.117C711.099 204.197 394.946 216.06 36.36 885.202H35.8929C394.698 215.532 711.076 203.679 986.807 376.722C1118.21 459.189 1240.37 583.647 1353.48 698.889C1382.94 728.893 1411.77 758.273 1440 786.131L1440.01 786.123ZM1440.01 756.813V757.402C1417.83 736.13 1395.16 713.996 1372.02 691.405C1247.72 570.043 1109.85 435.429 962.438 349.751C672.522 181.263 345.643 202.087 12.3071 885.202H11.8476C345.371 201.568 672.485 180.736 962.611 349.355C1110.07 435.059 1247.96 569.691 1372.28 691.071C1395.33 713.574 1417.91 735.62 1440 756.822L1440.01 756.813ZM1440.01 727.442V728.022C1425.45 714.418 1410.62 700.48 1395.55 686.305C1258.71 557.644 1101.46 409.777 934.422 320.679C633.012 159.93 299.721 190.629 -3 870.815V869.804C299.767 190.083 633.11 159.481 934.581 320.283C1101.66 409.408 1258.94 557.292 1395.8 685.971C1410.78 700.058 1425.52 713.917 1440 727.442H1440.01ZM1440.01 698.018V698.599C1435.02 694.061 1430 689.488 1424.94 684.88C1274.54 547.892 1093.06 382.596 901.94 290.077C595.731 141.841 264.731 180.542 -3 821.711V820.656C264.798 179.997 595.829 141.401 902.091 289.664C1093.26 382.209 1274.76 547.522 1425.18 684.529C1430.15 689.057 1435.1 693.551 1440 698.018H1440.01ZM1440.01 668.542V669.113C1279.11 526.277 1075.71 349.707 864.433 258.173C556.281 124.676 231.352 172.153 -3 769.019V767.92C231.442 171.625 556.393 124.236 864.569 257.76C1075.79 349.276 1279.12 525.731 1440 668.55L1440.01 668.542ZM1440.01 639.021V639.593C1270.3 492.535 1048.05 311.683 821.435 225.39C514.894 108.671 200.369 165.065 -3 712.106V710.945C200.482 164.52 515.015 108.24 821.555 224.959C1048.13 311.235 1270.31 491.981 1440.01 639.012V639.021ZM1440.01 609.456V610.019C1243.56 443.73 970.114 236.84 704.786 172.927C427.624 106.165 159.351 195.518 -3 650.189V648.993C159.479 194.955 427.73 105.734 704.862 172.487C970.159 236.391 1243.54 443.176 1440 609.456H1440.01ZM1440.01 579.848V580.402C1239.8 414.728 953.18 211.452 680.101 149.94C404.159 87.786 142.071 170.429 -3 582.961V581.756C142.221 169.867 404.279 87.3551 680.176 149.509C953.217 211.021 1239.78 414.192 1440.01 579.857V579.848ZM1440.01 550.204V550.758C1236.58 386.087 937.684 187.023 657.426 127.384C548.16 104.134 441.726 102.076 344.904 131.526C248.09 160.967 160.873 221.908 90.0176 324.654C54.6501 375.93 23.3731 437.627 -3 511.011V509.815C23.3053 436.844 54.4844 375.447 89.7012 324.373C160.609 221.547 247.902 160.563 344.799 131.095C441.688 101.627 548.175 103.685 657.502 126.944C937.722 186.575 1236.56 385.542 1440.01 550.204ZM1440.01 520.517V521.062C1223.06 349.162 890.844 142.905 591.799 97.1601C489.229 81.472 390.562 84.6642 301.793 114.616C213.039 144.558 134.184 201.26 71.2152 292.566C43.1397 333.289 18.228 380.881 -3 436.044V434.91C18.1602 380.116 42.9664 332.806 70.8988 292.302C133.92 200.917 212.851 144.171 301.68 114.194C390.502 84.2245 489.222 81.0236 591.851 96.7204C890.859 142.457 1223.02 348.617 1440.01 520.517ZM1440.01 490.794V491.339C1282.36 368.983 1060.49 230.86 834.844 146.132C666.232 82.8175 495.519 49.3134 347.91 74.481C200.323 99.6399 75.8404 183.444 -0.333316 354.746C-1.22974 356.76 -2.11864 358.791 -3 360.831V359.811C-2.23163 358.053 -1.46327 356.294 -0.687367 354.544C75.5542 183.092 200.143 99.2178 347.842 74.0326C495.519 48.8561 666.293 82.3778 834.957 145.71C1060.54 230.42 1282.33 368.473 1440 490.794H1440.01ZM1440.01 461.045V461.581C1271.49 333.412 1026.02 189.793 781.148 108.847C614.428 53.7366 448.009 27.6896 306.381 55.3723C175.758 80.918 66.2283 152.147 -3 288.433V287.527C66.3112 151.558 175.788 80.452 306.305 54.9502C448.001 27.2587 614.488 53.3057 781.254 108.434C1026.05 189.354 1271.46 332.911 1440 461.053L1440.01 461.045ZM1440.01 431.269V431.806C1260.3 297.789 989.195 148.946 724.899 72.9861C560.921 25.8605 399.579 6.78689 264.339 36.712C153.295 61.308 59.8554 118.933 -3 221.187V220.395C59.9157 118.371 153.31 60.842 264.264 36.2899C399.564 6.3472 560.966 25.4208 724.997 72.564C989.225 148.507 1260.26 297.279 1440.01 431.278V431.269ZM1440.01 401.467V402.004C1248.99 262.245 950.543 108.706 667.099 38.8576C506.578 -0.705373 350.871 -13.4211 222.244 18.421C130.816 41.0473 53.0757 86.1943 -3 160.194V159.499C53.1134 85.6579 130.809 40.59 222.154 17.9813C350.84 -13.8696 506.6 -1.15385 667.174 38.4179C950.558 108.258 1248.93 261.735 1440 401.476L1440.01 401.467ZM301.861 885.202C733.442 394.634 954.664 391.372 1115.01 544.427C1186.17 612.35 1245.33 711.033 1305.58 811.536C1320.32 836.124 1335.13 860.825 1350.2 885.21H1349.71C1334.7 860.904 1319.94 836.291 1305.25 811.791C1245.02 711.314 1185.87 612.657 1114.76 544.779C954.596 391.908 733.592 395.197 302.426 885.219H301.868L301.861 885.202Z" fill="url(#paint0_radial_197_10341)"/>
<defs>
<radialGradient id="paint0_radial_197_10341" cx="0" cy="0" r="1" gradientUnits="userSpaceOnUse" gradientTransform="translate(718.504 442.61) rotate(90) scale(442.61 721.504)">
<stop offset="0.035" stop-color="#EEA20E" stop-opacity="0"/>
<stop offset="0.495" stop-color="#EEA20E"/>
<stop offset="0.725" stop-color="#EEA20E"/>
<stop offset="1" stop-color="#885D08" stop-opacity="0"/>
</radialGradient>
</defs>
</svg>
