<svg width="107" height="108" viewBox="0 0 107 108" fill="none" xmlns="http://www.w3.org/2000/svg">
<circle cx="53.5" cy="54.0005" r="53.0737" fill="#1B2351"/>
<path d="M64.8293 42.7513C65.2909 43.0861 65.5623 43.416 65.6679 43.9825C65.6799 44.0878 65.6799 44.0878 65.6921 44.1953C65.7329 44.3903 65.7329 44.3903 65.9195 44.4751C65.9873 44.504 66.0551 44.5328 66.125 44.5626C66.9274 45.1529 67.3786 45.8527 67.625 46.8126C67.6653 47.1049 67.6743 47.3908 67.6719 47.6856C67.6713 47.7632 67.6708 47.8408 67.6702 47.9207C67.6402 48.9595 67.2258 49.8197 66.5 50.5626C66.3871 50.6421 66.2719 50.7186 66.1543 50.7911C65.784 51.0289 65.7058 51.3313 65.5636 51.7341C65.39 52.1638 65.1328 52.4935 64.7297 52.7276C64.126 52.9833 63.5725 52.9937 62.9668 52.754C62.5611 52.5564 62.3435 52.3435 62.0937 51.9688C62.0628 51.8451 62.0319 51.7213 62 51.5938C59.5559 51.5938 57.1119 51.5938 54.5937 51.5938C54.5628 51.7176 54.5319 51.8413 54.5 51.9688C54.2193 52.4205 53.8913 52.7105 53.3812 52.8653C52.703 53.0089 52.179 52.8948 51.5937 52.5313C51.2804 52.253 51.1345 52.0067 51.0312 51.5938C49.2678 51.5938 47.5044 51.5938 45.6875 51.5938C45.6256 51.7485 45.5637 51.9032 45.5 52.0626C45.0277 52.5987 44.59 52.8754 43.8828 52.9298C43.3574 52.8948 42.9459 52.7692 42.5469 52.42C42.5005 52.3639 42.454 52.3079 42.4062 52.2501C42.0441 52.3329 41.8837 52.4767 41.6855 52.7774C41.3175 53.4174 41.156 54.1135 41.3457 54.841C41.5403 55.4354 41.7823 55.835 42.2187 56.2814C42.2775 56.2418 42.3362 56.2023 42.3967 56.1616C42.4733 56.1102 42.5499 56.0589 42.6289 56.006C42.705 55.9548 42.7812 55.9037 42.8596 55.8511C43.3598 55.5251 43.886 55.5757 44.4687 55.6251C44.9766 55.7802 45.2957 56.1418 45.5937 56.5626C45.6247 56.6863 45.6556 56.8101 45.6875 56.9376C47.4509 56.9376 49.2144 56.9376 51.0312 56.9376C51.0622 56.7829 51.0931 56.6282 51.125 56.4689C51.5151 56.026 51.891 55.6575 52.4972 55.6028C53.115 55.5877 53.6345 55.5917 54.125 56.0001C54.1934 56.1426 54.2596 56.2862 54.3241 56.4306C54.535 56.7537 54.6392 56.8325 55.0203 56.922C55.4604 56.962 55.9006 56.9535 56.342 56.9468C56.5052 56.9473 56.6683 56.9482 56.8315 56.9494C57.2597 56.9517 57.6877 56.949 58.1159 56.9452C58.5533 56.9423 58.9907 56.9441 59.4281 56.9455C60.2854 56.9475 61.1427 56.9442 62 56.9376C62.0165 56.8292 62.0165 56.8292 62.0333 56.7186C62.1443 56.26 62.5564 55.9729 62.9375 55.7189C63.4933 55.5336 64.1441 55.5069 64.692 55.7276C65.2878 56.1004 65.5385 56.5141 65.7734 57.172C65.9622 57.5495 66.1746 57.7228 66.4945 57.9875C67.1994 58.6041 67.5963 59.4094 67.6609 60.3426C67.7032 61.4352 67.5529 62.3529 66.8541 63.2295C66.6668 63.4283 66.4648 63.5961 66.2539 63.7696C65.8623 64.1022 65.7096 64.4016 65.5449 64.8818C65.3813 65.3373 65.075 65.6428 64.6492 65.8695C64.083 66.0517 63.4477 66.0153 62.8906 65.8263C62.5253 65.5614 62.2501 65.2815 62 64.9064C62 64.8135 62 64.7207 62 64.6251C61.9389 64.6254 61.8778 64.6258 61.8148 64.6261C60.329 64.6344 58.8432 64.6406 57.3574 64.6445C56.6389 64.6465 55.9204 64.6491 55.2018 64.6534C54.5757 64.6571 53.9495 64.6595 53.3234 64.6604C52.9917 64.6609 52.6601 64.662 52.3285 64.6648C51.9585 64.6678 51.5886 64.6678 51.2186 64.6677C51.1083 64.669 50.998 64.6704 50.8843 64.6718C50.7335 64.671 50.7335 64.671 50.5796 64.6702C50.4482 64.6707 50.4482 64.6707 50.3143 64.6712C50.0937 64.6251 50.0937 64.6251 49.9227 64.4527C49.8125 64.2501 49.8125 64.2501 49.8125 63.963C49.9062 63.6876 49.9062 63.6876 50.1154 63.5319C50.3956 63.3964 50.5638 63.3716 50.8727 63.3725C50.9711 63.3721 51.0696 63.3718 51.171 63.3714C51.2781 63.3724 51.3851 63.3734 51.4953 63.3744C51.6088 63.3744 51.7222 63.3743 51.8391 63.3743C52.1494 63.3745 52.4597 63.3759 52.7699 63.3778C53.0945 63.3796 53.4191 63.3798 53.7436 63.3801C54.3579 63.381 54.9721 63.3833 55.5863 63.3861C56.2857 63.3892 56.9852 63.3908 57.6846 63.3922C59.1231 63.3951 60.5615 63.4001 62 63.4064C62.0264 63.3341 62.0529 63.2618 62.0802 63.1874C62.2804 62.7213 62.6684 62.3951 63.125 62.1876C63.7363 62.0324 64.2465 62.1004 64.8125 62.3751C64.9687 62.5001 65.125 62.6251 65.2812 62.7501C65.4704 62.7528 65.4704 62.7528 65.6562 62.6564C65.8209 62.451 65.8209 62.451 65.9551 62.1993C66.0028 62.1164 66.0505 62.0335 66.0997 61.9481C66.4001 61.3695 66.3737 60.7624 66.3125 60.1251C66.1451 59.6104 65.8934 59.1586 65.4687 58.8126C65.2308 58.9268 65.0175 59.0494 64.7949 59.1935C64.338 59.4526 63.8855 59.5268 63.3689 59.4242C62.8274 59.2605 62.4387 59.0406 62.1113 58.5665C62 58.3439 62 58.3439 62 58.1564C59.5559 58.1564 57.1119 58.1564 54.5937 58.1564C54.5009 58.4348 54.5009 58.4348 54.4062 58.7189C53.9572 59.1898 53.4413 59.4361 52.7879 59.4846C52.1936 59.4566 51.7573 59.1957 51.3125 58.8126C51.0312 58.4376 51.0312 58.4376 51.0312 58.1564C50.3409 58.1556 49.6507 58.1578 48.9604 58.1639C48.6399 58.1666 48.3194 58.1683 47.9989 58.1676C47.6302 58.1669 47.2617 58.1706 46.893 58.1747C46.7781 58.1738 46.6631 58.173 46.5447 58.1721C46.2482 58.1772 45.977 58.1862 45.6875 58.2501C45.4297 58.5035 45.4297 58.5035 45.3125 58.8126C44.8836 59.232 44.4979 59.4696 43.8843 59.4685C43.2703 59.4201 42.8181 59.2555 42.3887 58.8009C42.178 58.5447 42.0806 58.3292 41.9961 58.0099C41.8703 57.5711 41.6629 57.4269 41.293 57.1793C40.5698 56.6422 40.205 55.8204 39.9922 54.9689C39.8988 53.8483 40.0447 52.8085 40.7187 51.8751C41.0634 51.4886 41.4121 51.1316 41.8437 50.8438C41.9216 50.658 41.9216 50.658 41.9726 50.4454C42.1472 49.8877 42.4257 49.513 42.9336 49.2149C43.4647 48.9764 44.0351 48.9601 44.591 49.1278C45.0423 49.3304 45.315 49.5946 45.5937 50.0001C45.6247 50.1238 45.6556 50.2476 45.6875 50.3751C47.4509 50.3751 49.2144 50.3751 51.0312 50.3751C51.0622 50.2204 51.0931 50.0657 51.125 49.9063C51.285 49.7236 51.285 49.7236 51.4824 49.5606C51.5468 49.5061 51.6112 49.4516 51.6776 49.3955C52.2211 48.9952 52.7138 49.0058 53.375 49.0626C53.8228 49.2173 54.0946 49.4589 54.4062 49.8126C54.4608 49.9343 54.4608 49.9343 54.5165 50.0585C54.6737 50.3144 54.6737 50.3144 54.9989 50.3413C55.1295 50.3443 55.2601 50.3447 55.3907 50.3432C55.462 50.3442 55.5334 50.3451 55.6069 50.3461C55.8428 50.3488 56.0786 50.3483 56.3146 50.3476C56.4781 50.3489 56.6417 50.3503 56.8052 50.3519C57.2357 50.3557 57.6661 50.3566 58.0966 50.357C58.5359 50.3579 58.9751 50.3614 59.4143 50.3647C60.2762 50.3707 61.1381 50.3738 62 50.3751C62.0121 50.3015 62.0243 50.2279 62.0369 50.1521C62.1074 49.8474 62.2126 49.7576 62.4512 49.5606C62.5156 49.5061 62.58 49.4516 62.6463 49.3955C63.1894 48.9955 63.6829 49.005 64.3437 49.0626C64.7481 49.207 64.9959 49.4006 65.2812 49.7188C65.6191 49.5833 65.7607 49.4197 65.9551 49.1153C66.0028 49.042 66.0505 48.9686 66.0997 48.893C66.4312 48.3209 66.3703 47.6387 66.3125 47.0001C66.1481 46.4831 65.8942 46.0343 65.4687 45.6876C65.2304 45.7976 65.0254 45.9211 64.8066 46.0685C64.3222 46.388 63.8777 46.4034 63.3125 46.3438C62.7585 46.1761 62.4176 45.8774 62.0937 45.4063C62.0348 45.2013 62.0348 45.2013 62 45.0313C61.8427 45.0329 61.8427 45.0329 61.6822 45.0345C60.6945 45.044 59.7068 45.051 58.7191 45.0556C58.2113 45.0581 57.7035 45.0614 57.1957 45.0667C56.7057 45.0718 56.2158 45.0746 55.7258 45.0758C55.5388 45.0767 55.3518 45.0784 55.1647 45.0809C54.903 45.0843 54.6414 45.0848 54.3796 45.0846C54.2633 45.0871 54.2633 45.0871 54.1446 45.0897C53.7716 45.0863 53.6014 45.0675 53.3235 44.809C53.1875 44.5626 53.1875 44.5626 53.1933 44.3165C53.2879 44.077 53.3651 43.9743 53.5625 43.8126C53.838 43.7863 54.0935 43.7771 54.3689 43.7807C54.4513 43.7806 54.5336 43.7806 54.6185 43.7805C54.8909 43.7807 55.1632 43.7829 55.4357 43.7851C55.6244 43.7857 55.8132 43.7861 56.002 43.7863C56.499 43.7874 56.996 43.7902 57.4931 43.7933C58.0002 43.7962 58.5073 43.7974 59.0144 43.7989C60.0096 43.8019 61.0048 43.8067 62 43.8126C62.0279 43.7233 62.0559 43.634 62.0846 43.5421C62.256 43.0557 62.6283 42.8157 63.0605 42.5587C63.6856 42.4133 64.2664 42.4254 64.8293 42.7513ZM63.125 44.0938C63.0469 44.422 63.0469 44.422 63.125 44.7501C63.3116 44.9994 63.3116 44.9994 63.5937 45.1251C63.8961 45.1191 64.0767 45.0862 64.3262 44.9142C64.4804 44.6868 64.5312 44.5592 64.5312 44.2813C64.2649 43.8601 64.2649 43.8601 63.8281 43.6603C63.5045 43.7412 63.3484 43.8449 63.125 44.0938ZM43.1562 50.7501C43.1562 51.0568 43.1931 51.2301 43.3672 51.4825C43.5865 51.6314 43.7343 51.6749 44 51.6876C44.2678 51.6082 44.2678 51.6082 44.4687 51.4063C44.5863 51.0912 44.5863 51.0912 44.5625 50.7501C44.4323 50.4642 44.4323 50.4642 44.1875 50.2813C43.6835 50.1741 43.4491 50.3419 43.1562 50.7501ZM52.3086 50.4278C52.0963 50.7462 52.096 50.9377 52.1562 51.3126C52.3428 51.5619 52.3428 51.5619 52.625 51.6876C52.9303 51.6815 53.1093 51.6505 53.3574 51.4708C53.4931 51.2779 53.5489 51.1751 53.5625 50.9376C53.4129 50.5358 53.4129 50.5358 53.0937 50.2813C52.7616 50.2453 52.591 50.242 52.3086 50.4278ZM63.2773 50.4278C63.0651 50.7462 63.0647 50.9377 63.125 51.3126C63.3116 51.5619 63.3116 51.5619 63.5937 51.6876C63.8961 51.6816 64.0767 51.6487 64.3262 51.4767C64.475 51.2573 64.5186 51.1096 64.5312 50.8438C64.3671 50.4958 64.3671 50.4958 64.0625 50.2813C63.7304 50.2453 63.5597 50.242 63.2773 50.4278ZM43.2969 57.0431C43.1351 57.3044 43.1351 57.3044 43.1504 57.5997C43.2756 57.9459 43.3999 58.0689 43.7187 58.2501C44.0259 58.2501 44.1569 58.1786 44.4043 57.9981C44.5831 57.7871 44.5831 57.7871 44.6094 57.5001C44.5813 57.2147 44.5813 57.2147 44.416 56.9962C44.0105 56.7259 43.6692 56.7266 43.2969 57.0431ZM52.3086 56.9962C52.1117 57.284 52.1063 57.4387 52.1562 57.7814C52.2932 58.048 52.3811 58.1341 52.6601 58.2442C52.9894 58.2521 53.1233 58.1797 53.375 57.9689C53.5305 57.7055 53.5305 57.7055 53.5625 57.4064C53.4398 57.1303 53.3662 56.9801 53.0937 56.8439C52.7579 56.8074 52.591 56.803 52.3086 56.9962ZM63.2773 56.9962C63.0804 57.284 63.075 57.4387 63.125 57.7814C63.2619 58.048 63.3498 58.1341 63.6289 58.2442C63.9582 58.2521 64.092 58.1797 64.3437 57.9689C64.4992 57.7055 64.4992 57.7055 64.5312 57.4064C64.4085 57.1303 64.3349 56.9801 64.0625 56.8439C63.7267 56.8074 63.5597 56.803 63.2773 56.9962ZM63.4238 63.4298C63.211 63.5765 63.211 63.5765 63.125 63.7814C63.0885 64.1171 63.0841 64.2841 63.2773 64.5665C63.5651 64.7634 63.7199 64.7688 64.0625 64.7189C64.3291 64.5819 64.4152 64.494 64.5254 64.2149C64.5332 63.8856 64.4609 63.7518 64.25 63.5001C63.912 63.3238 63.7769 63.2728 63.4238 63.4298Z" fill="white"/>
<path d="M43.3906 61.3911C43.5169 61.3889 43.5169 61.3889 43.6458 61.3867C44.2733 61.3904 44.7926 61.513 45.2679 61.942C45.6462 62.3619 45.7812 62.7559 45.7812 63.313C45.8673 63.3075 45.9533 63.3021 46.042 63.2965C46.7738 63.2696 47.292 63.2714 47.8437 63.7817C48.2111 64.1426 48.469 64.5218 48.5244 65.0429C48.5248 65.1231 48.5253 65.2034 48.5257 65.2861C48.5266 65.3778 48.5275 65.4695 48.5284 65.5639C48.5283 65.662 48.5283 65.7601 48.5282 65.8611C48.5286 65.9629 48.529 66.0647 48.5294 66.1696C48.5299 66.3848 48.53 66.5999 48.5296 66.815C48.5293 67.1432 48.5315 67.4713 48.5338 67.7994C48.5341 68.0088 48.5341 68.2181 48.534 68.4275C48.5349 68.5252 48.5358 68.6228 48.5366 68.7235C48.5318 69.4837 48.4013 70.0679 47.8437 70.6255C47.1089 71.1365 46.2856 71.0567 45.4267 71.0536C45.2635 71.0541 45.1004 71.0547 44.9372 71.0553C44.5961 71.0563 44.2551 71.0559 43.914 71.0545C43.4784 71.0529 43.0428 71.0551 42.6072 71.0584C42.2705 71.0605 41.9338 71.0603 41.5971 71.0596C41.4366 71.0595 41.276 71.0601 41.1154 71.0615C39.4934 71.0734 39.4934 71.0734 38.9375 70.5317C38.2878 69.8308 38.2667 69.0935 38.2655 68.177C38.2652 68.0967 38.2648 68.0164 38.2645 67.9337C38.2641 67.7646 38.2638 67.5955 38.2638 67.4264C38.2636 67.1699 38.2619 66.9134 38.2602 66.6569C38.2599 66.4917 38.2597 66.3265 38.2596 66.1614C38.2589 66.0858 38.2583 66.0102 38.2576 65.9322C38.2606 65.1759 38.343 64.4709 38.8437 63.8755C39.3736 63.429 39.753 63.3007 40.455 63.3071C40.5743 63.308 40.6936 63.3088 40.8165 63.3097C40.9537 63.3113 40.9537 63.3113 41.0937 63.313C41.0957 63.233 41.0957 63.233 41.0977 63.1515C41.1328 62.584 41.2514 62.2179 41.6562 61.813C42.207 61.427 42.7335 61.3798 43.3906 61.3911ZM42.4524 62.8289C42.2859 63.0293 42.2859 63.0293 42.3125 63.313C43.055 63.313 43.7975 63.313 44.5625 63.313C44.4181 62.8627 44.4181 62.8627 44.1875 62.6567C43.9368 62.633 43.7 62.622 43.4492 62.6216C43.3816 62.6193 43.3141 62.617 43.2445 62.6146C42.9127 62.6128 42.7232 62.6306 42.4524 62.8289ZM39.5937 65.0005C39.4852 65.3261 39.4935 65.5968 39.5 65.938C39.6815 65.9481 39.8632 65.9554 40.0449 65.9614C40.146 65.9658 40.2472 65.9701 40.3514 65.9746C40.6355 65.9678 40.6355 65.9678 40.7813 65.752C40.8432 65.6584 40.8432 65.6584 40.9062 65.563C41.2343 65.5161 41.2343 65.5161 41.5625 65.563C41.6185 65.6561 41.6185 65.6561 41.6757 65.7511C41.8405 65.9755 41.8405 65.9755 42.1855 65.9806C42.3268 65.9805 42.4682 65.9784 42.6095 65.9746C42.684 65.9741 42.7585 65.9735 42.8353 65.973C43.0732 65.9709 43.3109 65.9662 43.5488 65.9614C43.7101 65.9595 43.8714 65.9578 44.0327 65.9563C44.4281 65.9522 44.8234 65.9457 45.2187 65.938C45.2497 65.8452 45.2806 65.7524 45.3125 65.6567C45.6138 65.5061 45.9159 65.5576 46.25 65.563C46.2964 65.7486 46.2964 65.7486 46.3437 65.938C46.6531 65.938 46.9625 65.938 47.2812 65.938C47.2909 65.793 47.3006 65.6479 47.3105 65.4985C47.316 65.417 47.3214 65.3354 47.327 65.2513C47.2605 64.8872 47.0962 64.7629 46.8125 64.5317C46.4973 64.4612 46.4973 64.4612 46.1471 64.4711C46.0493 64.4699 46.0493 64.4699 45.9496 64.4686C45.7352 64.4665 45.521 64.4679 45.3066 64.4695C45.1571 64.4692 45.0075 64.4687 44.858 64.4681C44.5449 64.4674 44.232 64.4684 43.9189 64.4706C43.5182 64.4733 43.1177 64.4718 42.717 64.469C42.4083 64.4673 42.0996 64.4678 41.7909 64.469C41.6432 64.4693 41.4955 64.4689 41.3478 64.4678C41.1411 64.4667 40.9346 64.4685 40.7279 64.4711C40.6104 64.4715 40.493 64.4718 40.3719 64.4722C39.9787 64.5479 39.8408 64.6918 39.5937 65.0005ZM39.5 67.1567C39.4949 67.4595 39.4912 67.7622 39.4882 68.0649C39.4867 68.1504 39.4851 68.2359 39.4835 68.324C39.4797 68.8383 39.4865 69.2447 39.8164 69.6645C40.1466 69.9186 40.5334 69.8882 40.9353 69.8906C41.115 69.8919 41.115 69.8919 41.2985 69.8933C41.4291 69.8938 41.5597 69.8942 41.6903 69.8945C41.8248 69.8951 41.9593 69.8956 42.0938 69.8961C42.3757 69.8971 42.6576 69.8977 42.9395 69.898C43.2995 69.8985 43.6594 69.9008 44.0194 69.9034C44.2973 69.9052 44.5752 69.9057 44.8531 69.9058C44.9857 69.9061 45.1184 69.9069 45.251 69.9081C46.2155 69.9329 46.2155 69.9329 47.0937 69.5942C47.3032 69.2801 47.3036 69.1801 47.2995 68.8138C47.2989 68.7175 47.2983 68.6211 47.2977 68.5218C47.2961 68.4213 47.2946 68.3208 47.2929 68.2173C47.2921 68.1157 47.2912 68.0141 47.2904 67.9095C47.2882 67.6585 47.2851 67.4077 47.2812 67.1567C47.1284 67.1504 46.9756 67.1459 46.8227 67.1421C46.7376 67.1394 46.6525 67.1367 46.5648 67.1338C46.4919 67.1414 46.4189 67.149 46.3437 67.1567C46.1759 67.3842 46.1759 67.3842 46.0625 67.6255C45.7812 67.6841 45.7812 67.6841 45.5 67.6255C45.4453 67.5091 45.4453 67.5091 45.3896 67.3903C45.2323 67.1176 45.2323 67.1176 44.877 67.1035C44.7356 67.1036 44.5942 67.1062 44.453 67.111C44.3785 67.1116 44.3039 67.1123 44.2272 67.113C43.9892 67.1156 43.7515 67.1215 43.5136 67.1274C43.3523 67.1298 43.191 67.1319 43.0297 67.1338C42.6343 67.139 42.239 67.1471 41.8437 67.1567C41.8194 67.2168 41.7951 67.2769 41.7701 67.3387C41.6562 67.5317 41.6562 67.5317 41.334 67.6196C41 67.6255 41 67.6255 40.8242 67.5024C40.7187 67.3442 40.7187 67.3442 40.625 67.1567C40.2537 67.1567 39.8825 67.1567 39.5 67.1567Z" fill="white"/>
<path d="M51.2187 35.0002C51.4004 35.1701 51.4004 35.1701 51.5 35.3752C51.5 35.468 51.5 35.5608 51.5 35.6565C51.559 35.656 51.6181 35.6556 51.679 35.6552C52.2933 35.6511 52.9077 35.6482 53.5221 35.6462C53.7515 35.6452 53.9808 35.6439 54.2102 35.6423C54.5397 35.64 54.8692 35.639 55.1987 35.6382C55.3013 35.6372 55.404 35.6362 55.5098 35.6352C55.6054 35.6352 55.7011 35.6352 55.7997 35.6352C55.8838 35.6348 55.968 35.6343 56.0546 35.6339C56.2994 35.6583 56.4496 35.7122 56.6562 35.844C56.7931 36.1178 56.7862 36.2891 56.75 36.594C56.5922 36.8206 56.4433 37.0088 56.2578 37.2092C56.1654 37.3128 56.0732 37.4164 55.9809 37.5201C55.8188 37.7015 55.6557 37.8817 55.4917 38.0614C55.3265 38.2634 55.3265 38.2634 55.3423 38.4701C55.4714 38.7229 55.6403 38.902 55.8359 39.1076C56.7223 40.0704 56.7223 40.0704 56.7968 40.5549C56.7435 40.8482 56.7028 40.9179 56.4687 41.094C56.2463 41.1278 56.2463 41.1278 55.9807 41.1259C55.8812 41.1259 55.7818 41.1259 55.6793 41.1258C55.5184 41.1237 55.5184 41.1237 55.3543 41.1214C55.2444 41.121 55.1346 41.1206 55.0213 41.1202C54.6698 41.1186 54.3183 41.1151 53.9668 41.1115C53.7287 41.1101 53.4906 41.1089 53.2525 41.1077C52.6683 41.1046 52.0841 41.0999 51.5 41.094C51.5019 41.1999 51.5039 41.3059 51.5059 41.415C51.5127 41.8085 51.517 42.2019 51.5206 42.5954C51.5225 42.7657 51.525 42.9359 51.5283 43.1061C51.5328 43.3509 51.5349 43.5957 51.5366 43.8405C51.5385 43.9165 51.5405 43.9925 51.5425 44.0708C51.5426 44.4097 51.5292 44.6149 51.3314 44.8957C51.125 45.0315 51.125 45.0315 50.7851 45.0197C50.4687 44.9377 50.4687 44.9377 50.2812 44.7502C50.2574 44.5801 50.2574 44.5801 50.2568 44.3701C50.2561 44.2906 50.2554 44.211 50.2548 44.1291C50.255 44.0417 50.2552 43.9543 50.2555 43.8642C50.255 43.7723 50.2545 43.6803 50.254 43.5856C50.2527 43.2806 50.2528 42.9755 50.253 42.6705C50.2527 42.4592 50.2522 42.2478 50.2518 42.0365C50.2511 41.593 50.2511 41.1495 50.2516 40.706C50.2522 40.1369 50.2506 39.5677 50.2484 38.9986C50.247 38.5619 50.2469 38.1253 50.2472 37.6887C50.2472 37.4788 50.2467 37.2689 50.2457 37.059C50.2446 36.7659 50.2452 36.4728 50.2463 36.1796C50.2456 36.0924 50.2449 36.0052 50.2441 35.9153C50.2448 35.8355 50.2455 35.7557 50.2461 35.6735C50.2461 35.6042 50.2461 35.5348 50.2461 35.4634C50.3474 34.9386 50.7604 34.9429 51.2187 35.0002ZM51.5 36.8752C51.5 37.8652 51.5 38.8552 51.5 39.8752C52.5828 39.8752 53.6656 39.8752 54.7812 39.8752C54.4046 39.3642 54.4046 39.3642 53.9902 38.885C53.8437 38.6565 53.8437 38.6565 53.8547 38.3485C53.9504 37.9459 54.0928 37.7572 54.3652 37.4494C54.6339 37.1937 54.6339 37.1937 54.7812 36.8752C53.6984 36.8752 52.6156 36.8752 51.5 36.8752Z" fill="white"/>
</svg>
