<svg width="40" height="40" viewBox="0 0 40 40" fill="none" xmlns="http://www.w3.org/2000/svg">
<path d="M34.6233 30C35.8722 30 36.8655 29.2142 37.7575 28.1152C39.5832 25.8657 36.5855 24.068 35.4423 23.1877C34.28 22.2927 32.9823 21.7857 31.6667 21.6667M30 18.3333C32.3012 18.3333 34.1667 16.4678 34.1667 14.1667C34.1667 11.8655 32.3012 10 30 10" stroke="white" stroke-width="1.5" stroke-linecap="round"/>
<path d="M5.37643 30C4.1276 30 3.13428 29.2142 2.24242 28.1152C0.416649 25.8657 3.41428 24.068 4.55758 23.1877C5.71978 22.2927 7.01747 21.7857 8.33317 21.6667M9.1665 18.3333C6.86532 18.3333 4.99983 16.4678 4.99983 14.1667C4.99983 11.8655 6.86532 10 9.1665 10" stroke="white" stroke-width="1.5" stroke-linecap="round"/>
<path d="M13.4728 25.185C11.7699 26.238 7.30482 28.3882 10.0243 31.0787C11.3528 32.393 12.8324 33.333 14.6925 33.333H25.3072C27.1673 33.333 28.6468 32.393 29.9753 31.0787C32.6948 28.3882 28.2298 26.238 26.5268 25.185C22.5333 22.7157 17.4663 22.7157 13.4728 25.185Z" stroke="white" stroke-width="1.5" stroke-linecap="round" stroke-linejoin="round"/>
<path d="M25.8332 12.5003C25.8332 15.722 23.2215 18.3337 19.9998 18.3337C16.7782 18.3337 14.1665 15.722 14.1665 12.5003C14.1665 9.27866 16.7782 6.66699 19.9998 6.66699C23.2215 6.66699 25.8332 9.27866 25.8332 12.5003Z" stroke="white" stroke-width="1.5"/>
</svg>
