<svg width="40" height="40" viewBox="0 0 40 40" fill="none" xmlns="http://www.w3.org/2000/svg">
<path d="M27.552 27.267V24.9208C27.552 23.1238 29.0212 21.667 30.8333 21.667C31.6478 21.667 32.3932 21.9613 32.9668 22.4487M29.7395 36.667H31.9272C33.6295 36.667 34.4807 36.667 35.1248 36.3255C35.6337 36.0558 36.0503 35.6427 36.3223 35.1382C36.6667 34.4992 36.6667 33.6552 36.6667 31.967C36.6667 30.2788 36.6667 29.4348 36.3223 28.7958C36.0503 28.2913 35.6337 27.8782 35.1248 27.6085C34.4807 27.267 33.6295 27.267 31.9272 27.267H29.7395C28.0372 27.267 27.186 27.267 26.5418 27.6085C26.033 27.8782 25.6163 28.2913 25.3443 28.7958C25 29.4348 25 30.2788 25 31.967C25 33.6552 25 34.4992 25.3443 35.1382C25.6163 35.6427 26.033 36.0558 26.5418 36.3255C27.186 36.667 28.0372 36.667 29.7395 36.667Z" stroke="white" stroke-width="2.5" stroke-linecap="round"/>
<path d="M20.8335 36.6663H10.9849C8.40931 36.6663 6.36068 35.413 4.52126 33.6607C0.755773 30.0732 6.93816 27.2063 9.29611 25.8023C13.2948 23.4213 18.071 22.7622 22.5002 23.825" stroke="white" stroke-width="2.5" stroke-linecap="round" stroke-linejoin="round"/>
<path d="M27.5 10.833C27.5 14.9751 24.1422 18.333 20 18.333C15.8579 18.333 12.5 14.9751 12.5 10.833C12.5 6.69087 15.8579 3.33301 20 3.33301C24.1422 3.33301 27.5 6.69087 27.5 10.833Z" stroke="white" stroke-width="2.5"/>
</svg>
