<svg width="40" height="48" viewBox="0 0 40 48" fill="none" xmlns="http://www.w3.org/2000/svg">
<path fill-rule="evenodd" clip-rule="evenodd" d="M20.4435 7.14136L31.3847 19.3356L32.7024 17.8667V7.14136H20.4435ZM35.6467 24.0866L39.4758 28.3538H39.4874V47.8645H0.913814V28.3538H0.926514L4.3418 24.548L0.5127 20.2797H0.5V0.769043H39.0747V20.2797H39.062L35.6467 24.0855V24.0866ZM8.60377 19.7981L19.9598 7.14136H6.87126V17.8667L8.60377 19.7981ZM20.0286 41.4932L31.3847 28.8364L33.1172 30.7679V41.4932H20.0286ZM8.60377 29.2989L19.545 41.4932H7.28613V30.7679L8.60377 29.2989ZM24.7012 26.7843L19.7863 32.2612L12.8657 24.548L20.2011 16.3723L25.1161 21.8503L27.1217 24.0855L24.7012 26.7832V26.7843Z" fill="white"/>
</svg>
