<svg width="161" height="49" viewBox="0 0 161 49" fill="none" xmlns="http://www.w3.org/2000/svg">
<g clip-path="url(#clip0_103_3174)">
<path fill-rule="evenodd" clip-rule="evenodd" d="M20.4435 7.14136L31.3847 19.3356L32.7024 17.8667V7.14136H20.4435ZM35.6467 24.0866L39.4758 28.3538H39.4874V47.8645H0.913814V28.3538H0.926514L4.3418 24.548L0.5127 20.2797H0.5V0.769043H39.0747V20.2797H39.062L35.6467 24.0855V24.0866ZM8.60377 19.7981L19.9598 7.14136H6.87126V17.8667L8.60377 19.7981ZM20.0286 41.4932L31.3847 28.8364L33.1172 30.7679V41.4932H20.0286ZM8.60377 29.2989L19.545 41.4932H7.28613V30.7679L8.60377 29.2989ZM24.7012 26.7843L19.7863 32.2612L12.8657 24.548L20.2011 16.3723L25.1161 21.8503L27.1217 24.0855L24.7012 26.7832V26.7843Z" fill="white"/>
<path d="M49.6709 47.8425V12.3677H63.7215C65.0244 12.3677 66.4627 12.4513 68.0375 12.6206C69.6123 12.7889 71.1353 13.1678 72.6053 13.7541C74.0753 14.3426 75.284 15.2676 76.2291 16.527C77.1731 17.7864 77.6473 19.5295 77.6473 21.7563C77.6473 23.1004 77.3837 24.3397 76.8588 25.4732C76.3339 26.6067 75.3686 27.5433 73.961 28.2778C72.5545 29.0123 70.5489 29.496 67.9433 29.7267C70.968 29.7267 73.3006 30.1374 74.9379 30.966C76.5762 31.7947 77.7108 32.8467 78.3405 34.1062C78.9702 35.3656 79.2856 36.7732 79.2856 38.3268C79.2856 40.5949 78.7818 42.3708 77.7732 43.6514C76.7657 44.932 75.4628 45.8782 73.8668 46.4867C72.2709 47.0963 70.6008 47.4742 68.8577 47.6213C67.1146 47.7684 65.5059 47.8414 64.0369 47.8414H49.6709V47.8425ZM89.704 48.2298C87.3915 48.2298 85.605 47.7567 84.3445 46.8106C83.0829 45.8644 82.2003 44.6674 81.6965 43.2164C81.1917 41.7665 80.8869 40.2742 80.7821 38.7396C80.6773 37.205 80.6244 35.8704 80.6244 34.7359V21.6208H88.0646V34.7994C88.0646 35.8927 88.1588 36.9637 88.3482 38.0146C88.5377 39.0656 88.9896 39.9165 89.704 40.5684C90.4184 41.2204 91.5529 41.5463 93.1087 41.5463C94.6221 41.5463 95.7355 41.2098 96.4509 40.5377C97.1653 39.8646 97.6278 39.0243 97.8384 38.0157C98.048 37.0071 98.175 35.9562 98.2163 34.8629V21.6219H106.035V47.6001H99.4778L98.2163 43.0598H98.0903C98.048 43.1857 97.8903 43.5223 97.6172 44.0684C97.3442 44.6145 96.8923 45.2029 96.2615 45.8337C95.6307 46.4645 94.7798 47.0212 93.7077 47.5048C92.6356 47.9885 91.301 48.2298 89.704 48.2298ZM156.26 41.7337H160.5V48.0467H156.26H149.959V12.0258H156.26V41.7337ZM55.9712 27.1126H62.9648C64.4359 27.1126 65.8118 27.0279 67.0924 26.8596C68.373 26.6914 69.3922 26.2829 70.1478 25.6309C70.9035 24.98 71.2824 23.9196 71.2824 22.4485C71.2824 20.8937 70.8939 19.7814 70.1171 19.1094C69.3403 18.4373 68.32 18.0172 67.0617 17.8499C65.8012 17.6827 64.4349 17.597 62.9659 17.597H55.9723V27.1115L55.9712 27.1126ZM56.0347 42.6756H63.5321C65.1715 42.6756 66.6828 42.5698 68.0682 42.3613C69.4546 42.1507 70.569 41.6786 71.4083 40.9431C72.2486 40.2075 72.6688 39.0423 72.6688 37.4452C72.6688 35.808 72.2264 34.5993 71.3459 33.8225C70.4643 33.0457 69.3085 32.5514 67.8798 32.3419C66.4521 32.1334 64.8762 32.0276 63.1543 32.0276H56.0347V42.6756ZM113.902 18.7686C112.517 18.7686 111.603 18.4331 111.161 17.76C110.72 17.0879 110.499 16.2688 110.499 15.3025C110.499 14.3786 110.729 13.5806 111.192 12.9085C111.653 12.2365 112.557 11.8999 113.901 11.8999C115.204 11.8999 116.078 12.2375 116.516 12.9085C116.955 13.5784 117.178 14.3786 117.178 15.3025C117.178 16.2688 116.955 17.09 116.516 17.76C116.078 18.431 115.204 18.7686 113.901 18.7686H113.902ZM110.603 47.9938L110.625 21.605H117.052L117.029 47.9938H110.603ZM131.041 48.1324C127.177 48.1324 124.422 46.9206 122.787 44.5087C121.153 42.0977 120.329 38.9322 120.329 35.0259C120.329 30.9512 121.171 27.6947 122.85 25.2594C124.53 22.8242 127.261 21.605 131.041 21.605C132.68 21.605 134.06 21.8717 135.168 22.3924C136.278 22.9131 137.167 23.5417 137.815 24.2519C138.462 24.962 138.943 25.6214 139.233 26.2056C139.523 26.7898 139.695 27.1507 139.736 27.2766H139.863V12.028H146.479V47.9663C141.366 48.0361 136.137 48.1335 131.041 48.1335V48.1324ZM133.121 42.7126C135.516 42.7126 137.23 41.9845 138.256 40.5388C139.28 39.0942 139.8 37.2304 139.8 34.9624C139.8 32.7779 139.306 30.9607 138.318 29.5129C137.332 28.064 135.662 27.3391 133.309 27.3391C131.586 27.3391 130.227 27.7095 129.245 28.4408C128.262 29.1711 127.576 30.1204 127.197 31.2761C126.819 32.4308 126.63 33.6595 126.63 34.9624C126.63 36.2652 126.812 37.5183 127.164 38.7121C127.518 39.9059 128.177 40.8796 129.118 41.6098C130.059 42.3412 131.397 42.7116 133.118 42.7116L133.121 42.7126Z" fill="white"/>
</g>
<defs>
<clipPath id="clip0_103_3174">
<rect width="160" height="47.46" fill="white" transform="translate(0.5 0.77002)"/>
</clipPath>
</defs>
</svg>
